<svg width="33" height="25" viewBox="0 0 33 25" fill="none" xmlns="http://www.w3.org/2000/svg">
<path d="M10.6339 9.90609V25L13.5 21.4583L16.7104 25V9.90609H10.6339Z" fill="#005C73"/>
<path d="M0 13.1814C7.68119 6.27286 19.3187 6.27286 27 13.1814V24.9947L26.9947 25L13.5 11.3908L0.00529342 25L0 24.9947V13.1814Z" fill="#005C73"/>
<path d="M24.6328 9.52344V7.28125C24.6328 6.97396 24.5729 6.6849 24.4531 6.41406C24.3385 6.13802 24.1797 5.89844 23.9766 5.69531C23.7734 5.49219 23.5339 5.33333 23.2578 5.21875C22.987 5.09896 22.6979 5.03906 22.3906 5.03906C22.0833 5.03906 21.7917 5.09896 21.5156 5.21875C21.2448 5.33333 21.0078 5.49219 20.8047 5.69531C20.6016 5.89844 20.4401 6.13802 20.3203 6.41406C20.2057 6.6849 20.1484 6.97396 20.1484 7.28125V9.52344H24.6328ZM26.875 14H24.6328V11.7578H20.1484V14H17.9141V7.28125C17.9141 6.66146 18.0312 6.08073 18.2656 5.53906C18.5 4.99219 18.8177 4.51562 19.2188 4.10938C19.625 3.70312 20.099 3.38281 20.6406 3.14844C21.1875 2.91406 21.7708 2.79688 22.3906 2.79688C23.0104 2.79688 23.5911 2.91406 24.1328 3.14844C24.6797 3.38281 25.1562 3.70312 25.5625 4.10938C25.9688 4.51562 26.2891 4.99219 26.5234 5.53906C26.7578 6.08073 26.875 6.66146 26.875 7.28125V14ZM31.0625 14H28.8203V2.79688H31.0625V14Z" fill="#003846"/>
</svg>
