<svg width="259" height="73" viewBox="0 0 259 73" fill="none" xmlns="http://www.w3.org/2000/svg">
<path d="M111.544 22.8105V50.1855H106.801V28.7038H106.738L98.2651 50.1855H95.1035L86.4406 28.7038H86.3774V50.1855H82.0145V22.8105H88.8435L96.6843 43.0883H96.8108L105.094 22.8105H111.544ZM115.464 24.9017C115.464 24.1413 115.717 23.5076 116.286 23.0006C116.855 22.4937 117.488 22.2402 118.247 22.2402C119.069 22.2402 119.764 22.4937 120.27 23.0006C120.776 23.5076 121.092 24.1413 121.092 24.9017C121.092 25.6621 120.839 26.2958 120.27 26.8027C119.701 27.3097 119.069 27.5631 118.247 27.5631C117.425 27.5631 116.792 27.3097 116.286 26.8027C115.78 26.2324 115.464 25.5987 115.464 24.9017ZM120.586 30.5414V50.1855H115.97V30.5414H120.586ZM134.561 46.827C135.256 46.827 136.015 46.7003 136.837 46.3201C137.659 46.0032 138.418 45.5597 139.113 45.0527V49.3617C138.354 49.8053 137.532 50.1221 136.584 50.3122C135.635 50.5023 134.624 50.629 133.486 50.629C130.577 50.629 128.237 49.7419 126.467 47.9043C124.633 46.0666 123.748 43.722 123.748 40.9338C123.748 37.7654 124.696 35.1673 126.53 33.1395C128.364 31.1117 130.956 30.0978 134.371 30.0978C135.256 30.0978 136.141 30.2246 136.963 30.4147C137.849 30.6048 138.544 30.9216 139.05 31.1751V35.6108C138.354 35.1039 137.596 34.6604 136.9 34.4069C136.141 34.1534 135.383 33.9633 134.624 33.9633C132.79 33.9633 131.336 34.5336 130.197 35.7375C129.059 36.9415 128.553 38.5258 128.553 40.5536C128.553 42.518 129.123 44.1022 130.197 45.1794C131.272 46.2567 132.727 46.827 134.561 46.827ZM152.202 30.2246C152.582 30.2246 152.898 30.2246 153.214 30.288C153.53 30.3513 153.783 30.4147 153.973 30.4781V35.1673C153.72 34.9772 153.404 34.787 152.898 34.6603C152.392 34.5336 151.886 34.4069 151.191 34.4069C150.052 34.4069 149.104 34.9138 148.345 35.8643C147.586 36.8149 147.144 38.2723 147.144 40.3001V50.1855H142.528V30.5414H147.144V33.6465H147.207C147.65 32.5692 148.282 31.7454 149.104 31.1117C149.989 30.5414 151.001 30.2246 152.202 30.2246ZM154.226 40.6803C154.226 37.4485 155.174 34.8505 156.945 32.9494C158.779 31.0484 161.308 30.0978 164.533 30.0978C167.568 30.0978 169.971 30.985 171.678 32.8227C173.385 34.6604 174.271 37.1317 174.271 40.2367C174.271 43.4051 173.322 45.9399 171.551 47.8409C169.718 49.7419 167.252 50.6925 164.09 50.6925C161.055 50.6925 158.652 49.8053 156.882 48.031C155.111 46.1933 154.226 43.7219 154.226 40.6803ZM159.031 40.4901C159.031 42.5179 159.474 44.1022 160.423 45.1794C161.371 46.2567 162.699 46.827 164.406 46.827C166.05 46.827 167.378 46.3201 168.263 45.1794C169.149 44.1022 169.591 42.5179 169.591 40.3634C169.591 38.2723 169.149 36.6881 168.263 35.5475C167.378 34.4702 166.05 33.8999 164.469 33.8999C162.762 33.8999 161.498 34.4702 160.549 35.6108C159.474 36.8148 159.031 38.399 159.031 40.4901ZM181.163 35.7375C181.163 36.3712 181.353 36.9415 181.795 37.3217C182.238 37.702 183.123 38.1456 184.577 38.7159C186.411 39.4763 187.739 40.3001 188.435 41.1873C189.193 42.1378 189.573 43.215 189.573 44.5458C189.573 46.3834 188.877 47.8409 187.423 48.9815C186.032 50.1222 184.072 50.629 181.669 50.629C180.847 50.629 179.961 50.5023 178.95 50.3122C177.938 50.1221 177.116 49.8686 176.42 49.5518V44.9893C177.242 45.5597 178.191 46.0665 179.139 46.3834C180.088 46.7002 180.973 46.8904 181.795 46.8904C182.807 46.8904 183.629 46.7636 184.072 46.4468C184.577 46.13 184.83 45.6864 184.83 44.9893C184.83 44.3557 184.577 43.8487 184.072 43.3417C183.566 42.8981 182.554 42.3913 181.163 41.8209C179.456 41.1239 178.254 40.3 177.559 39.4129C176.863 38.5257 176.484 37.3852 176.484 35.9911C176.484 34.2168 177.179 32.7592 178.57 31.6186C179.961 30.478 181.795 29.9077 184.008 29.9077C184.704 29.9077 185.463 29.9711 186.285 30.1612C187.107 30.3513 187.865 30.5414 188.435 30.7315V35.2307C187.802 34.8505 187.107 34.4702 186.285 34.1533C185.463 33.8365 184.641 33.7098 183.882 33.7098C182.997 33.7098 182.301 33.8999 181.858 34.2168C181.416 34.6604 181.163 35.1039 181.163 35.7375ZM191.533 40.6803C191.533 37.4485 192.481 34.8505 194.252 32.9494C196.086 31.0484 198.615 30.0978 201.84 30.0978C204.875 30.0978 207.278 30.985 208.985 32.8227C210.692 34.6604 211.578 37.1317 211.578 40.2367C211.578 43.4051 210.629 45.9399 208.859 47.8409C207.025 49.7419 204.559 50.6925 201.397 50.6925C198.362 50.6925 195.959 49.8053 194.189 48.031C192.481 46.1933 191.533 43.7219 191.533 40.6803ZM196.339 40.4901C196.339 42.5179 196.781 44.1022 197.73 45.1794C198.678 46.2567 200.006 46.827 201.713 46.827C203.357 46.827 204.685 46.3201 205.571 45.1794C206.456 44.1022 206.898 42.5179 206.898 40.3634C206.898 38.2723 206.456 36.6881 205.571 35.5475C204.685 34.4702 203.357 33.8999 201.777 33.8999C200.069 33.8999 198.805 34.4702 197.856 35.6108C196.844 36.8148 196.339 38.399 196.339 40.4901ZM226.943 34.3434H220.051V50.1855H215.372V34.3434H212.083V30.5414H215.372V27.8166C215.372 25.7888 216.067 24.0779 217.395 22.7472C218.723 21.4164 220.43 20.7827 222.517 20.7827C223.086 20.7827 223.592 20.8461 224.034 20.8461C224.477 20.8461 224.856 20.9728 225.173 21.0996V25.0918C225.046 25.0284 224.73 24.9017 224.351 24.7749C223.971 24.6482 223.529 24.5848 223.023 24.5848C222.074 24.5848 221.315 24.9017 220.81 25.472C220.304 26.0423 220.051 26.9928 220.051 28.1334V30.4781H226.943V26.0423L231.559 24.6482V30.4781H236.238V34.2801H231.559V43.4685C231.559 44.6725 231.812 45.4963 232.191 46.0032C232.634 46.5102 233.33 46.7636 234.278 46.7636C234.531 46.7636 234.847 46.7003 235.227 46.5735C235.606 46.4468 235.922 46.3201 236.175 46.13V49.9321C235.859 50.1222 235.416 50.2489 234.721 50.3756C234.025 50.5024 233.393 50.5657 232.697 50.5657C230.737 50.5657 229.283 50.0587 228.334 49.0448C227.386 48.0309 226.88 46.4468 226.88 44.3557L226.943 34.3434Z" fill="#737373"/>
<path d="M44.3911 13.6855H22.7656V35.3574H44.3911V13.6855Z" fill="#F25022"/>
<path d="M68.2928 13.6855H46.6673V35.3574H68.2928V13.6855Z" fill="#7FBA00"/>
<path d="M44.3911 37.6386H22.7656V59.3105H44.3911V37.6386Z" fill="#00A4EF"/>
<path d="M68.2928 37.6386H46.6673V59.3105H68.2928V37.6386Z" fill="#FFB900"/>
</svg>
