<svg width="16" height="16" viewBox="0 0 16 16" fill="none" xmlns="http://www.w3.org/2000/svg">
<path d="M15.5897 5.50181C15.4142 5.28839 15.1907 5.11609 14.9362 4.99788C14.6816 4.87966 14.4026 4.81859 14.12 4.81927H12.9648V4.78604C12.9648 3.5167 12.4416 2.29935 11.5105 1.4018C10.5793 0.504242 9.31644 0 7.9996 0C6.68276 0 5.41985 0.504242 4.4887 1.4018C3.55755 2.29935 3.03444 3.5167 3.03444 4.78604V4.81927H1.87917C1.59676 4.81927 1.31797 4.88062 1.06354 4.99877C0.809115 5.11692 0.585587 5.28884 0.409578 5.50173C0.233568 5.71462 0.109604 5.96301 0.0469011 6.22844C-0.015802 6.49388 -0.0156312 6.76952 0.047401 7.03488L1.65396 13.7999C1.7999 14.4262 2.1633 14.9857 2.68403 15.3857C3.20476 15.7858 3.8516 16.0025 4.5175 16H11.4817C12.1476 16.0025 12.7944 15.7859 13.3151 15.3858C13.8359 14.9858 14.1993 14.4263 14.3452 13.8001L15.9518 7.03504C16.0155 6.76971 16.0161 6.49391 15.9534 6.22836C15.8906 5.9628 15.7663 5.7144 15.5897 5.50181ZM4.43963 4.78604C4.43963 3.87594 4.81469 3.00311 5.48232 2.35957C6.14994 1.71603 7.05543 1.3545 7.9996 1.3545C8.94376 1.3545 9.84925 1.71603 10.5169 2.35957C11.1845 3.00311 11.5596 3.87594 11.5596 4.78604V4.81927H4.43963V4.78604ZM14.582 6.73263L12.9754 13.498C12.8992 13.8246 12.7096 14.1164 12.438 14.3251C12.1664 14.5338 11.829 14.6468 11.4817 14.6455H4.5175C4.17015 14.6468 3.83274 14.5337 3.56112 14.325C3.28949 14.1163 3.09993 13.8245 3.0238 13.4978L1.41724 6.73246C1.40133 6.66554 1.40128 6.59603 1.41709 6.52909C1.4329 6.46215 1.46416 6.39951 1.50855 6.34582C1.55294 6.29213 1.60932 6.24878 1.67349 6.21899C1.73766 6.18921 1.80797 6.17375 1.87919 6.17377H14.12C14.1913 6.17375 14.2616 6.18922 14.3258 6.21902C14.3899 6.24882 14.4463 6.29218 14.4907 6.34589C14.5351 6.39959 14.5664 6.46225 14.5822 6.52921C14.598 6.59617 14.5979 6.6657 14.582 6.73263Z" fill="#495057"/>
</svg>
