<svg width="16" height="16" viewBox="0 0 16 16" fill="none" xmlns="http://www.w3.org/2000/svg">
<path d="M0.191242 12.6526L1.42302 13.1392C2.20008 13.4459 2.81422 14.0036 3.15248 14.7089L3.68865 15.8268C3.73925 15.9322 3.8538 16.0004 3.98045 16.0004C4.1071 16.0004 4.22165 15.9322 4.27225 15.8268L4.80842 14.7089C5.14636 14.0036 5.76018 13.4462 6.53788 13.1392L7.76966 12.6526C7.88548 12.6067 7.9609 12.5027 7.9609 12.3878C7.9609 12.2728 7.8858 12.1688 7.76966 12.1229L6.53788 11.6366C5.76082 11.3296 5.14636 10.7722 4.80842 10.0669L4.27225 8.94896C4.22165 8.84355 4.1071 8.77539 3.98045 8.77539C3.8538 8.77539 3.73925 8.84355 3.68865 8.94896L3.15248 10.0669C2.81454 10.7719 2.2004 11.3296 1.42334 11.6366L0.191242 12.1229C0.0754151 12.1688 0 12.2728 0 12.3878C0 12.5027 0.0750969 12.6067 0.191242 12.6526ZM1.67727 12.1662C2.60198 11.8006 3.33322 11.1372 3.73607 10.2974L3.98045 9.78794L4.22483 10.2974C4.62736 11.1369 5.35829 11.8006 6.28363 12.1662L6.84495 12.3878L6.28395 12.6096C5.3586 12.9749 4.62736 13.6386 4.22483 14.4784L3.98045 14.9879L3.73607 14.4784C3.33322 13.6386 2.6023 12.9749 1.67727 12.6096L1.11595 12.3878L1.67727 12.1662Z" fill="#495057"/>
<path d="M15.7589 5.191L13.8462 4.43559C12.6179 3.95031 11.6468 3.06931 11.1124 1.95459L10.2801 0.218795C10.2163 0.0859165 10.0719 0 9.91221 0C9.75255 0 9.60814 0.0859165 9.54436 0.218795L8.71199 1.95459C8.17767 3.06931 7.2065 3.95068 5.9782 4.43559L4.06555 5.191C3.91953 5.24888 3.82446 5.37994 3.82446 5.52483C3.82446 5.66972 3.91913 5.80078 4.06555 5.85867L5.9786 6.61407C7.2069 7.09898 8.17767 7.97999 8.71199 9.09507L9.54436 10.8312C9.60814 10.9641 9.75255 11.05 9.91221 11.05C10.0719 11.05 10.2163 10.9641 10.2801 10.8312L11.1124 9.09507C11.6468 7.98035 12.6179 7.09898 13.8462 6.61407L15.7589 5.85867C15.9049 5.80078 16 5.66972 16 5.52483C16 5.37994 15.9053 5.24888 15.7589 5.191ZM13.5265 5.9464C12.1113 6.50522 10.9929 7.52019 10.3767 8.80456L9.91221 9.77366L9.44769 8.80456C8.83193 7.52019 7.71355 6.50522 6.29831 5.9464L5.23087 5.52483L6.29831 5.10326C7.71314 4.54444 8.83153 3.52911 9.44769 2.24474L9.91221 1.276L10.3767 2.24474C10.9925 3.52911 12.1109 4.54408 13.5261 5.10326L14.5935 5.52483L13.5265 5.9464Z" fill="#495057"/>
</svg>
