<svg width="9" height="9" viewBox="0 0 9 9" fill="none" xmlns="http://www.w3.org/2000/svg">
<path d="M0.104585 6.91917L0.778211 7.1853C1.20316 7.35303 1.53902 7.65801 1.724 8.0437L2.01722 8.65509C2.04489 8.71274 2.10754 8.75001 2.1768 8.75001C2.24606 8.75001 2.30871 8.71274 2.33637 8.65509L2.6296 8.0437C2.8144 7.65801 3.15009 7.35319 3.57539 7.1853L4.24901 6.91917C4.31236 6.89406 4.3536 6.8372 4.3536 6.77434C4.3536 6.71148 4.31253 6.65462 4.24901 6.62951L3.57539 6.36354C3.15043 6.19565 2.8144 5.89082 2.6296 5.50514L2.33637 4.89375C2.30871 4.8361 2.24606 4.79883 2.1768 4.79883C2.10754 4.79883 2.04489 4.8361 2.01722 4.89375L1.724 5.50514C1.53919 5.89067 1.20334 6.19565 0.778385 6.36354L0.104585 6.62951C0.0412425 6.65462 0 6.71148 0 6.77434C0 6.8372 0.0410684 6.89406 0.104585 6.91917ZM0.917252 6.6532C1.42295 6.45325 1.82285 6.09046 2.04315 5.63117L2.1768 5.35257L2.31045 5.63117C2.53058 6.0903 2.9303 6.45325 3.43635 6.6532L3.74332 6.77434L3.43652 6.89564C2.93047 7.09543 2.53058 7.45838 2.31045 7.91767L2.1768 8.19627L2.04315 7.91767C1.82285 7.45838 1.42312 7.09543 0.917252 6.89564L0.610283 6.77434L0.917252 6.6532Z" fill="#F9A826"/>
<path d="M8.61815 2.83883L7.57218 2.42571C6.90045 2.16033 6.36935 1.67853 6.07714 1.06891L5.62194 0.119654C5.58706 0.0469856 5.50809 0 5.42078 0C5.33346 0 5.25449 0.0469856 5.21961 0.119654L4.76441 1.06891C4.4722 1.67853 3.9411 2.16053 3.26937 2.42571L2.2234 2.83883C2.14354 2.87048 2.09155 2.94215 2.09155 3.02139C2.09155 3.10063 2.14332 3.1723 2.2234 3.20396L3.26959 3.61707C3.94132 3.88226 4.4722 4.36406 4.76441 4.97387L5.21961 5.92333C5.25449 5.996 5.33346 6.04298 5.42078 6.04298C5.50809 6.04298 5.58706 5.996 5.62194 5.92333L6.07714 4.97387C6.36935 4.36425 6.90045 3.88226 7.57218 3.61707L8.61815 3.20396C8.69801 3.1723 8.75 3.10063 8.75 3.02139C8.75 2.94215 8.69823 2.87048 8.61815 2.83883ZM7.39734 3.25194C6.62338 3.55754 6.01177 4.1126 5.67481 4.81499L5.42078 5.34497L5.16674 4.81499C4.83 4.1126 4.21839 3.55754 3.44443 3.25194L2.86068 3.02139L3.44443 2.79085C4.21817 2.48524 4.82978 1.92998 5.16674 1.22759L5.42078 0.697811L5.67481 1.22759C6.01155 1.92998 6.62316 2.48504 7.39712 2.79085L7.98087 3.02139L7.39734 3.25194Z" fill="#F9A826"/>
</svg>
