<svg width="6" height="9" viewBox="0 0 6 9" fill="none" xmlns="http://www.w3.org/2000/svg">
<path fill-rule="evenodd" clip-rule="evenodd" d="M1.50761 6.28171V5.8935C1.50761 5.51232 1.33423 5.15151 1.03648 4.9133L1.03573 4.91255C0.402782 4.41052 0 3.63384 0 2.76395C0 1.2385 1.2385 0 2.76395 0C4.2894 0 5.5279 1.2385 5.5279 2.76395C5.5279 3.6346 5.12437 4.41152 4.49469 4.91833C4.19995 5.15452 4.02758 5.51208 4.02657 5.89023C4.02029 6.01411 4.02029 6.15281 4.02029 6.28171C4.02029 6.42041 3.90773 6.53298 3.76902 6.53298H1.75888C1.62018 6.53298 1.50761 6.42041 1.50761 6.28171Z" fill="#F9A826"/>
<path fill-rule="evenodd" clip-rule="evenodd" d="M1.75884 7.53818H3.76898C3.90768 7.53818 4.02025 7.42561 4.02025 7.28691C4.02025 7.14821 3.90768 7.03564 3.76898 7.03564H1.75884C1.62014 7.03564 1.50757 7.14821 1.50757 7.28691C1.50757 7.42561 1.62014 7.53818 1.75884 7.53818Z" fill="#F9A826"/>
<path fill-rule="evenodd" clip-rule="evenodd" d="M2.26152 8.54355H3.2666C3.4053 8.54355 3.51786 8.43098 3.51786 8.29228C3.51786 8.15358 3.4053 8.04102 3.2666 8.04102H2.26152C2.12282 8.04102 2.01025 8.15358 2.01025 8.29228C2.01025 8.43098 2.12282 8.54355 2.26152 8.54355Z" fill="#F9A826"/>
</svg>
