<svg width="184" height="15" viewBox="0 0 184 15" fill="none" xmlns="http://www.w3.org/2000/svg">
<path d="M183.207 8.17586C183.598 7.78533 183.598 7.15217 183.207 6.76164L176.843 0.397682C176.453 0.0071578 175.819 0.0071578 175.429 0.397682C175.038 0.788207 175.038 1.42137 175.429 1.8119L181.086 7.46875L175.429 13.1256C175.038 13.5161 175.038 14.1493 175.429 14.5398C175.819 14.9303 176.453 14.9303 176.843 14.5398L183.207 8.17586ZM0 7.46875V8.46875H1.9837V7.46875V6.46875H0V7.46875ZM5.95109 7.46875V8.46875H9.91848V7.46875V6.46875H5.95109V7.46875ZM13.8859 7.46875V8.46875H17.8533V7.46875V6.46875H13.8859V7.46875ZM21.8207 7.46875V8.46875H25.788V7.46875V6.46875H21.8207V7.46875ZM29.7554 7.46875V8.46875H33.7228V7.46875V6.46875H29.7554V7.46875ZM37.6902 7.46875V8.46875H41.6576V7.46875V6.46875H37.6902V7.46875ZM45.625 7.46875V8.46875H49.5924V7.46875V6.46875H45.625V7.46875ZM53.5598 7.46875V8.46875H57.5272V7.46875V6.46875H53.5598V7.46875ZM61.4946 7.46875V8.46875H65.462V7.46875V6.46875H61.4946V7.46875ZM69.4294 7.46875V8.46875H73.3967V7.46875V6.46875H69.4294V7.46875ZM77.3641 7.46875V8.46875H81.3315V7.46875V6.46875H77.3641V7.46875ZM85.2989 7.46875V8.46875H89.2663V7.46875V6.46875H85.2989V7.46875ZM93.2337 7.46875V8.46875H97.2011V7.46875V6.46875H93.2337V7.46875ZM101.168 7.46875V8.46875H105.136V7.46875V6.46875H101.168V7.46875ZM109.103 7.46875V8.46875H113.071V7.46875V6.46875H109.103V7.46875ZM117.038 7.46875V8.46875H121.005V7.46875V6.46875H117.038V7.46875ZM124.973 7.46875V8.46875H128.94V7.46875V6.46875H124.973V7.46875ZM132.908 7.46875V8.46875H136.875V7.46875V6.46875H132.908V7.46875ZM140.842 7.46875V8.46875H144.81V7.46875V6.46875H140.842V7.46875ZM148.777 7.46875V8.46875H152.745V7.46875V6.46875H148.777V7.46875ZM156.712 7.46875V8.46875H160.679V7.46875V6.46875H156.712V7.46875ZM164.647 7.46875V8.46875H168.614V7.46875V6.46875H164.647V7.46875ZM172.582 7.46875V8.46875H176.549V7.46875V6.46875H172.582V7.46875ZM180.516 7.46875V8.46875H182.5V7.46875V6.46875H180.516V7.46875ZM183.207 8.17586C183.598 7.78533 183.598 7.15217 183.207 6.76164L176.843 0.397682C176.453 0.0071578 175.819 0.0071578 175.429 0.397682C175.038 0.788207 175.038 1.42137 175.429 1.8119L181.086 7.46875L175.429 13.1256C175.038 13.5161 175.038 14.1493 175.429 14.5398C175.819 14.9303 176.453 14.9303 176.843 14.5398L183.207 8.17586ZM0 7.46875V8.46875H1.9837V7.46875V6.46875H0V7.46875ZM5.95109 7.46875V8.46875H9.91848V7.46875V6.46875H5.95109V7.46875ZM13.8859 7.46875V8.46875H17.8533V7.46875V6.46875H13.8859V7.46875ZM21.8207 7.46875V8.46875H25.788V7.46875V6.46875H21.8207V7.46875ZM29.7554 7.46875V8.46875H33.7228V7.46875V6.46875H29.7554V7.46875ZM37.6902 7.46875V8.46875H41.6576V7.46875V6.46875H37.6902V7.46875ZM45.625 7.46875V8.46875H49.5924V7.46875V6.46875H45.625V7.46875ZM53.5598 7.46875V8.46875H57.5272V7.46875V6.46875H53.5598V7.46875ZM61.4946 7.46875V8.46875H65.462V7.46875V6.46875H61.4946V7.46875ZM69.4294 7.46875V8.46875H73.3967V7.46875V6.46875H69.4294V7.46875ZM77.3641 7.46875V8.46875H81.3315V7.46875V6.46875H77.3641V7.46875ZM85.2989 7.46875V8.46875H89.2663V7.46875V6.46875H85.2989V7.46875ZM93.2337 7.46875V8.46875H97.2011V7.46875V6.46875H93.2337V7.46875ZM101.168 7.46875V8.46875H105.136V7.46875V6.46875H101.168V7.46875ZM109.103 7.46875V8.46875H113.071V7.46875V6.46875H109.103V7.46875ZM117.038 7.46875V8.46875H121.005V7.46875V6.46875H117.038V7.46875ZM124.973 7.46875V8.46875H128.94V7.46875V6.46875H124.973V7.46875ZM132.908 7.46875V8.46875H136.875V7.46875V6.46875H132.908V7.46875ZM140.842 7.46875V8.46875H144.81V7.46875V6.46875H140.842V7.46875ZM148.777 7.46875V8.46875H152.745V7.46875V6.46875H148.777V7.46875ZM156.712 7.46875V8.46875H160.679V7.46875V6.46875H156.712V7.46875ZM164.647 7.46875V8.46875H168.614V7.46875V6.46875H164.647V7.46875ZM172.582 7.46875V8.46875H176.549V7.46875V6.46875H172.582V7.46875ZM180.516 7.46875V8.46875H182.5V7.46875V6.46875H180.516V7.46875Z" fill="#F98A26"/>
</svg>
