<svg width="300" height="339" viewBox="0 0 300 339" fill="none" xmlns="http://www.w3.org/2000/svg">
<path d="M159.129 172.885C346.957 244.949 271.729 367.233 155.643 178.547C271.729 367.233 150 413.941 150 180.71C150 413.941 28.2811 367.233 144.357 178.547C28.2811 367.233 -46.9571 244.949 140.871 172.885C-46.9571 244.949 -46.9571 93.7604 140.871 165.875C-46.9571 93.7975 28.2811 -28.4864 144.357 160.212C28.2811 -28.4864 150 -75.1943 150 158.049C150 -75.1943 271.729 -28.4864 155.643 160.212C271.729 -28.4864 346.957 93.7975 159.129 165.875C346.957 93.7975 346.957 244.949 159.129 172.885Z" fill="#9AD3BC"/>
</svg>
