<svg width="300" height="305" viewBox="0 0 300 305" fill="none" xmlns="http://www.w3.org/2000/svg">
<g clip-path="url(#clip0_414_19037)">
<path d="M159.129 155.868C346.957 217.486 271.729 322.042 155.643 160.709C271.729 322.042 150 361.979 150 162.559C150 361.979 28.2811 322.042 144.357 160.709C28.2811 322.042 -46.9571 217.486 140.871 155.868C-46.9571 217.486 -46.9571 88.2145 140.871 149.874C-46.9571 88.2462 28.2811 -16.3102 144.357 145.033C28.2811 -16.3102 150 -56.2469 150 143.183C150 -56.2469 271.729 -16.3102 155.643 145.033C271.729 -16.3102 346.957 88.2462 159.129 149.874C346.957 88.2462 346.957 217.486 159.129 155.868Z" fill="#F98A26"/>
</g>
<defs>
<clipPath id="clip0_414_19037">
<rect width="300" height="303.69" fill="white" transform="translate(0 0.869141)"/>
</clipPath>
</defs>
</svg>
