<svg width="47" height="44" viewBox="0 0 47 44" fill="none" xmlns="http://www.w3.org/2000/svg">
<path opacity="0.8" d="M23.375 0C10.4653 0 0 9.84974 0 22C0 34.1503 10.4653 44 23.375 44C34.9573 44 44.5721 36.0716 46.4268 25.6667H46.259C44.5291 31.9925 38.4278 36.6667 31.1667 36.6667C22.5603 36.6667 15.5833 30.1002 15.5833 22C15.5833 13.8998 22.5603 7.33333 31.1667 7.33333C38.4278 7.33333 44.5291 12.0075 46.259 18.3333H46.4268C44.5721 7.92838 34.9573 0 23.375 0Z" fill="white"/>
<path d="M0 22C0 9.84974 10.4653 0 23.375 0C34.9573 0 44.5721 7.92838 46.4268 18.3333H30.6757C28.9458 12.0075 22.8445 7.33333 15.5833 7.33333C6.97689 7.33333 0 13.8998 0 22Z" fill="white"/>
<path d="M0 22C0 34.1503 10.4653 44 23.375 44C34.9573 44 44.5721 36.0716 46.4268 25.6667H30.6757C28.9458 31.9925 22.8445 36.6667 15.5833 36.6667C6.97689 36.6667 0 30.1002 0 22Z" fill="white"/>
</svg>
