<svg width="109" height="28" viewBox="0 0 109 28" fill="none" xmlns="http://www.w3.org/2000/svg">
<path d="M19.1531 7.50657C18.4876 2.98242 14.7899 0.357422 9.9936 0.357422C4.34153 0.357422 0.0839844 4.23526 0.0839844 10.8177C0.0839844 17.3901 4.28871 21.2779 9.9936 21.2779C15.1386 21.2779 18.551 18.1458 19.1531 14.258L15.202 14.2381C14.7054 16.6245 12.6348 17.9668 10.0464 17.9668C6.53897 17.9668 4.02459 15.4909 4.02459 10.8177C4.02459 6.2239 6.51784 3.6685 10.057 3.6685C12.6876 3.6685 14.7477 5.07049 15.202 7.50657H19.1531Z" fill="white"/>
<path d="M27.243 21.3077C29.7891 21.3077 31.3104 20.1841 32.0076 18.9015H32.1344V20.9995H35.8109V10.7779C35.8109 6.74094 32.314 5.52788 29.2186 5.52788C25.8062 5.52788 23.1862 6.9597 22.341 9.74379L25.9119 10.2211C26.2922 9.17703 27.3698 8.28214 29.2397 8.28214C31.0146 8.28214 31.9865 9.13725 31.9865 10.6387V10.6983C31.9865 11.7324 30.835 11.7821 27.972 12.0705C24.8237 12.3887 21.8128 13.2736 21.8128 16.714C21.8128 19.7168 24.1476 21.3077 27.243 21.3077ZM28.2361 18.6628C26.6408 18.6628 25.4998 17.9767 25.4998 16.6543C25.4998 15.2722 26.7782 14.6955 28.4896 14.4668C29.4933 14.3375 31.5005 14.0989 31.9971 13.7211V15.5208C31.9971 17.2211 30.5392 18.6628 28.2361 18.6628Z" fill="white"/>
<path d="M47.7595 5.72674H44.5584V2.06765H40.734V5.72674H38.4309V8.51083H40.734V17.0023C40.7129 19.8759 42.9315 21.2878 45.805 21.2083C46.8932 21.1784 47.6433 20.9796 48.0553 20.8503L47.4109 18.0364C47.1996 18.0861 46.7664 18.1756 46.291 18.1756C45.3296 18.1756 44.5584 17.8574 44.5584 16.4057V8.51083H47.7595V5.72674Z" fill="white"/>
<path d="M55.6275 21.3077C58.1736 21.3077 59.6949 20.1841 60.3922 18.9015H60.5189V20.9995H64.1954V10.7779C64.1954 6.74094 60.6985 5.52788 57.6031 5.52788C54.1907 5.52788 51.5707 6.9597 50.7255 9.74379L54.2964 10.2211C54.6767 9.17703 55.7543 8.28214 57.6242 8.28214C59.3991 8.28214 60.371 9.13725 60.371 10.6387V10.6983C60.371 11.7324 59.2195 11.7821 56.3565 12.0705C53.2082 12.3887 50.1973 13.2736 50.1973 16.714C50.1973 19.7168 52.5321 21.3077 55.6275 21.3077ZM56.6206 18.6628C55.0253 18.6628 53.8843 17.9767 53.8843 16.6543C53.8843 15.2722 55.1627 14.6955 56.8741 14.4668C57.8778 14.3375 59.8851 14.0989 60.3816 13.7211V15.5208C60.3816 17.2211 58.9237 18.6628 56.6206 18.6628Z" fill="white"/>
<path d="M71.8653 0.635831H68.0409V20.9995H71.8653V0.635831Z" fill="white"/>
<path d="M82.8763 21.2978C87.6304 21.2978 90.6519 18.1458 90.6519 13.4228C90.6519 8.68981 87.6304 5.52788 82.8763 5.52788C78.1222 5.52788 75.1008 8.68981 75.1008 13.4228C75.1008 18.1458 78.1222 21.2978 82.8763 21.2978ZM82.8975 18.4142C80.2669 18.4142 78.978 16.2069 78.978 13.4128C78.978 10.6188 80.2669 8.38157 82.8975 8.38157C85.4858 8.38157 86.7747 10.6188 86.7747 13.4128C86.7747 16.2069 85.4858 18.4142 82.8975 18.4142Z" fill="white"/>
<path d="M100.955 27.0449C105.339 27.0449 108.572 25.1557 108.572 21.248V5.72674H104.801V8.25231H104.589C104.008 7.14862 102.793 5.52788 99.9303 5.52788C96.1798 5.52788 93.2323 8.29208 93.2323 13.3134C93.2323 18.2949 96.1798 20.7807 99.9197 20.7807C102.698 20.7807 103.998 19.3787 104.589 18.2552H104.779V21.1486C104.779 23.3958 103.195 24.3205 101.018 24.3205C98.7153 24.3205 97.7011 23.2963 97.2363 22.4015L93.7922 23.187C94.4895 25.3248 96.8243 27.0449 100.955 27.0449ZM100.987 17.9569C98.4618 17.9569 97.1306 16.1074 97.1306 13.2935C97.1306 10.5194 98.4407 8.481 100.987 8.481C103.448 8.481 104.801 10.4 104.801 13.2935C104.801 16.2069 103.427 17.9569 100.987 17.9569Z" fill="white"/>
</svg>
