<svg width="128" height="62" viewBox="0 0 128 62" fill="none" xmlns="http://www.w3.org/2000/svg">
<path d="M10.8881 6.05189C11.4269 4.39353 13.7731 4.39354 14.3119 6.0519L15.0248 8.24582C15.2657 8.98746 15.9568 9.48959 16.7367 9.48959H19.0435C20.7872 9.48959 21.5122 11.7209 20.1015 12.7458L18.2352 14.1017C17.6044 14.5601 17.3404 15.3726 17.5813 16.1142L18.2942 18.3081C18.833 19.9665 16.935 21.3455 15.5243 20.3206L13.658 18.9647C13.0271 18.5063 12.1729 18.5063 11.542 18.9647L9.67572 20.3206C8.26504 21.3455 6.36697 19.9665 6.90581 18.3081L7.61866 16.1142C7.85963 15.3726 7.59565 14.5601 6.96477 14.1017L5.0985 12.7458C3.68782 11.7209 4.41282 9.48959 6.15652 9.48959H8.46335C9.24316 9.48959 9.93428 8.98746 10.1752 8.24582L10.8881 6.05189Z" fill="#F28833"/>
<path d="M32.4877 6.05189C33.0265 4.39353 35.3727 4.39354 35.9115 6.0519L36.6244 8.24582C36.8653 8.98746 37.5565 9.48959 38.3363 9.48959H40.6431C42.3868 9.48959 43.1118 11.7209 41.7011 12.7458L39.8348 14.1017C39.204 14.5601 38.94 15.3726 39.181 16.1142L39.8938 18.3081C40.4326 19.9665 38.5346 21.3455 37.1239 20.3206L35.2576 18.9647C34.6267 18.5063 33.7725 18.5063 33.1416 18.9647L31.2753 20.3206C29.8646 21.3455 27.9666 19.9665 28.5054 18.3081L29.2183 16.1142C29.4592 15.3726 29.1953 14.5601 28.5644 14.1017L26.6981 12.7458C25.2874 11.7209 26.0124 9.48959 27.7561 9.48959H30.063C30.8428 9.48959 31.5339 8.98746 31.7749 8.24582L32.4877 6.05189Z" fill="#F28833"/>
<path d="M54.0883 6.05189C54.6271 4.39353 56.9733 4.39354 57.5121 6.0519L58.2249 8.24582C58.4659 8.98746 59.157 9.48959 59.9368 9.48959H62.2437C63.9874 9.48959 64.7124 11.7209 63.3017 12.7458L61.4354 14.1017C60.8045 14.5601 60.5406 15.3726 60.7815 16.1142L61.4944 18.3081C62.0332 19.9665 60.1352 21.3455 58.7245 20.3206L56.8582 18.9647C56.2273 18.5063 55.3731 18.5063 54.7422 18.9647L52.8759 20.3206C51.4652 21.3455 49.5672 19.9665 50.106 18.3081L50.8189 16.1142C51.0598 15.3726 50.7958 14.5601 50.165 14.1017L48.2987 12.7458C46.888 11.7209 47.613 9.48959 49.3567 9.48959H51.6635C52.4434 9.48959 53.1345 8.98746 53.3754 8.24582L54.0883 6.05189Z" fill="#F28833"/>
<path d="M75.6879 6.05189C76.2267 4.39353 78.5729 4.39354 79.1117 6.0519L79.8246 8.24582C80.0655 8.98746 80.7567 9.48959 81.5365 9.48959H83.8433C85.587 9.48959 86.312 11.7209 84.9013 12.7458L83.035 14.1017C82.4042 14.5601 82.1402 15.3726 82.3811 16.1142L83.094 18.3081C83.6328 19.9665 81.7348 21.3455 80.3241 20.3206L78.4578 18.9647C77.8269 18.5063 76.9727 18.5063 76.3418 18.9647L74.4755 20.3206C73.0648 21.3455 71.1668 19.9665 71.7056 18.3081L72.4185 16.1142C72.6594 15.3726 72.3955 14.5601 71.7646 14.1017L69.8983 12.7458C68.4876 11.7209 69.2126 9.48959 70.9563 9.48959H73.2632C74.043 9.48959 74.7341 8.98746 74.9751 8.24582L75.6879 6.05189Z" fill="#F28833"/>
<path d="M97.5029 6.12109C97.9599 4.71596 99.8995 4.67199 100.449 5.98926L100.498 6.12109L101.211 8.31543C101.482 9.14967 102.26 9.7147 103.137 9.71484H105.444C106.922 9.71523 107.563 11.5469 106.479 12.4766L106.37 12.5635L104.503 13.9199C103.838 14.4034 103.536 15.2368 103.724 16.0264L103.768 16.1836L104.48 18.3779C104.937 19.7835 103.393 20.9598 102.174 20.2168L102.057 20.1387L100.19 18.7822C99.5251 18.299 98.6392 18.2695 97.9463 18.6924L97.8105 18.7822L95.9443 20.1387C94.7485 21.0075 93.1521 19.902 93.4824 18.5127L93.5205 18.3779L94.2334 16.1836C94.4874 15.4015 94.2424 14.5488 93.626 14.0205L93.4971 13.9199L91.6309 12.5635C90.397 11.6666 91.0312 9.71507 92.5566 9.71484H94.8633C95.6857 9.71484 96.4214 9.21829 96.7334 8.46875L96.79 8.31543L97.5029 6.12109Z" stroke="#F28833" stroke-width="0.45"/>
<mask id="mask0_411_8756" style="mask-type:alpha" maskUnits="userSpaceOnUse" x="86" y="0" width="16" height="26">
<rect x="86.4004" y="0.783203" width="14.85" height="25.2" fill="#D9D9D9"/>
</mask>
<g mask="url(#mask0_411_8756)">
<path d="M97.2885 6.05189C97.8273 4.39353 100.173 4.39354 100.712 6.0519L101.425 8.24582C101.666 8.98746 102.357 9.48959 103.137 9.48959H105.444C107.188 9.48959 107.913 11.7209 106.502 12.7458L104.636 14.1017C104.005 14.5601 103.741 15.3726 103.982 16.1142L104.695 18.3081C105.233 19.9665 103.335 21.3455 101.925 20.3206L100.058 18.9647C99.4275 18.5063 98.5733 18.5063 97.9424 18.9647L96.0761 20.3206C94.6654 21.3455 92.7674 19.9665 93.3062 18.3081L94.019 16.1142C94.26 15.3726 93.996 14.5601 93.3652 14.1017L91.4989 12.7458C90.0882 11.7209 90.8132 9.48959 92.5569 9.48959H94.8637C95.6435 9.48959 96.3347 8.98746 96.5756 8.24582L97.2885 6.05189Z" fill="#F28833"/>
</g>
<g clip-path="url(#clip0_411_8756)">
<path d="M0.65332 39.5255L10.5666 39.5274L16.5945 39.5285V33.5566L0.65332 39.5255Z" fill="#FF9D28"/>
<path d="M16.5938 33.5562V54.6398L24.1225 30.7363L16.5938 33.5562Z" fill="#68C5ED"/>
<path d="M16.5943 39.5284L10.5664 39.5273L16.5943 54.6401V39.5284Z" fill="#044D80"/>
<path d="M0.65332 39.5254L12.1124 43.4051L10.5666 39.5274L0.65332 39.5254Z" fill="#E54747"/>
<path d="M37.1716 49.0894C37.0842 49.1769 36.9386 49.2859 36.7349 49.4169C36.5309 49.548 36.2655 49.679 35.938 49.8101C35.6105 49.9409 35.2099 50.0536 34.7371 50.1485C34.2638 50.2429 33.7217 50.2904 33.1104 50.2904C31.9312 50.2904 30.9121 50.101 30.0534 49.7228C29.1943 49.3445 28.4847 48.8164 27.9245 48.1397C27.364 47.4628 26.9529 46.6623 26.6908 45.7378C26.4288 44.8135 26.2979 43.7982 26.2979 42.6918C26.2979 41.5858 26.4398 40.5629 26.7236 39.624C27.0074 38.6851 27.4332 37.8739 28.0009 37.1894C28.5686 36.5054 29.2783 35.9703 30.1299 35.5845C30.9814 35.199 31.9821 35.0059 33.1321 35.0059C33.6999 35.0059 34.213 35.057 34.6716 35.1587C35.1301 35.2606 35.5303 35.3808 35.8725 35.519C36.2144 35.6575 36.4983 35.8028 36.7241 35.9557C36.9496 36.1085 37.1206 36.2362 37.2373 36.3377C37.3682 36.4545 37.4809 36.5926 37.5757 36.7526C37.6702 36.913 37.7176 37.0876 37.7176 37.2767C37.7176 37.5681 37.6084 37.859 37.3901 38.1501C37.1718 38.4415 36.9316 38.7107 36.6695 38.958C36.4948 38.7833 36.2983 38.6053 36.08 38.4231C35.8616 38.2412 35.6177 38.0812 35.3485 37.9427C35.079 37.8046 34.7733 37.6882 34.4314 37.5934C34.0892 37.4988 33.7072 37.4514 33.2851 37.4514C32.5427 37.4514 31.9205 37.6008 31.4182 37.899C30.916 38.1975 30.512 38.5868 30.2064 39.0672C29.9007 39.5476 29.6823 40.0972 29.5513 40.7157C29.4203 41.3346 29.3548 41.9641 29.3548 42.6045C29.3548 43.2889 29.4203 43.9439 29.5513 44.5696C29.6823 45.1955 29.9078 45.7488 30.2282 46.229C30.5482 46.7093 30.9668 47.0952 31.4837 47.3862C32.0002 47.6776 32.6443 47.823 33.4161 47.823C33.8234 47.823 34.1984 47.7722 34.5406 47.6702C34.8824 47.5684 35.1847 47.4446 35.4467 47.2988C35.7087 47.1536 35.938 47.0008 36.1345 46.8405C36.331 46.6804 36.4948 46.5423 36.6258 46.4255C36.7132 46.5276 36.8148 46.6515 36.9315 46.7968C37.0488 46.9437 37.1581 47.0968 37.259 47.2554C37.3607 47.4157 37.448 47.5757 37.521 47.7356C37.5937 47.896 37.6301 48.0414 37.6301 48.1722C37.6301 48.3617 37.5937 48.5217 37.521 48.6527C37.448 48.7837 37.3316 48.9294 37.1716 49.0894ZM48.4241 47.4148C48.4241 48.5718 48.5923 49.4139 48.9293 49.9411C48.6658 50.0434 48.4204 50.1167 48.1934 50.1606C47.9662 50.2046 47.7284 50.2265 47.4795 50.2265C46.9524 50.2265 46.5532 50.124 46.2824 49.919C46.0113 49.7142 45.8393 49.4213 45.7662 49.0403C45.4439 49.3775 45.0193 49.6629 44.4921 49.8973C43.9649 50.1311 43.3204 50.2486 42.5591 50.2486C42.1637 50.2486 41.7683 50.1938 41.3729 50.0847C40.9774 49.9747 40.6185 49.7962 40.2964 49.5483C39.9741 49.2999 39.7107 48.9678 39.5057 48.5517C39.3004 48.1356 39.1981 47.6284 39.1981 47.03C39.1981 46.2856 39.3774 45.6795 39.7363 45.2126C40.0951 44.7453 40.5453 44.3768 41.0874 44.1066C41.629 43.8367 42.2149 43.651 42.8447 43.5485C43.4742 43.4462 44.0529 43.3807 44.58 43.3512C44.7558 43.3367 44.9277 43.3292 45.0963 43.3292H45.5685V42.9294C45.5685 42.3665 45.4182 41.9666 45.1182 41.7298C44.8178 41.4929 44.3308 41.3742 43.6574 41.3742C43.0276 41.3742 42.4674 41.4768 41.977 41.6817C41.4861 41.8869 41.0066 42.121 40.5382 42.3847C40.3329 42.1358 40.168 41.8613 40.0439 41.5609C39.9194 41.261 39.8572 41.0375 39.8572 40.8909C39.8572 40.686 39.9704 40.4883 40.1977 40.2978C40.4246 40.1077 40.7359 39.9354 41.1313 39.7816C41.5268 39.6278 41.9805 39.5036 42.4933 39.4082C43.0057 39.3131 43.5476 39.2654 44.1188 39.2654C44.9096 39.2654 45.5795 39.3461 46.1287 39.5071C46.6778 39.6684 47.1244 39.9172 47.4687 40.2539C47.8126 40.591 48.058 41.0118 48.2045 41.517C48.3507 42.0222 48.4242 42.6119 48.4242 43.2853L48.4241 47.4148ZM45.6123 44.8668H45.3049C45.2022 44.8668 45.0996 44.8744 44.9973 44.8888C44.631 44.9183 44.2685 44.9622 43.91 45.0205C43.551 45.0792 43.2324 45.1817 42.9545 45.3281C42.6761 45.4746 42.4492 45.6651 42.2735 45.8992C42.0977 46.1336 42.0099 46.434 42.0099 46.7999C42.0099 47.21 42.1269 47.5576 42.3613 47.8432C42.5954 48.1289 42.9908 48.2716 43.5475 48.2716C43.8255 48.2716 44.0893 48.2353 44.3384 48.1616C44.5872 48.0887 44.8068 47.9935 44.9973 47.8763C45.1875 47.7591 45.3378 47.6311 45.4477 47.4917C45.5575 47.3528 45.6124 47.2247 45.6124 47.1075L45.6123 44.8668ZM53.8935 40.5394C54.1269 40.2614 54.4921 39.9793 54.9883 39.6936C55.4847 39.4081 56.1124 39.2653 56.8716 39.2653C57.4119 39.2653 57.9264 39.3569 58.4156 39.5398C58.9043 39.7231 59.3388 40.0197 59.7184 40.4295C60.0981 40.8397 60.4009 41.3816 60.6274 42.055C60.8536 42.7288 60.9668 43.5564 60.9668 44.5372C60.9668 45.6794 60.8353 46.6206 60.5726 47.36C60.3096 48.0997 59.9705 48.6855 59.5546 49.1174C59.1385 49.5494 58.6747 49.8533 58.164 50.0289C57.653 50.2046 57.1419 50.2926 56.6312 50.2926C56.2077 50.2926 55.8389 50.245 55.5254 50.1498C55.2113 50.0544 54.9449 49.9486 54.726 49.8313C54.507 49.7142 54.3392 49.5973 54.2225 49.4798C54.1058 49.3628 54.0327 49.282 54.0035 49.238V54.6379H51.016V39.5728C51.0895 39.5584 51.1781 39.5437 51.2816 39.5289C51.3703 39.5145 51.4736 39.5035 51.5916 39.4959C51.7096 39.4887 51.8498 39.485 52.012 39.485C52.4987 39.485 52.912 39.5657 53.2514 39.7266C53.5907 39.888 53.805 40.1587 53.8935 40.5394ZM57.8475 44.6031C57.8475 44.1638 57.8111 43.754 57.7383 43.373C57.6656 42.9924 57.5455 42.6629 57.378 42.3846C57.2105 42.1065 56.9846 41.8903 56.7008 41.7365C56.4165 41.5828 56.071 41.506 55.6634 41.506C55.0519 41.506 54.626 41.6233 54.3856 41.8573C54.1454 42.0918 54.0253 42.3482 54.0253 42.6262V47.2832C54.1416 47.4005 54.3489 47.5394 54.6475 47.7005C54.9462 47.8618 55.2917 47.942 55.6851 47.942C56.4278 47.942 56.9738 47.6494 57.3233 47.0635C57.6729 46.4778 57.8475 45.6575 57.8475 44.6031ZM63.2726 48.3815C63.1699 48.0887 63.1041 47.781 63.0749 47.4588C63.0454 47.1368 63.031 46.8147 63.031 46.4921V36.2998C63.1333 36.2854 63.2431 36.2706 63.3604 36.2558C63.4626 36.2415 63.5725 36.2305 63.6899 36.2229C63.807 36.2157 63.924 36.212 64.0413 36.212C64.2754 36.212 64.5099 36.234 64.7443 36.2778C64.9783 36.3218 65.1908 36.4097 65.3814 36.5414C65.5716 36.6732 65.7253 36.8528 65.8426 37.0796C65.9597 37.3068 66.0183 37.6034 66.0183 37.9692V39.5288H69.0938V41.7475H66.0183V46.4318C66.0183 47.4534 66.4357 47.964 67.2705 47.964C67.4755 47.964 67.6693 47.9312 67.8526 47.8651C68.0356 47.7993 68.2003 47.7262 68.3469 47.6456C68.4932 47.5651 68.6214 47.4809 68.7313 47.393C68.8412 47.305 68.918 47.2393 68.9619 47.1953C69.1816 47.5177 69.3497 47.7967 69.4671 48.0322C69.5842 48.268 69.6428 48.4892 69.6428 48.6959C69.6428 48.8883 69.5661 49.0769 69.4122 49.2616C69.2583 49.4462 69.0422 49.6165 68.7641 49.7716C68.4859 49.9267 68.1492 50.0523 67.7537 50.1485C67.3584 50.2446 66.9261 50.2927 66.4577 50.2927C65.5494 50.2927 64.843 50.1168 64.3378 49.7655C63.8326 49.4139 63.4773 48.9525 63.2726 48.3815ZM76.66 48.0959C77.0273 48.0959 77.3506 48.0557 77.6301 47.975C77.9091 47.8948 78.1589 47.7958 78.3794 47.6787C78.5997 47.5616 78.791 47.4334 78.9527 47.2942C79.1142 47.1552 79.2611 47.0271 79.3937 46.9097C79.5698 47.1293 79.7534 47.4114 79.9446 47.7553C80.1355 48.0997 80.2311 48.3815 80.2311 48.6011C80.2311 48.9234 80.0479 49.2162 79.6821 49.4798C79.3745 49.7142 78.9385 49.9156 78.3751 50.0838C77.8111 50.2521 77.1483 50.3364 76.3871 50.3364C75.6984 50.3364 75.0213 50.2486 74.3552 50.0728C73.6887 49.8972 73.0954 49.5896 72.5759 49.1502C72.0558 48.711 71.6347 48.1217 71.3126 47.382C70.9905 46.6425 70.8294 45.7092 70.8294 44.5812C70.8294 43.6585 70.9723 42.8644 71.2576 42.1979C71.5433 41.5316 71.9239 40.9788 72.4002 40.5394C72.8758 40.1001 73.414 39.7782 74.0146 39.5728C74.6149 39.368 75.2301 39.2654 75.8599 39.2654C76.6799 39.2654 77.3755 39.3938 77.9466 39.6498C78.5179 39.9061 78.9825 40.2504 79.3415 40.6822C79.7001 41.1142 79.96 41.6085 80.1213 42.165C80.2822 42.7216 80.3629 43.3072 80.3629 43.9222V44.2297C80.3629 44.3472 80.3592 44.4714 80.3519 44.6031C80.3444 44.7351 80.3373 44.8634 80.3301 44.9875C80.3224 45.1123 80.3114 45.211 80.2972 45.2842H73.8169C73.8756 46.0897 74.1254 46.7596 74.5662 47.2942C75.0067 47.8289 75.7048 48.0959 76.66 48.0959ZM77.661 43.6366C77.661 42.9337 77.5246 42.3626 77.2522 41.9232C76.9797 41.484 76.4898 41.2642 75.7832 41.2642C75.179 41.2642 74.6968 41.473 74.336 41.8903C73.9749 42.3077 73.7949 42.8898 73.7949 43.6365L77.661 43.6366ZM85.5618 40.5949C85.6495 40.4642 85.7666 40.319 85.9132 40.159C86.0595 39.9991 86.239 39.8539 86.4514 39.7232C86.6636 39.5924 86.898 39.4832 87.1544 39.3961C87.4103 39.3089 87.685 39.2654 87.9782 39.2654C88.1539 39.2654 88.3406 39.2801 88.5383 39.3089C88.736 39.3381 88.9189 39.3927 89.0873 39.4723C89.2556 39.5523 89.3913 39.6611 89.4938 39.7991C89.5961 39.9371 89.6476 40.1077 89.6476 40.3109C89.6476 40.6304 89.5668 40.9973 89.406 41.4116C89.2446 41.8262 89.0838 42.1798 88.9228 42.4725C88.6735 42.2675 88.4246 42.1101 88.1758 42.0002C87.9267 41.8905 87.6338 41.8355 87.2971 41.8355C86.8431 41.8355 86.4624 41.9677 86.155 42.2319C85.8472 42.4962 85.6935 42.812 85.6935 43.1792V50.2902H82.7062V39.5728C82.7793 39.5584 82.8671 39.5437 82.9697 39.5289C83.0576 39.5145 83.16 39.5035 83.2773 39.4959C83.3944 39.4887 83.5333 39.485 83.6946 39.485C84.1631 39.485 84.5695 39.5758 84.9138 39.7572C85.2576 39.9383 85.474 40.2177 85.5618 40.5949ZM94.0555 40.5949C94.1434 40.4642 94.2604 40.319 94.407 40.159C94.5532 39.9991 94.7327 39.8539 94.9452 39.7232C95.1573 39.5924 95.3916 39.4832 95.6481 39.3961C95.9042 39.3089 96.1787 39.2654 96.4718 39.2654C96.6475 39.2654 96.8342 39.2801 97.0319 39.3089C97.2295 39.3381 97.4126 39.3927 97.5811 39.4723C97.7494 39.5523 97.8848 39.6611 97.9876 39.7991C98.0899 39.9371 98.1413 40.1077 98.1413 40.3109C98.1413 40.6304 98.0605 40.9973 97.8997 41.4116C97.7382 41.8262 97.5773 42.1798 97.4164 42.4725C97.1673 42.2675 96.9182 42.1101 96.6695 42.0002C96.4204 41.8905 96.1275 41.8355 95.7909 41.8355C95.3369 41.8355 94.9561 41.9677 94.6486 42.2319C94.3411 42.4962 94.1874 42.812 94.1874 43.1792V50.2902H91.1999V39.5728C91.273 39.5584 91.3609 39.5437 91.4635 39.5289C91.5514 39.5145 91.6538 39.5035 91.771 39.4959C91.8881 39.4887 92.027 39.485 92.1883 39.485C92.657 39.485 93.0633 39.5758 93.4074 39.7572C93.7513 39.9383 93.9675 40.2177 94.0555 40.5949ZM108.312 47.4148C108.312 48.5718 108.48 49.4139 108.817 49.9411C108.554 50.0434 108.308 50.1167 108.081 50.1606C107.854 50.2046 107.616 50.2265 107.367 50.2265C106.84 50.2265 106.441 50.124 106.17 49.919C105.899 49.7142 105.727 49.4213 105.654 49.0403C105.332 49.3775 104.907 49.6629 104.38 49.8973C103.853 50.1311 103.208 50.2486 102.447 50.2486C102.051 50.2486 101.656 50.1938 101.261 50.0847C100.865 49.9747 100.506 49.7962 100.184 49.5483C99.862 49.2999 99.5985 48.9678 99.3935 48.5517C99.1883 48.1356 99.0861 47.6284 99.0861 47.03C99.0861 46.2856 99.2651 45.6795 99.6243 45.2126C99.9829 44.7453 100.433 44.3768 100.975 44.1066C101.517 43.8367 102.103 43.651 102.733 43.5485C103.362 43.4462 103.941 43.3807 104.468 43.3512C104.644 43.3367 104.816 43.3292 104.984 43.3292H105.456V42.9294C105.456 42.3665 105.306 41.9666 105.006 41.7298C104.706 41.4929 104.219 41.3742 103.545 41.3742C102.915 41.3742 102.355 41.4768 101.865 41.6817C101.374 41.8869 100.895 42.121 100.426 42.3847C100.221 42.1358 100.056 41.8613 99.9317 41.5609C99.8073 41.261 99.7451 41.0375 99.7451 40.8909C99.7451 40.686 99.8583 40.4883 100.086 40.2978C100.312 40.1077 100.624 39.9354 101.019 39.7816C101.415 39.6278 101.868 39.5036 102.381 39.4082C102.893 39.3131 103.435 39.2654 104.007 39.2654C104.797 39.2654 105.467 39.3461 106.017 39.5071C106.566 39.6684 107.012 39.9172 107.356 40.2539C107.7 40.591 107.946 41.0118 108.092 41.517C108.238 42.0222 108.312 42.6119 108.312 43.2853V47.4148ZM105.5 44.8668H105.193C105.09 44.8668 104.987 44.8744 104.885 44.8888C104.519 44.9183 104.156 44.9622 103.798 45.0205C103.439 45.0792 103.12 45.1817 102.842 45.3281C102.564 45.4746 102.337 45.6651 102.161 45.8992C101.986 46.1336 101.898 46.434 101.898 46.7999C101.898 47.21 102.015 47.5576 102.249 47.8432C102.483 48.1289 102.879 48.2716 103.435 48.2716C103.714 48.2716 103.977 48.2353 104.226 48.1616C104.475 48.0887 104.695 47.9935 104.885 47.8763C105.075 47.7591 105.226 47.6311 105.335 47.4917C105.445 47.3528 105.5 47.2247 105.5 47.1075L105.5 44.8668Z" fill="#044D80"/>
</g>
<defs>
<clipPath id="clip0_411_8756">
<rect width="110" height="25.2987" fill="white" transform="translate(0 30.1836)"/>
</clipPath>
</defs>
</svg>
