<svg width="156" height="391" viewBox="0 0 156 391" fill="none" xmlns="http://www.w3.org/2000/svg">
<circle opacity="0.0416667" cx="431.088" cy="185.272" r="233.5" transform="rotate(-118.597 431.088 185.272)" stroke="url(#paint0_linear_451_19718)"/>
<circle opacity="0.0833333" cx="425.791" cy="180.594" r="233.5" transform="rotate(-113.597 425.791 180.594)" stroke="url(#paint1_linear_451_19718)"/>
<circle opacity="0.125" cx="420.481" cy="175.915" r="233.5" transform="rotate(-108.597 420.481 175.915)" stroke="url(#paint2_linear_451_19718)"/>
<circle opacity="0.166667" cx="415.184" cy="171.236" r="233.5" transform="rotate(-103.597 415.184 171.236)" stroke="url(#paint3_linear_451_19718)"/>
<circle opacity="0.208333" cx="409.872" cy="166.567" r="233.5" transform="rotate(-98.5966 409.872 166.567)" stroke="url(#paint4_linear_451_19718)"/>
<circle opacity="0.333333" cx="393.962" cy="152.536" r="233.5" transform="rotate(-83.5966 393.962 152.536)" stroke="url(#paint5_linear_451_19718)"/>
<circle opacity="0.375" cx="388.662" cy="147.867" r="233.5" transform="rotate(-78.5966 388.662 147.867)" stroke="url(#paint6_linear_451_19718)"/>
<circle opacity="0.416667" cx="383.359" cy="143.186" r="233.5" transform="rotate(-73.5966 383.359 143.186)" stroke="url(#paint7_linear_451_19718)"/>
<circle opacity="0.458333" cx="378.049" cy="138.507" r="233.5" transform="rotate(-68.5966 378.049 138.507)" stroke="url(#paint8_linear_451_19718)"/>
<circle opacity="0.5" cx="372.747" cy="133.824" r="233.5" transform="rotate(-63.5966 372.747 133.824)" stroke="url(#paint9_linear_451_19718)"/>
<circle opacity="0.541667" cx="367.447" cy="129.148" r="233.5" transform="rotate(-58.5966 367.447 129.148)" stroke="url(#paint10_linear_451_19718)"/>
<circle opacity="0.583333" cx="362.138" cy="124.476" r="233.5" transform="rotate(-53.5966 362.138 124.476)" stroke="url(#paint11_linear_451_19718)"/>
<circle opacity="0.625" cx="356.841" cy="119.795" r="233.5" transform="rotate(-48.5966 356.841 119.795)" stroke="url(#paint12_linear_451_19718)"/>
<circle opacity="0.666667" cx="351.532" cy="115.13" r="233.5" transform="rotate(-43.5966 351.532 115.13)" stroke="url(#paint13_linear_451_19718)"/>
<circle opacity="0.708333" cx="346.233" cy="110.447" r="233.5" transform="rotate(-38.5966 346.233 110.447)" stroke="url(#paint14_linear_451_19718)"/>
<circle opacity="0.75" cx="340.928" cy="105.773" r="233.5" transform="rotate(-33.5966 340.928 105.773)" stroke="url(#paint15_linear_451_19718)"/>
<circle opacity="0.791667" cx="335.626" cy="101.092" r="233.5" transform="rotate(-28.5966 335.626 101.092)" stroke="url(#paint16_linear_451_19718)"/>
<circle opacity="0.833333" cx="330.314" cy="96.41" r="233.5" transform="rotate(-23.5966 330.314 96.41)" stroke="url(#paint17_linear_451_19718)"/>
<circle opacity="0.875" cx="325.013" cy="91.739" r="233.5" transform="rotate(-18.5966 325.013 91.739)" stroke="url(#paint18_linear_451_19718)"/>
<circle opacity="0.916667" cx="319.716" cy="87.0613" r="233.5" transform="rotate(-13.5966 319.716 87.0613)" stroke="url(#paint19_linear_451_19718)"/>
<circle opacity="0.958333" cx="314.411" cy="82.3896" r="233.5" transform="rotate(-8.59661 314.411 82.3896)" stroke="url(#paint20_linear_451_19718)"/>
<circle cx="309.097" cy="77.7076" r="233.5" transform="rotate(-3.5966 309.097 77.7076)" stroke="url(#paint21_linear_451_19718)"/>
<defs>
<linearGradient id="paint0_linear_451_19718" x1="431.088" y1="-48.7278" x2="431.088" y2="419.272" gradientUnits="userSpaceOnUse">
<stop stop-color="#9AD3BC"/>
<stop offset="1" stop-color="#F98A26"/>
</linearGradient>
<linearGradient id="paint1_linear_451_19718" x1="425.791" y1="-53.4061" x2="425.791" y2="414.594" gradientUnits="userSpaceOnUse">
<stop stop-color="#9AD3BC"/>
<stop offset="1" stop-color="#F98A26"/>
</linearGradient>
<linearGradient id="paint2_linear_451_19718" x1="420.481" y1="-58.0853" x2="420.481" y2="409.915" gradientUnits="userSpaceOnUse">
<stop stop-color="#9AD3BC"/>
<stop offset="1" stop-color="#F98A26"/>
</linearGradient>
<linearGradient id="paint3_linear_451_19718" x1="415.184" y1="-62.7644" x2="415.184" y2="405.236" gradientUnits="userSpaceOnUse">
<stop stop-color="#9AD3BC"/>
<stop offset="1" stop-color="#F98A26"/>
</linearGradient>
<linearGradient id="paint4_linear_451_19718" x1="409.872" y1="-67.4326" x2="409.872" y2="400.567" gradientUnits="userSpaceOnUse">
<stop stop-color="#9AD3BC"/>
<stop offset="1" stop-color="#F98A26"/>
</linearGradient>
<linearGradient id="paint5_linear_451_19718" x1="393.962" y1="-81.4641" x2="393.962" y2="386.536" gradientUnits="userSpaceOnUse">
<stop stop-color="#9AD3BC"/>
<stop offset="1" stop-color="#F98A26"/>
</linearGradient>
<linearGradient id="paint6_linear_451_19718" x1="388.662" y1="-86.1329" x2="388.662" y2="381.867" gradientUnits="userSpaceOnUse">
<stop stop-color="#9AD3BC"/>
<stop offset="1" stop-color="#F98A26"/>
</linearGradient>
<linearGradient id="paint7_linear_451_19718" x1="383.359" y1="-90.8142" x2="383.359" y2="377.186" gradientUnits="userSpaceOnUse">
<stop stop-color="#9AD3BC"/>
<stop offset="1" stop-color="#F98A26"/>
</linearGradient>
<linearGradient id="paint8_linear_451_19718" x1="378.049" y1="-95.4933" x2="378.049" y2="372.507" gradientUnits="userSpaceOnUse">
<stop stop-color="#9AD3BC"/>
<stop offset="1" stop-color="#F98A26"/>
</linearGradient>
<linearGradient id="paint9_linear_451_19718" x1="372.747" y1="-100.176" x2="372.747" y2="367.824" gradientUnits="userSpaceOnUse">
<stop stop-color="#9AD3BC"/>
<stop offset="1" stop-color="#F98A26"/>
</linearGradient>
<linearGradient id="paint10_linear_451_19718" x1="367.447" y1="-104.852" x2="367.447" y2="363.148" gradientUnits="userSpaceOnUse">
<stop stop-color="#9AD3BC"/>
<stop offset="1" stop-color="#F98A26"/>
</linearGradient>
<linearGradient id="paint11_linear_451_19718" x1="362.138" y1="-109.524" x2="362.138" y2="358.476" gradientUnits="userSpaceOnUse">
<stop stop-color="#9AD3BC"/>
<stop offset="1" stop-color="#F98A26"/>
</linearGradient>
<linearGradient id="paint12_linear_451_19718" x1="356.841" y1="-114.205" x2="356.841" y2="353.795" gradientUnits="userSpaceOnUse">
<stop stop-color="#9AD3BC"/>
<stop offset="1" stop-color="#F98A26"/>
</linearGradient>
<linearGradient id="paint13_linear_451_19718" x1="351.532" y1="-118.87" x2="351.532" y2="349.13" gradientUnits="userSpaceOnUse">
<stop stop-color="#9AD3BC"/>
<stop offset="1" stop-color="#F98A26"/>
</linearGradient>
<linearGradient id="paint14_linear_451_19718" x1="346.233" y1="-123.553" x2="346.233" y2="344.447" gradientUnits="userSpaceOnUse">
<stop stop-color="#9AD3BC"/>
<stop offset="1" stop-color="#F98A26"/>
</linearGradient>
<linearGradient id="paint15_linear_451_19718" x1="340.928" y1="-128.227" x2="340.928" y2="339.773" gradientUnits="userSpaceOnUse">
<stop stop-color="#9AD3BC"/>
<stop offset="1" stop-color="#F98A26"/>
</linearGradient>
<linearGradient id="paint16_linear_451_19718" x1="335.626" y1="-132.908" x2="335.626" y2="335.092" gradientUnits="userSpaceOnUse">
<stop stop-color="#9AD3BC"/>
<stop offset="1" stop-color="#F98A26"/>
</linearGradient>
<linearGradient id="paint17_linear_451_19718" x1="330.314" y1="-137.59" x2="330.314" y2="330.41" gradientUnits="userSpaceOnUse">
<stop stop-color="#9AD3BC"/>
<stop offset="1" stop-color="#F98A26"/>
</linearGradient>
<linearGradient id="paint18_linear_451_19718" x1="325.013" y1="-142.261" x2="325.013" y2="325.739" gradientUnits="userSpaceOnUse">
<stop stop-color="#9AD3BC"/>
<stop offset="1" stop-color="#F98A26"/>
</linearGradient>
<linearGradient id="paint19_linear_451_19718" x1="319.716" y1="-146.939" x2="319.716" y2="321.061" gradientUnits="userSpaceOnUse">
<stop stop-color="#9AD3BC"/>
<stop offset="1" stop-color="#F98A26"/>
</linearGradient>
<linearGradient id="paint20_linear_451_19718" x1="314.411" y1="-151.61" x2="314.411" y2="316.39" gradientUnits="userSpaceOnUse">
<stop stop-color="#9AD3BC"/>
<stop offset="1" stop-color="#F98A26"/>
</linearGradient>
<linearGradient id="paint21_linear_451_19718" x1="309.097" y1="-156.292" x2="309.097" y2="311.708" gradientUnits="userSpaceOnUse">
<stop stop-color="#9AD3BC"/>
<stop offset="1" stop-color="#F98A26"/>
</linearGradient>
</defs>
</svg>
