<svg width="16" height="16" viewBox="0 0 16 16" fill="none" xmlns="http://www.w3.org/2000/svg">
<g clip-path="url(#clip0_6133_64563)">
<mask id="mask0_6133_64563" style="mask-type:luminance" maskUnits="userSpaceOnUse" x="0" y="0" width="16" height="16">
<path d="M0 1.90735e-06H16V16H0V1.90735e-06Z" fill="white"/>
</mask>
<g mask="url(#mask0_6133_64563)">
<path d="M9.77042 8.36776C9.85224 8.37957 9.92986 8.32241 9.94161 8.23888C10.1837 6.52026 10.9965 4.90166 12.2306 3.6811C12.29 3.62229 12.2906 3.52632 12.2318 3.46685C12.173 3.40738 12.077 3.40679 12.0175 3.46566C10.7366 4.73254 9.8928 6.41269 9.64155 8.19657C9.62986 8.27941 9.68758 8.35607 9.77042 8.36776Z" fill="#495057"/>
<path d="M3.96174 3.50619C3.91217 3.57366 3.92667 3.66844 3.99408 3.718C5.40545 4.75516 6.25152 6.4871 6.20217 8.23785C6.1998 8.32154 6.26574 8.39122 6.34933 8.39357C6.3508 8.39363 6.3523 8.39363 6.3537 8.39363C6.43539 8.39363 6.50277 8.3286 6.50508 8.24641C6.55724 6.39772 5.66383 4.56903 4.17358 3.47385C4.10592 3.42416 4.01124 3.43872 3.96174 3.50619Z" fill="#495057"/>
<path d="M6.8072 15.203C6.88052 15.1628 6.90745 15.0707 6.8672 14.9973L3.75245 9.31601C3.71205 9.2426 3.62017 9.21576 3.5467 9.25601C3.47339 9.29626 3.44645 9.38835 3.4867 9.46176L6.60145 15.143C6.64177 15.2164 6.7338 15.2431 6.8072 15.203Z" fill="#495057"/>
<path d="M8.08043 6.71888C8.09174 6.636 8.03374 6.5596 7.9508 6.54829C7.86862 6.53697 7.79152 6.59491 7.78021 6.67791L7.5024 8.71051C7.36983 9.68019 7.43277 10.6508 7.68965 11.5953C7.94518 12.5351 8.00058 13.4997 7.85427 14.4623L7.69337 15.5214C7.6808 15.6042 7.73768 15.6814 7.8204 15.694C7.90246 15.7065 7.98033 15.6503 7.99299 15.5669L8.1539 14.5079C8.30652 13.5032 8.24874 12.4965 7.98202 11.5158C7.73596 10.6108 7.67558 9.68072 7.80262 8.7515L8.08043 6.71888Z" fill="#495057"/>
<path d="M9.20089 15.2019C9.2733 15.2433 9.36602 15.2181 9.40752 15.1453L12.6468 9.46398C12.6882 9.39133 12.6629 9.29876 12.5902 9.25736C12.5174 9.21564 12.425 9.24117 12.3835 9.31395L9.1443 14.9952C9.10289 15.0679 9.12817 15.1604 9.20089 15.2019Z" fill="#495057"/>
<path d="M10.6315 14.9757L13.6216 11.8361C13.6793 11.7755 13.677 11.6796 13.6164 11.6219C13.5559 11.5641 13.4598 11.5665 13.4022 11.6272L10.4121 14.7668C10.3544 14.8274 10.3567 14.9232 10.4173 14.9809C10.4778 15.0387 10.5739 15.0363 10.6315 14.9757Z" fill="#495057"/>
<path d="M12.6133 14.987L14.1083 13.7161C14.1721 13.662 14.1799 13.5663 14.1256 13.5026C14.0715 13.4388 13.9758 13.4311 13.9121 13.4853L12.4171 14.7561C12.3533 14.8103 12.3456 14.906 12.3998 14.9696C12.454 15.0335 12.5497 15.0411 12.6133 14.987Z" fill="#495057"/>
<path d="M9.08852 13.2027C9.16746 13.2107 9.24502 13.1511 9.25239 13.0647C9.36543 11.7489 9.87349 10.5449 10.7624 9.48629C10.8163 9.42223 10.8079 9.32663 10.7438 9.27285C10.6797 9.21891 10.5842 9.22735 10.5304 9.29141C9.60058 10.3987 9.06902 11.6594 8.95055 13.0388C8.94336 13.1222 9.00514 13.1955 9.08852 13.2027Z" fill="#495057"/>
<path d="M6.97867 13.103C7.06205 13.0959 7.12383 13.0225 7.11664 12.9391C6.99827 11.5599 6.46677 10.2991 5.53689 9.19176C5.48311 9.12776 5.38767 9.11932 5.32345 9.1732C5.25939 9.22698 5.25102 9.32257 5.30489 9.38663C6.1938 10.4453 6.70183 11.6493 6.8148 12.965C6.82217 13.0513 6.89967 13.111 6.97867 13.103Z" fill="#495057"/>
<path d="M5.5273 14.7798C5.58686 14.7211 5.58758 14.6251 5.52886 14.5655L2.63117 11.6252C2.57236 11.5657 2.47639 11.5649 2.41683 11.6236C2.35727 11.6823 2.35655 11.7783 2.41527 11.838L5.31295 14.7783C5.37189 14.8379 5.4678 14.8384 5.5273 14.7798Z" fill="#495057"/>
<path d="M1.7583 13.5044C1.70518 13.569 1.71443 13.6645 1.77908 13.7177L3.32399 14.9885C3.38868 15.0417 3.48411 15.0323 3.53727 14.9677C3.5904 14.9031 3.58115 14.8076 3.51649 14.7545L1.97158 13.4836C1.90702 13.4306 1.81143 13.4398 1.7583 13.5044Z" fill="#495057"/>
<path d="M10.0662 3.65421L9.18593 4.5133L9.39349 5.72543C9.40258 5.78299 9.37987 5.83905 9.3329 5.87393C9.28593 5.90727 9.2253 5.9118 9.1738 5.88452L8.0844 5.3118L6.99499 5.88455C6.94499 5.91184 6.88287 5.90727 6.8359 5.87396C6.78893 5.83912 6.76621 5.78305 6.7753 5.72546L6.9844 4.51334L6.10255 3.65424C6.06165 3.61484 6.04649 3.55424 6.06468 3.49968C6.08287 3.44362 6.12983 3.40421 6.1874 3.39665L7.40408 3.21937L7.94802 2.11634C7.99955 2.0133 8.16924 2.0133 8.22074 2.11634L8.76468 3.21937L9.98286 3.39665C10.0389 3.40421 10.0874 3.44362 10.1056 3.49968C10.1223 3.55421 10.1071 3.6148 10.0662 3.65421Z" fill="#495057"/>
<path d="M14.4269 6.97949L13.7072 7.68102L13.8769 8.67193C13.886 8.72799 13.8632 8.78555 13.8162 8.8204C13.7693 8.85374 13.7087 8.85827 13.6571 8.83099L12.7677 8.36281L11.8768 8.83099C11.8268 8.85827 11.7647 8.85371 11.7177 8.8204C11.6708 8.78555 11.6481 8.72796 11.6571 8.67193L11.8283 7.68102L11.1071 6.97949C11.0662 6.93859 11.0511 6.87949 11.0692 6.82343C11.0874 6.7689 11.1344 6.72949 11.192 6.7204L12.1859 6.57646L12.6314 5.67493C12.6829 5.5719 12.8526 5.5719 12.9026 5.67493L13.3481 6.57646L14.3435 6.7204C14.3996 6.72949 14.4466 6.7689 14.4647 6.82343C14.483 6.87949 14.4678 6.93859 14.4269 6.97949Z" fill="#495057"/>
<path d="M5.0798 6.97949L4.36008 7.68102L4.52977 8.67193C4.54036 8.72799 4.51614 8.78555 4.46914 8.8204C4.4237 8.85374 4.36158 8.85827 4.31005 8.83099L3.42064 8.36281L2.52973 8.83099C2.47973 8.85827 2.41761 8.85371 2.37064 8.8204C2.32367 8.78555 2.30095 8.72796 2.31002 8.67193L2.48123 7.68102L1.76002 6.97949C1.71911 6.93859 1.70395 6.87949 1.72214 6.82343C1.74033 6.7689 1.7873 6.72949 1.84486 6.7204L2.84033 6.57646L3.28427 5.67493C3.3358 5.5719 3.50548 5.5719 3.55548 5.67493L4.00095 6.57646L4.99642 6.7204C5.05248 6.72949 5.10098 6.7689 5.11764 6.82343C5.13586 6.87949 5.12073 6.93859 5.0798 6.97949Z" fill="#495057"/>
<path d="M4.19799 1.45513L3.78586 1.85513L3.88283 2.42332C3.89193 2.47938 3.86921 2.53695 3.82224 2.57179C3.77527 2.60513 3.71464 2.60966 3.66314 2.58238L3.15405 2.3142L2.64496 2.58238C2.59343 2.60966 2.53133 2.6051 2.48436 2.57179C2.43889 2.53695 2.41468 2.47935 2.42527 2.42332L2.52224 1.85513L2.11011 1.45513C2.06921 1.41423 2.05405 1.35363 2.07224 1.29907C2.08893 1.24451 2.13739 1.2036 2.19346 1.19604L2.76314 1.1127L3.01771 0.597539C3.04346 0.546008 3.09649 0.512695 3.15408 0.512695C3.21168 0.512695 3.26471 0.546039 3.29046 0.597539L3.54349 1.1127L4.11321 1.19604C4.17077 1.2036 4.21777 1.24451 4.23593 1.29907C4.25405 1.3536 4.23889 1.41423 4.19799 1.45513Z" fill="#495057"/>
<path d="M14.286 1.45537L13.8739 1.85537L13.9708 2.42356C13.9814 2.47962 13.9572 2.53719 13.9117 2.57203C13.8648 2.60538 13.8026 2.60991 13.7511 2.58262L13.242 2.31444L12.733 2.58262C12.6814 2.60991 12.6208 2.60534 12.5739 2.57203C12.5269 2.53719 12.5042 2.47959 12.5133 2.42356L12.6102 1.85537L12.1981 1.45537C12.1572 1.41447 12.142 1.35387 12.1602 1.29931C12.1784 1.24475 12.2254 1.20384 12.283 1.19628L12.8527 1.11294L13.1072 0.597781C13.1572 0.49475 13.3269 0.49475 13.3785 0.597781L13.633 1.11294L14.2027 1.19628C14.2588 1.20384 14.3073 1.24475 14.3239 1.29931C14.342 1.35384 14.3269 1.41447 14.286 1.45537Z" fill="#495057"/>
<path d="M14.861 5.31348C15.2422 5.31348 15.5523 5.00335 15.5523 4.6221C15.5523 4.24088 15.2422 3.93066 14.861 3.93066C14.4797 3.93066 14.1695 4.24088 14.1695 4.6221C14.1695 5.00332 14.4797 5.31348 14.861 5.31348ZM14.861 4.2337C15.075 4.2337 15.2493 4.40791 15.2493 4.6221C15.2493 4.8362 15.0751 5.01045 14.861 5.01045C14.6468 5.01045 14.4725 4.83623 14.4725 4.6221C14.4725 4.40791 14.6468 4.2337 14.861 4.2337Z" fill="#495057"/>
<path d="M15.0359 10.1016C14.6547 10.1016 14.3446 10.4117 14.3446 10.7929C14.3446 11.1742 14.6547 11.4844 15.0359 11.4844C15.4171 11.4844 15.7274 11.1742 15.7274 10.7929C15.7274 10.4117 15.4172 10.1016 15.0359 10.1016ZM15.0359 11.1813C14.8218 11.1813 14.6476 11.0071 14.6476 10.7929C14.6476 10.5788 14.8218 10.4046 15.0359 10.4046C15.2501 10.4046 15.4243 10.5788 15.4243 10.7929C15.4243 11.0071 15.2501 11.1813 15.0359 11.1813Z" fill="#495057"/>
<path d="M0.964019 10.9443C1.34524 10.9443 1.65546 10.6342 1.65546 10.253C1.65546 9.87174 1.34524 9.56152 0.964019 9.56152C0.5828 9.56152 0.272644 9.87174 0.272644 10.253C0.272675 10.6342 0.5828 10.9443 0.964019 10.9443ZM0.964019 9.86455C1.17821 9.86455 1.35243 10.0388 1.35243 10.253C1.35243 10.4671 1.17821 10.6413 0.964019 10.6413C0.749925 10.6413 0.575675 10.4671 0.575675 10.253C0.575707 10.0388 0.749925 9.86455 0.964019 9.86455Z" fill="#495057"/>
<path d="M0.964163 5.31348C1.34538 5.31348 1.6556 5.00335 1.6556 4.6221C1.6556 4.24088 1.34538 3.93066 0.964163 3.93066C0.582944 3.93066 0.27282 4.24085 0.27282 4.6221C0.27282 5.00332 0.582944 5.31348 0.964163 5.31348ZM0.964163 4.2337C1.17835 4.2337 1.35257 4.40791 1.35257 4.6221C1.35257 4.8362 1.17835 5.01045 0.964163 5.01045C0.750069 5.01045 0.575819 4.83623 0.575819 4.6221C0.575851 4.40791 0.750069 4.2337 0.964163 4.2337Z" fill="#495057"/>
<path d="M5.96077 2.33391C6.27358 2.33391 6.52808 2.07941 6.52808 1.76653C6.52808 1.45372 6.27358 1.19922 5.96077 1.19922C5.64796 1.19922 5.39346 1.45372 5.39346 1.76653C5.39346 2.07941 5.64796 2.33391 5.96077 2.33391ZM5.96077 1.50225C6.10652 1.50225 6.22505 1.62078 6.22505 1.76653C6.22505 1.91228 6.10652 2.03088 5.96077 2.03088C5.81502 2.03088 5.69649 1.91228 5.69649 1.76653C5.69649 1.62078 5.81502 1.50225 5.96077 1.50225Z" fill="#495057"/>
<path d="M10.2623 2.33391C10.5751 2.33391 10.8296 2.07941 10.8296 1.76653C10.8296 1.45372 10.5751 1.19922 10.2623 1.19922C9.94939 1.19922 9.69489 1.45372 9.69489 1.76653C9.69489 2.07941 9.94939 2.33391 10.2623 2.33391ZM10.2623 1.50225C10.408 1.50225 10.5265 1.62078 10.5265 1.76653C10.5265 1.91228 10.408 2.03088 10.2623 2.03088C10.1165 2.03088 9.99792 1.91228 9.99792 1.76653C9.99792 1.62078 10.1165 1.50225 10.2623 1.50225Z" fill="#495057"/>
<path d="M15.6153 12.9524C15.6153 12.6329 15.3554 12.373 15.036 12.373C14.7165 12.373 14.4566 12.633 14.4566 12.9524C14.4566 13.2718 14.7165 13.5317 15.036 13.5317C15.3554 13.5318 15.6153 13.2719 15.6153 12.9524ZM14.7596 12.9524C14.7596 12.8 14.8836 12.6761 15.0359 12.6761C15.1883 12.6761 15.3122 12.8001 15.3122 12.9524C15.3122 13.1047 15.1882 13.2287 15.0359 13.2287C14.8836 13.2287 14.7596 13.1047 14.7596 12.9524Z" fill="#495057"/>
<path d="M0.964019 12.373C0.64455 12.373 0.384644 12.633 0.384644 12.9524C0.384644 13.2718 0.64455 13.5317 0.964019 13.5317C1.28349 13.5317 1.54339 13.2718 1.54339 12.9524C1.54339 12.633 1.28349 12.373 0.964019 12.373ZM0.964019 13.2287C0.811675 13.2287 0.687706 13.1047 0.687706 12.9524C0.687706 12.8001 0.811706 12.6761 0.964019 12.6761C1.11633 12.6761 1.24033 12.8001 1.24033 12.9524C1.24033 13.1047 1.11636 13.2287 0.964019 13.2287Z" fill="#495057"/>
<path d="M3.42027 5.16227C3.50396 5.16227 3.5718 5.09442 3.5718 5.01073V4.77273H3.8098C3.89349 4.77273 3.96133 4.70489 3.96133 4.6212C3.96133 4.53752 3.89349 4.46967 3.8098 4.46967H3.5718V4.23161C3.5718 4.14792 3.50396 4.08008 3.42027 4.08008C3.33658 4.08008 3.26874 4.14792 3.26874 4.23161V4.46967H3.03067C2.94699 4.46967 2.87914 4.53752 2.87914 4.6212C2.87914 4.70489 2.94699 4.77273 3.03067 4.77273H3.26874V5.01073C3.26874 5.09442 3.33658 5.16227 3.42027 5.16227Z" fill="#495057"/>
<path d="M12.8528 3.93066C12.7691 3.93066 12.7013 3.99851 12.7013 4.0822V4.32026H12.4632C12.3796 4.32026 12.3117 4.3881 12.3117 4.47179C12.3117 4.55548 12.3796 4.62332 12.4632 4.62332H12.7013V4.86132C12.7013 4.94501 12.7691 5.01285 12.8528 5.01285C12.9365 5.01285 13.0044 4.94501 13.0044 4.86132V4.62332H13.2424C13.3261 4.62332 13.3939 4.55548 13.3939 4.47179C13.3939 4.3881 13.3261 4.32026 13.2424 4.32026H13.0044V4.0822C13.0044 3.99851 12.9365 3.93066 12.8528 3.93066Z" fill="#495057"/>
<path d="M14.861 8.8898C14.9446 8.8898 15.0125 8.82196 15.0125 8.73827V8.50027H15.2505C15.3342 8.50027 15.402 8.43243 15.402 8.34874C15.402 8.26505 15.3342 8.19721 15.2505 8.19721H15.0125V7.95915C15.0125 7.87546 14.9446 7.80762 14.861 7.80762C14.7773 7.80762 14.7094 7.87546 14.7094 7.95915V8.19721H14.4714C14.3877 8.19721 14.3198 8.26505 14.3198 8.34874C14.3198 8.43243 14.3877 8.50027 14.4714 8.50027H14.7094V8.73827C14.7095 8.82196 14.7773 8.8898 14.861 8.8898Z" fill="#495057"/>
<path d="M10.5218 11.6623C10.6055 11.6623 10.6733 11.5944 10.6733 11.5107V11.2727H10.9113C10.995 11.2727 11.0629 11.2048 11.0629 11.1211C11.0629 11.0375 10.995 10.9696 10.9113 10.9696H10.6733V10.7316C10.6733 10.6479 10.6055 10.5801 10.5218 10.5801C10.4381 10.5801 10.3703 10.6479 10.3703 10.7316V10.9696H10.1323C10.0486 10.9696 9.98074 11.0375 9.98074 11.1211C9.98074 11.2048 10.0486 11.2727 10.1323 11.2727H10.3703V11.5107C10.3703 11.5944 10.4381 11.6623 10.5218 11.6623Z" fill="#495057"/>
<path d="M8.88633 9.40537C8.97002 9.40537 9.03786 9.33752 9.03786 9.25384V9.01584H9.27592C9.35961 9.01584 9.42746 8.94799 9.42746 8.8643C9.42746 8.78062 9.35961 8.71277 9.27592 8.71277H9.03786V8.47477C9.03786 8.39109 8.97002 8.32324 8.88633 8.32324C8.80264 8.32324 8.7348 8.39109 8.7348 8.47477V8.71277H8.4968C8.41311 8.71277 8.34527 8.78062 8.34527 8.8643C8.34527 8.94799 8.41311 9.01584 8.4968 9.01584H8.7348V9.25384C8.73483 9.33752 8.80264 9.40537 8.88633 9.40537Z" fill="#495057"/>
<path d="M8.1072 0.997344H8.34527V1.23534C8.34527 1.31903 8.41311 1.38687 8.4968 1.38687C8.58049 1.38687 8.64833 1.31903 8.64833 1.23534V0.997344H8.88633C8.97002 0.997344 9.03786 0.9295 9.03786 0.845812C9.03786 0.762125 8.97002 0.694281 8.88633 0.694281H8.64833V0.456219C8.64833 0.372531 8.58049 0.304688 8.4968 0.304688C8.41311 0.304688 8.34527 0.372531 8.34527 0.456219V0.694281H8.1072C8.02352 0.694281 7.95567 0.762125 7.95567 0.845812C7.95567 0.9295 8.02355 0.997344 8.1072 0.997344Z" fill="#495057"/>
<path d="M6.97239 8.93543H6.7344V8.69743C6.7344 8.61374 6.66655 8.5459 6.58286 8.5459C6.49918 8.5459 6.43133 8.61374 6.43133 8.69743V8.93543H6.19333C6.10965 8.93543 6.0418 9.00327 6.0418 9.08696C6.0418 9.17065 6.10965 9.23849 6.19333 9.23849H6.43133V9.47655C6.43133 9.56024 6.49918 9.62809 6.58286 9.62809C6.66655 9.62809 6.7344 9.56024 6.7344 9.47655V9.23849H6.97239C7.05608 9.23849 7.12393 9.17065 7.12393 9.08696C7.12393 9.00327 7.05608 8.93543 6.97239 8.93543Z" fill="#495057"/>
<path d="M2.74539 9.90234C2.66171 9.90234 2.59386 9.97019 2.59386 10.0539V10.2919H2.3558C2.27211 10.2919 2.20427 10.3597 2.20427 10.4434C2.20427 10.5271 2.27211 10.5949 2.3558 10.5949H2.59386V10.833C2.59386 10.9167 2.66171 10.9845 2.74539 10.9845C2.82908 10.9845 2.89693 10.9167 2.89693 10.833V10.5949H3.13493C3.21861 10.5949 3.28646 10.5271 3.28646 10.4434C3.28646 10.3597 3.21861 10.2919 3.13493 10.2919H2.89689V10.0539C2.89689 9.97019 2.82905 9.90234 2.74539 9.90234Z" fill="#495057"/>
</g>
</g>
<defs>
<clipPath id="clip0_6133_64563">
<rect width="16" height="16" fill="white"/>
</clipPath>
</defs>
</svg>
