<svg width="304" height="357" viewBox="0 0 304 357" fill="none" xmlns="http://www.w3.org/2000/svg">
<circle opacity="0.0416667" cx="406" cy="406" r="233.5" transform="rotate(-115 406 406)" stroke="#F1F3F5"/>
<circle opacity="0.0833333" cx="401" cy="400.997" r="233.5" transform="rotate(-110 401 400.997)" stroke="#F1F3F5"/>
<circle opacity="0.125" cx="395.998" cy="396" r="233.5" transform="rotate(-105 395.998 396)" stroke="#F1F3F5"/>
<circle opacity="0.166667" cx="391.003" cy="390.996" r="233.5" transform="rotate(-100 391.003 390.996)" stroke="#F1F3F5"/>
<circle opacity="0.208333" cx="386" cy="386" r="233.5" transform="rotate(-95 386 386)" stroke="#F1F3F5"/>
<circle opacity="0.25" cx="381" cy="381" r="233.5" transform="rotate(-90 381 381)" stroke="#F1F3F5"/>
<circle opacity="0.291667" cx="376" cy="376" r="233.5" transform="rotate(-85 376 376)" stroke="#F1F3F5"/>
<circle opacity="0.333333" cx="371.001" cy="370.997" r="233.5" transform="rotate(-80 371.001 370.997)" stroke="#F1F3F5"/>
<circle opacity="0.375" cx="366" cy="366.002" r="233.5" transform="rotate(-75 366 366.002)" stroke="#F1F3F5"/>
<circle opacity="0.416667" cx="361.003" cy="361" r="233.5" transform="rotate(-70 361.003 361)" stroke="#F1F3F5"/>
<circle opacity="0.458333" cx="356" cy="356" r="233.5" transform="rotate(-65 356 356)" stroke="#F1F3F5"/>
<circle opacity="0.5" cx="350.998" cy="350.999" r="233.5" transform="rotate(-60 350.998 350.999)" stroke="#F1F3F5"/>
<circle opacity="0.541667" cx="346" cy="346" r="233.5" transform="rotate(-55 346 346)" stroke="#F1F3F5"/>
<circle opacity="0.583333" cx="340.999" cy="340.998" r="233.5" transform="rotate(-50 340.999 340.998)" stroke="#F1F3F5"/>
<circle opacity="0.625" cx="336" cy="336" r="233.5" transform="rotate(-45 336 336)" stroke="#F1F3F5"/>
<circle opacity="0.666667" cx="330.999" cy="331.002" r="233.5" transform="rotate(-40 330.999 331.002)" stroke="#F1F3F5"/>
<circle opacity="0.708333" cx="326" cy="326" r="233.5" transform="rotate(-35 326 326)" stroke="#F1F3F5"/>
<circle opacity="0.75" cx="320.998" cy="320.998" r="233.5" transform="rotate(-30 320.998 320.998)" stroke="#F1F3F5"/>
<circle opacity="0.791667" cx="316" cy="316" r="233.5" transform="rotate(-25 316 316)" stroke="#F1F3F5"/>
<circle opacity="0.833333" cx="311.003" cy="311" r="233.5" transform="rotate(-20 311.003 311)" stroke="#F1F3F5"/>
<circle opacity="0.875" cx="306" cy="305.998" r="233.5" transform="rotate(-15 306 305.998)" stroke="#F1F3F5"/>
<circle opacity="0.916667" cx="301.001" cy="301.003" r="233.5" transform="rotate(-10 301.001 301.003)" stroke="#F1F3F5"/>
<circle opacity="0.958333" cx="296" cy="296" r="233.5" transform="rotate(-5 296 296)" stroke="#F1F3F5"/>
<circle cx="291" cy="291" r="233.5" stroke="#F1F3F5"/>
</svg>
