<svg width="16" height="16" viewBox="0 0 16 16" fill="none" xmlns="http://www.w3.org/2000/svg">
<path d="M14.3546 6.18169C13.7158 4.01781 11.9957 2.31391 9.82228 1.69781C9.75553 0.7505 8.96403 0 8 0C7.031 0 6.23609 0.75825 6.17656 1.71253C4.02866 2.34034 2.33125 4.03278 1.69662 6.17778C0.749844 6.24516 0 7.03638 0 8C0 8.95419 0.735281 9.73944 1.66897 9.82009C2.28163 12.0134 4.00122 13.7487 6.18519 14.3838C6.29028 15.2922 7.06384 16 8 16C8.93097 16 9.70103 15.3001 9.81291 14.3989C12.0233 13.7759 13.7664 12.0281 14.3827 9.81497C15.2917 9.71041 16 8.93656 16 8C16 7.05378 15.2771 6.27334 14.3546 6.18169ZM8 0.812187C8.55981 0.812187 9.01522 1.26763 9.01522 1.82741C9.01522 2.38719 8.55981 2.84262 8 2.84262C7.44019 2.84262 6.98478 2.38719 6.98478 1.82741C6.98478 1.26763 7.44019 0.812187 8 0.812187ZM0.812187 8C0.812187 7.44019 1.26763 6.98478 1.82741 6.98478C2.38719 6.98478 2.84262 7.44019 2.84262 8C2.84262 8.55981 2.38719 9.01522 1.82741 9.01522C1.26763 9.01522 0.812187 8.55981 0.812187 8ZM8 15.1878C7.44019 15.1878 6.98478 14.7324 6.98478 14.1726C6.98478 13.6128 7.44022 13.1574 8 13.1574C8.55978 13.1574 9.01522 13.6128 9.01522 14.1726C9.01522 14.7324 8.55981 15.1878 8 15.1878ZM9.72759 13.578C9.48028 12.8615 8.7995 12.3452 8 12.3452C7.20584 12.3452 6.52872 12.8546 6.27731 13.5636C4.46037 12.9867 3.02944 11.5354 2.48097 9.70613C3.16666 9.44253 3.65481 8.77741 3.65481 8C3.65481 7.23241 3.17887 6.57428 2.50678 6.30409C3.07672 4.50356 4.505 3.08125 6.30931 2.52C6.58278 3.18512 7.23741 3.65481 8 3.65481C8.76775 3.65481 9.426 3.17866 9.69609 2.50634C11.5155 3.05616 12.9593 4.4795 13.5376 6.2865C12.8421 6.54509 12.3452 7.21556 12.3452 8C12.3452 8.79434 12.8548 9.47159 13.5641 9.72284C13.0074 11.5594 11.5604 13.0127 9.72759 13.578ZM14.1726 9.01522C13.6128 9.01522 13.1574 8.55978 13.1574 8C13.1574 7.44022 13.6128 6.98478 14.1726 6.98478C14.7324 6.98478 15.1878 7.44019 15.1878 8C15.1878 8.55981 14.7324 9.01522 14.1726 9.01522Z" fill="#495057"/>
<path d="M8.02489 4.53418C6.08799 4.53418 4.51221 6.10996 4.51221 8.04687C4.51221 9.98377 6.08802 11.5596 8.02489 11.5596C9.96177 11.5596 11.5376 9.98374 11.5376 8.04687C11.5376 6.10999 9.9618 4.53418 8.02489 4.53418ZM8.02489 5.34637C8.24864 5.34637 8.74627 6.10987 8.83277 7.59384H7.21708C7.30358 6.10987 7.80114 5.34637 8.02489 5.34637ZM6.80549 5.63856C6.57933 6.1838 6.44439 6.87734 6.40439 7.59384H5.36314C5.50833 6.73852 6.05671 6.01921 6.80549 5.63856ZM5.34902 8.40602H6.39974C6.4328 9.15562 6.56949 9.88615 6.80552 10.4552C6.02946 10.0606 5.46874 9.3024 5.34902 8.40602ZM8.02489 10.7474C7.79646 10.7474 7.28271 9.95162 7.21224 8.40599H8.83758C8.76711 9.95165 8.25336 10.7474 8.02489 10.7474ZM9.24436 10.4552C9.48039 9.88615 9.61708 9.15565 9.65015 8.40602H10.7008C10.5811 9.3024 10.0204 10.0606 9.24436 10.4552ZM9.64533 7.59384C9.60536 6.87727 9.47052 6.18377 9.2443 5.63849C9.99308 6.01921 10.5415 6.73852 10.6866 7.59384H9.64533Z" fill="#495057"/>
</svg>
