<svg width="108" height="101" viewBox="0 0 108 101" fill="none" xmlns="http://www.w3.org/2000/svg">
<path d="M106.522 69.3337C103.673 67.0027 99.5787 65.5572 96.1668 64.1381C92.2167 62.4952 88.8739 61.0907 84.5177 61.92C81.1739 62.5566 78.8081 63.6621 76.6918 66.4537C74.1832 69.7627 73.7921 74.3205 71.4334 77.7178C69.1967 80.9395 67.0688 83.3735 62.9596 83.5196C56.573 83.7466 51.983 76.8374 48.4511 72.5085C41.9656 64.5593 35.6883 56.4409 29.2494 48.453C24.1151 42.0835 19.2583 35.7804 13.1383 30.3199" stroke="#003B4A" stroke-linecap="round" stroke-dasharray="4.91 4.91"/>
<path d="M16.1716 25.5421C17.884 25.1485 17.5582 25.5822 16.1607 25.5543C13.8099 25.5074 11.5876 24.3445 9.23754 24.2904C7.0214 24.2394 6.00379 24.8368 6.5479 27.1328C7.55145 31.3675 10.2584 34.7597 10.6909 39.208" stroke="#003B4A" stroke-linecap="round" stroke-dasharray="4.91 4.91"/>
</svg>
