<svg width="16" height="16" viewBox="0 0 16 16" fill="none" xmlns="http://www.w3.org/2000/svg">
<path d="M8 0.6875C6.55373 0.6875 5.13993 1.11637 3.9374 1.91988C2.73486 2.72339 1.7976 3.86544 1.24413 5.20163C0.690668 6.53781 0.545857 8.00811 0.828011 9.4266C1.11017 10.8451 1.80661 12.148 2.82928 13.1707C3.85196 14.1934 5.15492 14.8898 6.57341 15.172C7.99189 15.4541 9.46219 15.3093 10.7984 14.7559C12.1346 14.2024 13.2766 13.2651 14.0801 12.0626C14.8836 10.8601 15.3125 9.44628 15.3125 8C15.3105 6.06123 14.5394 4.20246 13.1685 2.83154C11.7975 1.46063 9.93877 0.689547 8 0.6875ZM14.1875 8C14.1889 9.4467 13.6809 10.8477 12.7524 11.9572L4.04282 3.24688C4.94633 2.49522 6.04524 2.01644 7.21094 1.86655C8.37664 1.71667 9.56092 1.90189 10.6252 2.40054C11.6895 2.89919 12.5897 3.69064 13.2206 4.68227C13.8514 5.6739 14.1868 6.8247 14.1875 8ZM1.8125 8C1.81106 6.5533 2.31914 5.15229 3.24758 4.04281L11.9572 12.7531C11.0537 13.5048 9.95477 13.9836 8.78907 14.1334C7.62337 14.2833 6.43909 14.0981 5.37481 13.5995C4.31054 13.1008 3.4103 12.3094 2.77943 11.3177C2.14857 10.3261 1.81317 9.1753 1.8125 8Z" fill="#003846"/>
</svg>
