<svg width="152" height="110" viewBox="0 0 152 110" fill="none" xmlns="http://www.w3.org/2000/svg">
<path d="M147.725 148.333C147.725 147.153 148.682 146.197 149.862 146.197C151.043 146.197 152 147.153 152 148.333C152 149.513 151.043 150.469 149.862 150.469C148.682 150.469 147.725 149.513 147.725 148.333Z" fill="url(#paint0_linear_941_7512)"/>
<path d="M147.725 127.444C147.725 126.264 148.682 125.308 149.862 125.308C151.043 125.308 152 126.264 152 127.444C152 128.623 151.043 129.58 149.862 129.58C148.682 129.58 147.725 128.623 147.725 127.444Z" fill="url(#paint1_linear_941_7512)"/>
<path d="M147.725 106.555C147.725 105.375 148.682 104.419 149.862 104.419C151.043 104.419 152 105.375 152 106.555C152 107.734 151.043 108.69 149.862 108.69C148.682 108.69 147.725 107.734 147.725 106.555Z" fill="url(#paint2_linear_941_7512)"/>
<path d="M147.725 85.6655C147.725 84.486 148.682 83.5297 149.862 83.5297C151.043 83.5297 152 84.486 152 85.6655C152 86.8451 151.043 87.8013 149.862 87.8013C148.682 87.8013 147.725 86.8451 147.725 85.6655Z" fill="url(#paint3_linear_941_7512)"/>
<path d="M147.725 64.8025C147.725 63.6229 148.682 62.6667 149.862 62.6667C151.043 62.6667 152 63.6229 152 64.8025C152 65.982 151.043 66.9382 149.862 66.9382C148.682 66.9382 147.725 65.982 147.725 64.8025Z" fill="url(#paint4_linear_941_7512)"/>
<path d="M147.725 43.9133C147.725 42.7338 148.682 41.7775 149.862 41.7775C151.043 41.7775 152 42.7338 152 43.9133C152 45.0929 151.043 46.0491 149.862 46.0491C148.682 46.0491 147.725 45.0929 147.725 43.9133Z" fill="url(#paint5_linear_941_7512)"/>
<path d="M147.725 23.0242C147.725 21.8446 148.682 20.8884 149.862 20.8884C151.043 20.8884 152 21.8446 152 23.0242C152 24.2038 151.043 25.16 149.862 25.16C148.682 25.16 147.725 24.2038 147.725 23.0242Z" fill="url(#paint6_linear_941_7512)"/>
<path d="M147.725 2.13506C147.725 0.95549 148.682 -0.000747681 149.862 -0.000747681C151.043 -0.000747681 152 0.95549 152 2.13506C152 3.31462 151.043 4.27086 149.862 4.27086C148.682 4.27086 147.725 3.31462 147.725 2.13506Z" fill="url(#paint7_linear_941_7512)"/>
<path d="M126.816 148.333C126.816 147.153 127.773 146.197 128.954 146.197C130.135 146.197 131.092 147.153 131.092 148.333C131.092 149.513 130.135 150.469 128.954 150.469C127.773 150.469 126.816 149.513 126.816 148.333Z" fill="url(#paint8_linear_941_7512)"/>
<path d="M126.816 127.444C126.816 126.264 127.773 125.308 128.954 125.308C130.135 125.308 131.092 126.264 131.092 127.444C131.092 128.623 130.135 129.58 128.954 129.58C127.773 129.58 126.816 128.623 126.816 127.444Z" fill="url(#paint9_linear_941_7512)"/>
<path d="M126.816 106.555C126.816 105.375 127.773 104.419 128.954 104.419C130.135 104.419 131.092 105.375 131.092 106.555C131.092 107.734 130.135 108.69 128.954 108.69C127.773 108.69 126.816 107.734 126.816 106.555Z" fill="url(#paint10_linear_941_7512)"/>
<path d="M126.816 85.6655C126.816 84.486 127.773 83.5297 128.954 83.5297C130.135 83.5297 131.092 84.486 131.092 85.6655C131.092 86.8451 130.135 87.8013 128.954 87.8013C127.773 87.8013 126.816 86.8451 126.816 85.6655Z" fill="url(#paint11_linear_941_7512)"/>
<path d="M126.816 64.8025C126.816 63.6229 127.773 62.6667 128.954 62.6667C130.135 62.6667 131.092 63.6229 131.092 64.8025C131.092 65.982 130.135 66.9383 128.954 66.9383C127.773 66.9383 126.816 65.982 126.816 64.8025Z" fill="url(#paint12_linear_941_7512)"/>
<path d="M126.816 43.9133C126.816 42.7338 127.773 41.7775 128.954 41.7775C130.135 41.7775 131.092 42.7338 131.092 43.9133C131.092 45.0929 130.135 46.0491 128.954 46.0491C127.773 46.0491 126.816 45.0929 126.816 43.9133Z" fill="url(#paint13_linear_941_7512)"/>
<path d="M126.816 23.0242C126.816 21.8446 127.773 20.8884 128.954 20.8884C130.135 20.8884 131.092 21.8446 131.092 23.0242C131.092 24.2038 130.135 25.16 128.954 25.16C127.773 25.16 126.816 24.2038 126.816 23.0242Z" fill="url(#paint14_linear_941_7512)"/>
<path d="M126.816 2.13506C126.816 0.95549 127.773 -0.000747681 128.954 -0.000747681C130.135 -0.000747681 131.092 0.95549 131.092 2.13506C131.092 3.31462 130.135 4.27086 128.954 4.27086C127.773 4.27086 126.816 3.31462 126.816 2.13506Z" fill="url(#paint15_linear_941_7512)"/>
<path d="M105.908 148.333C105.908 147.153 106.865 146.197 108.046 146.197C109.227 146.197 110.184 147.153 110.184 148.333C110.184 149.513 109.227 150.469 108.046 150.469C106.865 150.469 105.908 149.513 105.908 148.333Z" fill="url(#paint16_linear_941_7512)"/>
<path d="M105.908 127.444C105.908 126.264 106.865 125.308 108.046 125.308C109.227 125.308 110.184 126.264 110.184 127.444C110.184 128.623 109.227 129.58 108.046 129.58C106.865 129.58 105.908 128.623 105.908 127.444Z" fill="url(#paint17_linear_941_7512)"/>
<path d="M105.908 106.555C105.908 105.375 106.865 104.419 108.046 104.419C109.227 104.419 110.184 105.375 110.184 106.555C110.184 107.734 109.227 108.69 108.046 108.69C106.865 108.69 105.908 107.734 105.908 106.555Z" fill="url(#paint18_linear_941_7512)"/>
<path d="M105.908 85.6656C105.908 84.486 106.865 83.5297 108.046 83.5297C109.227 83.5297 110.184 84.486 110.184 85.6656C110.184 86.8451 109.227 87.8013 108.046 87.8013C106.865 87.8013 105.908 86.8451 105.908 85.6656Z" fill="url(#paint19_linear_941_7512)"/>
<path d="M105.908 64.8025C105.908 63.6229 106.865 62.6667 108.046 62.6667C109.227 62.6667 110.184 63.6229 110.184 64.8025C110.184 65.982 109.227 66.9383 108.046 66.9383C106.865 66.9383 105.908 65.982 105.908 64.8025Z" fill="url(#paint20_linear_941_7512)"/>
<path d="M105.908 43.9133C105.908 42.7338 106.865 41.7775 108.046 41.7775C109.227 41.7775 110.184 42.7338 110.184 43.9133C110.184 45.0929 109.227 46.0491 108.046 46.0491C106.865 46.0491 105.908 45.0929 105.908 43.9133Z" fill="url(#paint21_linear_941_7512)"/>
<path d="M105.908 23.0242C105.908 21.8446 106.865 20.8884 108.046 20.8884C109.227 20.8884 110.184 21.8446 110.184 23.0242C110.184 24.2038 109.227 25.16 108.046 25.16C106.865 25.16 105.908 24.2038 105.908 23.0242Z" fill="url(#paint22_linear_941_7512)"/>
<path d="M105.908 2.13506C105.908 0.95549 106.865 -0.000747681 108.046 -0.000747681C109.227 -0.000747681 110.184 0.95549 110.184 2.13506C110.184 3.31462 109.227 4.27086 108.046 4.27086C106.865 4.27086 105.908 3.31462 105.908 2.13506Z" fill="url(#paint23_linear_941_7512)"/>
<path d="M85 148.333C85 147.153 85.9571 146.197 87.1377 146.197C88.3184 146.197 89.2755 147.153 89.2755 148.333C89.2755 149.513 88.3184 150.469 87.1377 150.469C85.9571 150.469 85 149.513 85 148.333Z" fill="url(#paint24_linear_941_7512)"/>
<path d="M85 127.444C85 126.264 85.9571 125.308 87.1377 125.308C88.3184 125.308 89.2755 126.264 89.2755 127.444C89.2755 128.623 88.3184 129.58 87.1377 129.58C85.9571 129.58 85 128.623 85 127.444Z" fill="url(#paint25_linear_941_7512)"/>
<path d="M85 106.555C85 105.375 85.9571 104.419 87.1377 104.419C88.3184 104.419 89.2755 105.375 89.2755 106.555C89.2755 107.734 88.3184 108.69 87.1377 108.69C85.9571 108.69 85 107.734 85 106.555Z" fill="url(#paint26_linear_941_7512)"/>
<path d="M85 85.6656C85 84.486 85.9571 83.5298 87.1377 83.5298C88.3184 83.5298 89.2755 84.486 89.2755 85.6656C89.2755 86.8451 88.3184 87.8013 87.1377 87.8013C85.9571 87.8013 85 86.8451 85 85.6656Z" fill="url(#paint27_linear_941_7512)"/>
<path d="M85 64.8025C85 63.6229 85.9571 62.6667 87.1377 62.6667C88.3184 62.6667 89.2755 63.6229 89.2755 64.8025C89.2755 65.982 88.3184 66.9383 87.1377 66.9383C85.9571 66.9383 85 65.982 85 64.8025Z" fill="url(#paint28_linear_941_7512)"/>
<path d="M85 43.9133C85 42.7338 85.9571 41.7775 87.1377 41.7775C88.3184 41.7775 89.2755 42.7338 89.2755 43.9133C89.2755 45.0929 88.3184 46.0491 87.1377 46.0491C85.9571 46.0491 85 45.0929 85 43.9133Z" fill="url(#paint29_linear_941_7512)"/>
<path d="M85 23.0242C85 21.8446 85.9571 20.8884 87.1377 20.8884C88.3184 20.8884 89.2755 21.8446 89.2755 23.0242C89.2755 24.2038 88.3184 25.16 87.1377 25.16C85.9571 25.16 85 24.2038 85 23.0242Z" fill="url(#paint30_linear_941_7512)"/>
<path d="M85 2.13506C85 0.95549 85.9571 -0.000747681 87.1377 -0.000747681C88.3184 -0.000747681 89.2755 0.95549 89.2755 2.13506C89.2755 3.31462 88.3184 4.27086 87.1377 4.27086C85.9571 4.27086 85 3.31462 85 2.13506Z" fill="url(#paint31_linear_941_7512)"/>
<path d="M62.7245 148.333C62.7245 147.153 63.6816 146.197 64.8623 146.197C66.0429 146.197 67 147.153 67 148.333C67 149.513 66.0429 150.469 64.8623 150.469C63.6816 150.469 62.7245 149.513 62.7245 148.333Z" fill="url(#paint32_linear_941_7512)"/>
<path d="M62.7245 127.444C62.7245 126.264 63.6816 125.308 64.8623 125.308C66.0429 125.308 67 126.264 67 127.444C67 128.623 66.0429 129.58 64.8623 129.58C63.6816 129.58 62.7245 128.623 62.7245 127.444Z" fill="url(#paint33_linear_941_7512)"/>
<path d="M62.7245 106.555C62.7245 105.375 63.6816 104.419 64.8623 104.419C66.0429 104.419 67 105.375 67 106.555C67 107.734 66.0429 108.69 64.8623 108.69C63.6816 108.69 62.7245 107.734 62.7245 106.555Z" fill="url(#paint34_linear_941_7512)"/>
<path d="M62.7245 85.6655C62.7245 84.486 63.6816 83.5297 64.8623 83.5297C66.0429 83.5297 67 84.486 67 85.6655C67 86.8451 66.0429 87.8013 64.8623 87.8013C63.6816 87.8013 62.7245 86.8451 62.7245 85.6655Z" fill="url(#paint35_linear_941_7512)"/>
<path d="M62.7245 64.8025C62.7245 63.6229 63.6816 62.6667 64.8623 62.6667C66.0429 62.6667 67 63.6229 67 64.8025C67 65.982 66.0429 66.9382 64.8623 66.9382C63.6816 66.9382 62.7245 65.982 62.7245 64.8025Z" fill="url(#paint36_linear_941_7512)"/>
<path d="M62.7245 43.9133C62.7245 42.7338 63.6816 41.7775 64.8623 41.7775C66.0429 41.7775 67 42.7338 67 43.9133C67 45.0929 66.0429 46.0491 64.8623 46.0491C63.6816 46.0491 62.7245 45.0929 62.7245 43.9133Z" fill="url(#paint37_linear_941_7512)"/>
<path d="M62.7245 23.0242C62.7245 21.8446 63.6816 20.8884 64.8623 20.8884C66.0429 20.8884 67 21.8446 67 23.0242C67 24.2038 66.0429 25.16 64.8623 25.16C63.6816 25.16 62.7245 24.2038 62.7245 23.0242Z" fill="url(#paint38_linear_941_7512)"/>
<path d="M62.7245 2.13506C62.7245 0.95549 63.6816 -0.000747681 64.8623 -0.000747681C66.0429 -0.000747681 67 0.95549 67 2.13506C67 3.31462 66.0429 4.27086 64.8623 4.27086C63.6816 4.27086 62.7245 3.31462 62.7245 2.13506Z" fill="url(#paint39_linear_941_7512)"/>
<path d="M41.8163 148.333C41.8163 147.153 42.7734 146.197 43.9541 146.197C45.1347 146.197 46.0918 147.153 46.0918 148.333C46.0918 149.513 45.1347 150.469 43.9541 150.469C42.7734 150.469 41.8163 149.513 41.8163 148.333Z" fill="url(#paint40_linear_941_7512)"/>
<path d="M41.8163 127.444C41.8163 126.264 42.7734 125.308 43.9541 125.308C45.1347 125.308 46.0918 126.264 46.0918 127.444C46.0918 128.623 45.1347 129.58 43.9541 129.58C42.7734 129.58 41.8163 128.623 41.8163 127.444Z" fill="url(#paint41_linear_941_7512)"/>
<path d="M41.8163 106.555C41.8163 105.375 42.7734 104.419 43.9541 104.419C45.1347 104.419 46.0918 105.375 46.0918 106.555C46.0918 107.734 45.1347 108.69 43.9541 108.69C42.7734 108.69 41.8163 107.734 41.8163 106.555Z" fill="url(#paint42_linear_941_7512)"/>
<path d="M41.8163 85.6655C41.8163 84.486 42.7734 83.5297 43.9541 83.5297C45.1347 83.5297 46.0918 84.486 46.0918 85.6655C46.0918 86.8451 45.1347 87.8013 43.9541 87.8013C42.7734 87.8013 41.8163 86.8451 41.8163 85.6655Z" fill="url(#paint43_linear_941_7512)"/>
<path d="M41.8163 64.8025C41.8163 63.6229 42.7734 62.6667 43.9541 62.6667C45.1347 62.6667 46.0918 63.6229 46.0918 64.8025C46.0918 65.982 45.1347 66.9383 43.9541 66.9383C42.7734 66.9383 41.8163 65.982 41.8163 64.8025Z" fill="url(#paint44_linear_941_7512)"/>
<path d="M41.8163 43.9133C41.8163 42.7338 42.7734 41.7775 43.9541 41.7775C45.1347 41.7775 46.0918 42.7338 46.0918 43.9133C46.0918 45.0929 45.1347 46.0491 43.9541 46.0491C42.7734 46.0491 41.8163 45.0929 41.8163 43.9133Z" fill="url(#paint45_linear_941_7512)"/>
<path d="M41.8163 23.0242C41.8163 21.8446 42.7734 20.8884 43.9541 20.8884C45.1347 20.8884 46.0918 21.8446 46.0918 23.0242C46.0918 24.2038 45.1347 25.16 43.9541 25.16C42.7734 25.16 41.8163 24.2038 41.8163 23.0242Z" fill="url(#paint46_linear_941_7512)"/>
<path d="M41.8163 2.13506C41.8163 0.95549 42.7734 -0.000747681 43.9541 -0.000747681C45.1347 -0.000747681 46.0918 0.95549 46.0918 2.13506C46.0918 3.31462 45.1347 4.27086 43.9541 4.27086C42.7734 4.27086 41.8163 3.31462 41.8163 2.13506Z" fill="url(#paint47_linear_941_7512)"/>
<path d="M20.9082 148.333C20.9082 147.153 21.8653 146.197 23.0459 146.197C24.2266 146.197 25.1837 147.153 25.1837 148.333C25.1837 149.513 24.2266 150.469 23.0459 150.469C21.8653 150.469 20.9082 149.513 20.9082 148.333Z" fill="url(#paint48_linear_941_7512)"/>
<path d="M20.9082 127.444C20.9082 126.264 21.8653 125.308 23.0459 125.308C24.2266 125.308 25.1837 126.264 25.1837 127.444C25.1837 128.623 24.2266 129.58 23.0459 129.58C21.8653 129.58 20.9082 128.623 20.9082 127.444Z" fill="url(#paint49_linear_941_7512)"/>
<path d="M20.9082 106.555C20.9082 105.375 21.8653 104.419 23.0459 104.419C24.2266 104.419 25.1837 105.375 25.1837 106.555C25.1837 107.734 24.2266 108.69 23.0459 108.69C21.8653 108.69 20.9082 107.734 20.9082 106.555Z" fill="url(#paint50_linear_941_7512)"/>
<path d="M20.9082 85.6656C20.9082 84.486 21.8653 83.5297 23.0459 83.5297C24.2266 83.5297 25.1837 84.486 25.1837 85.6656C25.1837 86.8451 24.2266 87.8013 23.0459 87.8013C21.8653 87.8013 20.9082 86.8451 20.9082 85.6656Z" fill="url(#paint51_linear_941_7512)"/>
<path d="M20.9082 64.8025C20.9082 63.6229 21.8653 62.6667 23.0459 62.6667C24.2266 62.6667 25.1837 63.6229 25.1837 64.8025C25.1837 65.982 24.2266 66.9383 23.0459 66.9383C21.8653 66.9383 20.9082 65.982 20.9082 64.8025Z" fill="url(#paint52_linear_941_7512)"/>
<path d="M20.9082 43.9133C20.9082 42.7338 21.8653 41.7775 23.0459 41.7775C24.2266 41.7775 25.1837 42.7338 25.1837 43.9133C25.1837 45.0929 24.2266 46.0491 23.0459 46.0491C21.8653 46.0491 20.9082 45.0929 20.9082 43.9133Z" fill="url(#paint53_linear_941_7512)"/>
<path d="M20.9082 23.0242C20.9082 21.8446 21.8653 20.8884 23.0459 20.8884C24.2266 20.8884 25.1837 21.8446 25.1837 23.0242C25.1837 24.2038 24.2266 25.16 23.0459 25.16C21.8653 25.16 20.9082 24.2038 20.9082 23.0242Z" fill="url(#paint54_linear_941_7512)"/>
<path d="M20.9082 2.13506C20.9082 0.95549 21.8653 -0.000747681 23.0459 -0.000747681C24.2266 -0.000747681 25.1837 0.95549 25.1837 2.13506C25.1837 3.31462 24.2266 4.27086 23.0459 4.27086C21.8653 4.27086 20.9082 3.31462 20.9082 2.13506Z" fill="url(#paint55_linear_941_7512)"/>
<path d="M6.39051e-06 148.333C6.33895e-06 147.153 0.957106 146.197 2.13775 146.197C3.31839 146.197 4.27549 147.153 4.27549 148.333C4.27549 149.513 3.31839 150.469 2.13775 150.469C0.957106 150.469 6.44207e-06 149.513 6.39051e-06 148.333Z" fill="url(#paint56_linear_941_7512)"/>
<path d="M5.47742e-06 127.444C5.42586e-06 126.264 0.957105 125.308 2.13775 125.308C3.31839 125.308 4.27549 126.264 4.27549 127.444C4.27549 128.623 3.31839 129.58 2.13775 129.58C0.957105 129.58 5.52898e-06 128.623 5.47742e-06 127.444Z" fill="url(#paint57_linear_941_7512)"/>
<path d="M4.56433e-06 106.555C4.51277e-06 105.375 0.957104 104.419 2.13775 104.419C3.31839 104.419 4.27549 105.375 4.27549 106.555C4.27549 107.734 3.31839 108.69 2.13775 108.69C0.957104 108.69 4.61589e-06 107.734 4.56433e-06 106.555Z" fill="url(#paint58_linear_941_7512)"/>
<path d="M3.65123e-06 85.6656C3.59967e-06 84.486 0.957103 83.5298 2.13775 83.5298C3.31839 83.5298 4.27549 84.486 4.27549 85.6656C4.27549 86.8451 3.31839 87.8013 2.13775 87.8013C0.957103 87.8013 3.70279e-06 86.8451 3.65123e-06 85.6656Z" fill="url(#paint59_linear_941_7512)"/>
<path d="M2.73928e-06 64.8025C2.68772e-06 63.6229 0.957102 62.6667 2.13774 62.6667C3.31839 62.6667 4.27549 63.6229 4.27549 64.8025C4.27549 65.982 3.31839 66.9383 2.13775 66.9383C0.957102 66.9383 2.79084e-06 65.982 2.73928e-06 64.8025Z" fill="url(#paint60_linear_941_7512)"/>
<path d="M1.82619e-06 43.9133C1.77462e-06 42.7338 0.957101 41.7775 2.13774 41.7775C3.31839 41.7775 4.27549 42.7338 4.27549 43.9133C4.27549 45.0929 3.31839 46.0491 2.13774 46.0491C0.957101 46.0491 1.87775e-06 45.0929 1.82619e-06 43.9133Z" fill="url(#paint61_linear_941_7512)"/>
<path d="M9.13093e-07 23.0242C8.61532e-07 21.8446 0.9571 20.8884 2.13774 20.8884C3.31839 20.8884 4.27549 21.8446 4.27549 23.0242C4.27549 24.2038 3.31839 25.16 2.13774 25.16C0.957101 25.16 9.64653e-07 24.2038 9.13093e-07 23.0242Z" fill="url(#paint62_linear_941_7512)"/>
<path d="M0 2.13506C-5.15606e-08 0.95549 0.957099 -0.000747681 2.13774 -0.000747681C3.31839 -0.000747681 4.27548 0.95549 4.27548 2.13506C4.27548 3.31462 3.31839 4.27086 2.13774 4.27086C0.9571 4.27086 5.15606e-08 3.31462 0 2.13506Z" fill="url(#paint63_linear_941_7512)"/>
<defs>
<linearGradient id="paint0_linear_941_7512" x1="76" y1="150.469" x2="76" y2="-0.000747681" gradientUnits="userSpaceOnUse">
<stop stop-color="#F98A26"/>
<stop offset="1" stop-color="#9AD3BC"/>
</linearGradient>
<linearGradient id="paint1_linear_941_7512" x1="76" y1="150.469" x2="76" y2="-0.000747681" gradientUnits="userSpaceOnUse">
<stop stop-color="#F98A26"/>
<stop offset="1" stop-color="#9AD3BC"/>
</linearGradient>
<linearGradient id="paint2_linear_941_7512" x1="76" y1="150.469" x2="76" y2="-0.000747681" gradientUnits="userSpaceOnUse">
<stop stop-color="#F98A26"/>
<stop offset="1" stop-color="#9AD3BC"/>
</linearGradient>
<linearGradient id="paint3_linear_941_7512" x1="76" y1="150.469" x2="76" y2="-0.000747681" gradientUnits="userSpaceOnUse">
<stop stop-color="#F98A26"/>
<stop offset="1" stop-color="#9AD3BC"/>
</linearGradient>
<linearGradient id="paint4_linear_941_7512" x1="76" y1="150.469" x2="76" y2="-0.000747681" gradientUnits="userSpaceOnUse">
<stop stop-color="#F98A26"/>
<stop offset="1" stop-color="#9AD3BC"/>
</linearGradient>
<linearGradient id="paint5_linear_941_7512" x1="76" y1="150.469" x2="76" y2="-0.000747681" gradientUnits="userSpaceOnUse">
<stop stop-color="#F98A26"/>
<stop offset="1" stop-color="#9AD3BC"/>
</linearGradient>
<linearGradient id="paint6_linear_941_7512" x1="76" y1="150.469" x2="76" y2="-0.000747681" gradientUnits="userSpaceOnUse">
<stop stop-color="#F98A26"/>
<stop offset="1" stop-color="#9AD3BC"/>
</linearGradient>
<linearGradient id="paint7_linear_941_7512" x1="76" y1="150.469" x2="76" y2="-0.000747681" gradientUnits="userSpaceOnUse">
<stop stop-color="#F98A26"/>
<stop offset="1" stop-color="#9AD3BC"/>
</linearGradient>
<linearGradient id="paint8_linear_941_7512" x1="76" y1="150.469" x2="76" y2="-0.000747681" gradientUnits="userSpaceOnUse">
<stop stop-color="#F98A26"/>
<stop offset="1" stop-color="#9AD3BC"/>
</linearGradient>
<linearGradient id="paint9_linear_941_7512" x1="76" y1="150.469" x2="76" y2="-0.000747681" gradientUnits="userSpaceOnUse">
<stop stop-color="#F98A26"/>
<stop offset="1" stop-color="#9AD3BC"/>
</linearGradient>
<linearGradient id="paint10_linear_941_7512" x1="76" y1="150.469" x2="76" y2="-0.000747681" gradientUnits="userSpaceOnUse">
<stop stop-color="#F98A26"/>
<stop offset="1" stop-color="#9AD3BC"/>
</linearGradient>
<linearGradient id="paint11_linear_941_7512" x1="76" y1="150.469" x2="76" y2="-0.000747681" gradientUnits="userSpaceOnUse">
<stop stop-color="#F98A26"/>
<stop offset="1" stop-color="#9AD3BC"/>
</linearGradient>
<linearGradient id="paint12_linear_941_7512" x1="76" y1="150.469" x2="76" y2="-0.000747681" gradientUnits="userSpaceOnUse">
<stop stop-color="#F98A26"/>
<stop offset="1" stop-color="#9AD3BC"/>
</linearGradient>
<linearGradient id="paint13_linear_941_7512" x1="76" y1="150.469" x2="76" y2="-0.000747681" gradientUnits="userSpaceOnUse">
<stop stop-color="#F98A26"/>
<stop offset="1" stop-color="#9AD3BC"/>
</linearGradient>
<linearGradient id="paint14_linear_941_7512" x1="76" y1="150.469" x2="76" y2="-0.000747681" gradientUnits="userSpaceOnUse">
<stop stop-color="#F98A26"/>
<stop offset="1" stop-color="#9AD3BC"/>
</linearGradient>
<linearGradient id="paint15_linear_941_7512" x1="76" y1="150.469" x2="76" y2="-0.000747681" gradientUnits="userSpaceOnUse">
<stop stop-color="#F98A26"/>
<stop offset="1" stop-color="#9AD3BC"/>
</linearGradient>
<linearGradient id="paint16_linear_941_7512" x1="76" y1="150.469" x2="76" y2="-0.000747681" gradientUnits="userSpaceOnUse">
<stop stop-color="#F98A26"/>
<stop offset="1" stop-color="#9AD3BC"/>
</linearGradient>
<linearGradient id="paint17_linear_941_7512" x1="76" y1="150.469" x2="76" y2="-0.000747681" gradientUnits="userSpaceOnUse">
<stop stop-color="#F98A26"/>
<stop offset="1" stop-color="#9AD3BC"/>
</linearGradient>
<linearGradient id="paint18_linear_941_7512" x1="76" y1="150.469" x2="76" y2="-0.000747681" gradientUnits="userSpaceOnUse">
<stop stop-color="#F98A26"/>
<stop offset="1" stop-color="#9AD3BC"/>
</linearGradient>
<linearGradient id="paint19_linear_941_7512" x1="76" y1="150.469" x2="76" y2="-0.000747681" gradientUnits="userSpaceOnUse">
<stop stop-color="#F98A26"/>
<stop offset="1" stop-color="#9AD3BC"/>
</linearGradient>
<linearGradient id="paint20_linear_941_7512" x1="76" y1="150.469" x2="76" y2="-0.000747681" gradientUnits="userSpaceOnUse">
<stop stop-color="#F98A26"/>
<stop offset="1" stop-color="#9AD3BC"/>
</linearGradient>
<linearGradient id="paint21_linear_941_7512" x1="76" y1="150.469" x2="76" y2="-0.000747681" gradientUnits="userSpaceOnUse">
<stop stop-color="#F98A26"/>
<stop offset="1" stop-color="#9AD3BC"/>
</linearGradient>
<linearGradient id="paint22_linear_941_7512" x1="76" y1="150.469" x2="76" y2="-0.000747681" gradientUnits="userSpaceOnUse">
<stop stop-color="#F98A26"/>
<stop offset="1" stop-color="#9AD3BC"/>
</linearGradient>
<linearGradient id="paint23_linear_941_7512" x1="76" y1="150.469" x2="76" y2="-0.000747681" gradientUnits="userSpaceOnUse">
<stop stop-color="#F98A26"/>
<stop offset="1" stop-color="#9AD3BC"/>
</linearGradient>
<linearGradient id="paint24_linear_941_7512" x1="76" y1="150.469" x2="76" y2="-0.000747681" gradientUnits="userSpaceOnUse">
<stop stop-color="#F98A26"/>
<stop offset="1" stop-color="#9AD3BC"/>
</linearGradient>
<linearGradient id="paint25_linear_941_7512" x1="76" y1="150.469" x2="76" y2="-0.000747681" gradientUnits="userSpaceOnUse">
<stop stop-color="#F98A26"/>
<stop offset="1" stop-color="#9AD3BC"/>
</linearGradient>
<linearGradient id="paint26_linear_941_7512" x1="76" y1="150.469" x2="76" y2="-0.000747681" gradientUnits="userSpaceOnUse">
<stop stop-color="#F98A26"/>
<stop offset="1" stop-color="#9AD3BC"/>
</linearGradient>
<linearGradient id="paint27_linear_941_7512" x1="76" y1="150.469" x2="76" y2="-0.000747681" gradientUnits="userSpaceOnUse">
<stop stop-color="#F98A26"/>
<stop offset="1" stop-color="#9AD3BC"/>
</linearGradient>
<linearGradient id="paint28_linear_941_7512" x1="76" y1="150.469" x2="76" y2="-0.000747681" gradientUnits="userSpaceOnUse">
<stop stop-color="#F98A26"/>
<stop offset="1" stop-color="#9AD3BC"/>
</linearGradient>
<linearGradient id="paint29_linear_941_7512" x1="76" y1="150.469" x2="76" y2="-0.000747681" gradientUnits="userSpaceOnUse">
<stop stop-color="#F98A26"/>
<stop offset="1" stop-color="#9AD3BC"/>
</linearGradient>
<linearGradient id="paint30_linear_941_7512" x1="76" y1="150.469" x2="76" y2="-0.000747681" gradientUnits="userSpaceOnUse">
<stop stop-color="#F98A26"/>
<stop offset="1" stop-color="#9AD3BC"/>
</linearGradient>
<linearGradient id="paint31_linear_941_7512" x1="76" y1="150.469" x2="76" y2="-0.000747681" gradientUnits="userSpaceOnUse">
<stop stop-color="#F98A26"/>
<stop offset="1" stop-color="#9AD3BC"/>
</linearGradient>
<linearGradient id="paint32_linear_941_7512" x1="76" y1="150.469" x2="76" y2="-0.000747681" gradientUnits="userSpaceOnUse">
<stop stop-color="#F98A26"/>
<stop offset="1" stop-color="#9AD3BC"/>
</linearGradient>
<linearGradient id="paint33_linear_941_7512" x1="76" y1="150.469" x2="76" y2="-0.000747681" gradientUnits="userSpaceOnUse">
<stop stop-color="#F98A26"/>
<stop offset="1" stop-color="#9AD3BC"/>
</linearGradient>
<linearGradient id="paint34_linear_941_7512" x1="76" y1="150.469" x2="76" y2="-0.000747681" gradientUnits="userSpaceOnUse">
<stop stop-color="#F98A26"/>
<stop offset="1" stop-color="#9AD3BC"/>
</linearGradient>
<linearGradient id="paint35_linear_941_7512" x1="76" y1="150.469" x2="76" y2="-0.000747681" gradientUnits="userSpaceOnUse">
<stop stop-color="#F98A26"/>
<stop offset="1" stop-color="#9AD3BC"/>
</linearGradient>
<linearGradient id="paint36_linear_941_7512" x1="76" y1="150.469" x2="76" y2="-0.000747681" gradientUnits="userSpaceOnUse">
<stop stop-color="#F98A26"/>
<stop offset="1" stop-color="#9AD3BC"/>
</linearGradient>
<linearGradient id="paint37_linear_941_7512" x1="76" y1="150.469" x2="76" y2="-0.000747681" gradientUnits="userSpaceOnUse">
<stop stop-color="#F98A26"/>
<stop offset="1" stop-color="#9AD3BC"/>
</linearGradient>
<linearGradient id="paint38_linear_941_7512" x1="76" y1="150.469" x2="76" y2="-0.000747681" gradientUnits="userSpaceOnUse">
<stop stop-color="#F98A26"/>
<stop offset="1" stop-color="#9AD3BC"/>
</linearGradient>
<linearGradient id="paint39_linear_941_7512" x1="76" y1="150.469" x2="76" y2="-0.000747681" gradientUnits="userSpaceOnUse">
<stop stop-color="#F98A26"/>
<stop offset="1" stop-color="#9AD3BC"/>
</linearGradient>
<linearGradient id="paint40_linear_941_7512" x1="76" y1="150.469" x2="76" y2="-0.000747681" gradientUnits="userSpaceOnUse">
<stop stop-color="#F98A26"/>
<stop offset="1" stop-color="#9AD3BC"/>
</linearGradient>
<linearGradient id="paint41_linear_941_7512" x1="76" y1="150.469" x2="76" y2="-0.000747681" gradientUnits="userSpaceOnUse">
<stop stop-color="#F98A26"/>
<stop offset="1" stop-color="#9AD3BC"/>
</linearGradient>
<linearGradient id="paint42_linear_941_7512" x1="76" y1="150.469" x2="76" y2="-0.000747681" gradientUnits="userSpaceOnUse">
<stop stop-color="#F98A26"/>
<stop offset="1" stop-color="#9AD3BC"/>
</linearGradient>
<linearGradient id="paint43_linear_941_7512" x1="76" y1="150.469" x2="76" y2="-0.000747681" gradientUnits="userSpaceOnUse">
<stop stop-color="#F98A26"/>
<stop offset="1" stop-color="#9AD3BC"/>
</linearGradient>
<linearGradient id="paint44_linear_941_7512" x1="76" y1="150.469" x2="76" y2="-0.000747681" gradientUnits="userSpaceOnUse">
<stop stop-color="#F98A26"/>
<stop offset="1" stop-color="#9AD3BC"/>
</linearGradient>
<linearGradient id="paint45_linear_941_7512" x1="76" y1="150.469" x2="76" y2="-0.000747681" gradientUnits="userSpaceOnUse">
<stop stop-color="#F98A26"/>
<stop offset="1" stop-color="#9AD3BC"/>
</linearGradient>
<linearGradient id="paint46_linear_941_7512" x1="76" y1="150.469" x2="76" y2="-0.000747681" gradientUnits="userSpaceOnUse">
<stop stop-color="#F98A26"/>
<stop offset="1" stop-color="#9AD3BC"/>
</linearGradient>
<linearGradient id="paint47_linear_941_7512" x1="76" y1="150.469" x2="76" y2="-0.000747681" gradientUnits="userSpaceOnUse">
<stop stop-color="#F98A26"/>
<stop offset="1" stop-color="#9AD3BC"/>
</linearGradient>
<linearGradient id="paint48_linear_941_7512" x1="76" y1="150.469" x2="76" y2="-0.000747681" gradientUnits="userSpaceOnUse">
<stop stop-color="#F98A26"/>
<stop offset="1" stop-color="#9AD3BC"/>
</linearGradient>
<linearGradient id="paint49_linear_941_7512" x1="76" y1="150.469" x2="76" y2="-0.000747681" gradientUnits="userSpaceOnUse">
<stop stop-color="#F98A26"/>
<stop offset="1" stop-color="#9AD3BC"/>
</linearGradient>
<linearGradient id="paint50_linear_941_7512" x1="76" y1="150.469" x2="76" y2="-0.000747681" gradientUnits="userSpaceOnUse">
<stop stop-color="#F98A26"/>
<stop offset="1" stop-color="#9AD3BC"/>
</linearGradient>
<linearGradient id="paint51_linear_941_7512" x1="76" y1="150.469" x2="76" y2="-0.000747681" gradientUnits="userSpaceOnUse">
<stop stop-color="#F98A26"/>
<stop offset="1" stop-color="#9AD3BC"/>
</linearGradient>
<linearGradient id="paint52_linear_941_7512" x1="76" y1="150.469" x2="76" y2="-0.000747681" gradientUnits="userSpaceOnUse">
<stop stop-color="#F98A26"/>
<stop offset="1" stop-color="#9AD3BC"/>
</linearGradient>
<linearGradient id="paint53_linear_941_7512" x1="76" y1="150.469" x2="76" y2="-0.000747681" gradientUnits="userSpaceOnUse">
<stop stop-color="#F98A26"/>
<stop offset="1" stop-color="#9AD3BC"/>
</linearGradient>
<linearGradient id="paint54_linear_941_7512" x1="76" y1="150.469" x2="76" y2="-0.000747681" gradientUnits="userSpaceOnUse">
<stop stop-color="#F98A26"/>
<stop offset="1" stop-color="#9AD3BC"/>
</linearGradient>
<linearGradient id="paint55_linear_941_7512" x1="76" y1="150.469" x2="76" y2="-0.000747681" gradientUnits="userSpaceOnUse">
<stop stop-color="#F98A26"/>
<stop offset="1" stop-color="#9AD3BC"/>
</linearGradient>
<linearGradient id="paint56_linear_941_7512" x1="76" y1="150.469" x2="76" y2="-0.000747681" gradientUnits="userSpaceOnUse">
<stop stop-color="#F98A26"/>
<stop offset="1" stop-color="#9AD3BC"/>
</linearGradient>
<linearGradient id="paint57_linear_941_7512" x1="76" y1="150.469" x2="76" y2="-0.000747681" gradientUnits="userSpaceOnUse">
<stop stop-color="#F98A26"/>
<stop offset="1" stop-color="#9AD3BC"/>
</linearGradient>
<linearGradient id="paint58_linear_941_7512" x1="76" y1="150.469" x2="76" y2="-0.000747681" gradientUnits="userSpaceOnUse">
<stop stop-color="#F98A26"/>
<stop offset="1" stop-color="#9AD3BC"/>
</linearGradient>
<linearGradient id="paint59_linear_941_7512" x1="76" y1="150.469" x2="76" y2="-0.000747681" gradientUnits="userSpaceOnUse">
<stop stop-color="#F98A26"/>
<stop offset="1" stop-color="#9AD3BC"/>
</linearGradient>
<linearGradient id="paint60_linear_941_7512" x1="76" y1="150.469" x2="76" y2="-0.000747681" gradientUnits="userSpaceOnUse">
<stop stop-color="#F98A26"/>
<stop offset="1" stop-color="#9AD3BC"/>
</linearGradient>
<linearGradient id="paint61_linear_941_7512" x1="76" y1="150.469" x2="76" y2="-0.000747681" gradientUnits="userSpaceOnUse">
<stop stop-color="#F98A26"/>
<stop offset="1" stop-color="#9AD3BC"/>
</linearGradient>
<linearGradient id="paint62_linear_941_7512" x1="76" y1="150.469" x2="76" y2="-0.000747681" gradientUnits="userSpaceOnUse">
<stop stop-color="#F98A26"/>
<stop offset="1" stop-color="#9AD3BC"/>
</linearGradient>
<linearGradient id="paint63_linear_941_7512" x1="76" y1="150.469" x2="76" y2="-0.000747681" gradientUnits="userSpaceOnUse">
<stop stop-color="#F98A26"/>
<stop offset="1" stop-color="#9AD3BC"/>
</linearGradient>
</defs>
</svg>
