<svg width="300" height="314" viewBox="0 0 300 314" fill="none" xmlns="http://www.w3.org/2000/svg">
<g clip-path="url(#clip0_411_8953)">
<path d="M159.129 160.105C346.957 223.854 271.729 332.028 155.643 165.114C271.729 332.028 150 373.347 150 167.028C150 373.347 28.2811 332.028 144.357 165.114C28.2811 332.028 -46.9571 223.854 140.871 160.105C-46.9571 223.854 -46.9571 90.1102 140.871 153.904C-46.9571 90.143 28.2811 -18.0312 144.357 148.895C28.2811 -18.0312 150 -59.3498 150 146.981C150 -59.3498 271.729 -18.0312 155.643 148.895C271.729 -18.0312 346.957 90.143 159.129 153.904C346.957 90.143 346.957 223.854 159.129 160.105Z" fill="#F98A26"/>
</g>
<defs>
<clipPath id="clip0_411_8953">
<rect width="300" height="313.889" fill="white"/>
</clipPath>
</defs>
</svg>
