<svg width="300" height="363" viewBox="0 0 300 363" fill="none" xmlns="http://www.w3.org/2000/svg">
<g clip-path="url(#clip0_71_2948)">
<path d="M159.129 184.826C346.957 258.81 271.729 384.35 155.643 190.639C271.729 384.35 150 432.301 150 192.86C150 432.301 28.2811 384.35 144.357 190.639C28.2811 384.35 -46.9571 258.81 140.871 184.826C-46.9571 258.81 -46.9571 103.595 140.871 177.629C-46.9571 103.633 28.2811 -21.9068 144.357 171.816C28.2811 -21.9068 150 -69.8585 150 169.595C150 -69.8585 271.729 -21.9068 155.643 171.816C271.729 -21.9068 346.957 103.633 159.129 177.629C346.957 103.633 346.957 258.81 159.129 184.826Z" fill="#9AD3BC"/>
</g>
<defs>
<clipPath id="clip0_71_2948">
<rect width="300" height="361.858" fill="white" transform="translate(0 0.223053)"/>
</clipPath>
</defs>
</svg>
