<svg width="40" height="48" viewBox="0 0 40 48" fill="none" xmlns="http://www.w3.org/2000/svg">
<path d="M20 0.879883L40 7.87988V23.9999C40 32.2539 34.934 38.0239 30.208 41.6059C27.3572 43.7488 24.2286 45.4948 20.908 46.7959L20.734 46.8619L20.684 46.8799L20.67 46.8839L20.664 46.8859C20.662 46.8859 20.66 46.8859 20 44.9999L19.338 46.8879L19.33 46.8839L19.316 46.8799L19.266 46.8599L19.092 46.7959C18.1487 46.4311 17.2212 46.0268 16.312 45.5839C14.0168 44.4689 11.8335 43.1368 9.792 41.6059C5.068 38.0239 0 32.2539 0 23.9999V7.87988L20 0.879883ZM20 44.9999L19.338 46.8879L20 47.1199L20.662 46.8879L20 44.9999ZM20 42.8559L20.018 42.8479C22.7853 41.704 25.3973 40.2156 27.792 38.4179C32.068 35.1799 36 30.4459 36 23.9999V10.7199L20 5.11988L4 10.7199V23.9999C4 30.4459 7.932 35.1759 12.208 38.4199C14.608 40.221 17.2261 41.7115 20 42.8559ZM32.144 16.6859L18.002 30.8279L9.516 22.3439L12.346 19.5139L18 25.1719L29.314 13.8579L32.144 16.6859Z" fill="#F98A26"/>
</svg>
