<svg width="48" height="48" viewBox="0 0 48 48" fill="none" xmlns="http://www.w3.org/2000/svg">
<path d="M39.7749 25.0619L42.4869 27.4769C42.9877 27.8948 43.3223 28.4782 43.4302 29.1215C43.538 29.7648 43.412 30.4255 43.0749 30.9839L39.8049 36.5699C39.5512 36.9975 39.189 37.3504 38.7549 37.5929C38.3158 37.8359 37.8227 37.9648 37.3209 37.9679C37.0096 37.9698 36.6999 37.9232 36.4029 37.8299L32.9319 36.6839C32.3239 37.0739 31.6919 37.4229 31.0359 37.7309L30.3069 41.2499C30.172 41.8972 29.8116 42.4756 29.2899 42.8819C28.7616 43.2955 28.1067 43.5138 27.4359 43.4999H20.6649C19.9941 43.5138 19.3392 43.2955 18.8109 42.8819C18.2903 42.4751 17.931 41.8968 17.7969 41.2499L17.0649 37.7309C16.4175 37.4188 15.7894 37.0681 15.1839 36.6809L11.7009 37.8299C11.4039 37.9232 11.0942 37.9698 10.7829 37.9679C10.2821 37.9643 9.79011 37.8354 9.35189 37.5929C8.91821 37.3512 8.556 36.9994 8.30189 36.5729L4.91489 30.9839C4.56278 30.4204 4.42823 29.7479 4.53648 29.0924C4.64473 28.4368 4.98833 27.8432 5.50289 27.4229L8.21189 23.9999V22.9379L5.49989 20.5229C4.99908 20.105 4.66446 19.5216 4.5566 18.8783C4.44874 18.235 4.57478 17.5743 4.91189 17.0159L8.29889 11.4299C8.55259 11.0023 8.91483 10.6494 9.34889 10.4069C9.78711 10.1644 10.2791 10.0355 10.7799 10.0319C11.0884 10.0124 11.398 10.0408 11.6979 10.1159L15.1119 11.3159C15.7219 10.9259 16.3539 10.5769 17.0079 10.2689L17.7399 6.74989C17.874 6.10299 18.2333 5.52468 18.7539 5.11789C19.2822 4.70433 19.9371 4.48601 20.6079 4.49989H27.3219C27.9927 4.48601 28.6476 4.70433 29.1759 5.11789C29.7009 5.52889 30.0609 6.10789 30.1899 6.74989L30.9219 10.2689C31.5719 10.5789 32.1989 10.9289 32.8029 11.3189L36.2889 10.1729C36.6758 10.047 37.0846 10.0028 37.4894 10.0431C37.8943 10.0834 38.2864 10.2073 38.6409 10.4069C39.0759 10.6529 39.4359 11.0069 39.6909 11.4269L43.0749 17.0159C43.4317 17.5746 43.5731 18.244 43.4727 18.8992C43.3722 19.5545 43.0367 20.1508 42.5289 20.5769L39.7749 22.9229V25.0619Z" stroke="#F98A26" stroke-width="3"/>
<path d="M31.5 24C31.5 25.9891 30.7098 27.8968 29.3033 29.3033C27.8968 30.7098 25.9891 31.5 24 31.5C22.0109 31.5 20.1032 30.7098 18.6967 29.3033C17.2902 27.8968 16.5 25.9891 16.5 24C16.5 22.0109 17.2902 20.1032 18.6967 18.6967C20.1032 17.2902 22.0109 16.5 24 16.5C25.9891 16.5 27.8968 17.2902 29.3033 18.6967C30.7098 20.1032 31.5 22.0109 31.5 24Z" stroke="#F98A26" stroke-width="3"/>
</svg>
