<svg width="20" height="18" viewBox="0 0 20 18" fill="none" xmlns="http://www.w3.org/2000/svg">
<path d="M17.8697 14.6206C18.2896 14.2012 18.5756 13.6667 18.6916 13.0846C18.8077 12.5026 18.7485 11.8992 18.5215 11.3509C18.2945 10.8025 17.91 10.3338 17.4166 10.004C16.9232 9.67417 16.343 9.49814 15.7495 9.49814C15.156 9.49814 14.5759 9.67417 14.0825 10.004C13.5891 10.3338 13.2045 10.8025 12.9776 11.3509C12.7506 11.8992 12.6914 12.5026 12.8074 13.0846C12.9234 13.6667 13.2095 14.2012 13.6294 14.6206C12.8407 15.1238 12.2686 15.9036 12.0253 16.8069C11.9741 16.9991 12.0013 17.2037 12.101 17.3759C12.2007 17.548 12.3647 17.6735 12.5569 17.7247C12.6199 17.7413 12.6848 17.7498 12.75 17.75C12.9154 17.7499 13.0761 17.6952 13.2072 17.5943C13.3383 17.4934 13.4323 17.3521 13.4747 17.1922C13.74 16.1956 14.6756 15.5 15.75 15.5C16.8244 15.5 17.76 16.1956 18.0253 17.1922C18.0491 17.289 18.0919 17.3802 18.1513 17.4603C18.2107 17.5404 18.2854 17.6078 18.3712 17.6587C18.457 17.7096 18.552 17.7428 18.6508 17.7565C18.7496 17.7702 18.8501 17.764 18.9464 17.7384C19.0428 17.7128 19.1331 17.6682 19.212 17.6073C19.291 17.5464 19.357 17.4703 19.4061 17.3836C19.4553 17.2968 19.4867 17.2011 19.4985 17.1021C19.5103 17.0031 19.5022 16.9027 19.4747 16.8069C19.2312 15.9034 18.6587 15.1236 17.8697 14.6206ZM15.75 11C16.0467 11 16.3367 11.088 16.5834 11.2528C16.83 11.4176 17.0223 11.6519 17.1358 11.926C17.2494 12.2001 17.2791 12.5017 17.2212 12.7926C17.1633 13.0836 17.0204 13.3509 16.8107 13.5607C16.6009 13.7704 16.3336 13.9133 16.0426 13.9712C15.7517 14.0291 15.4501 13.9994 15.176 13.8858C14.9019 13.7723 14.6676 13.58 14.5028 13.3334C14.338 13.0867 14.25 12.7967 14.25 12.5C14.25 12.1022 14.408 11.7206 14.6893 11.4393C14.9706 11.158 15.3522 11 15.75 11ZM19.5 4.25V7.25C19.5 7.44891 19.421 7.63968 19.2803 7.78033C19.1397 7.92098 18.9489 8 18.75 8C18.5511 8 18.3603 7.92098 18.2197 7.78033C18.079 7.63968 18 7.44891 18 7.25V4.25H10.0003C9.67589 4.2492 9.36033 4.14401 9.10031 3.95L6.49969 2H1.5V14.75H9C9.19891 14.75 9.38968 14.829 9.53033 14.9697C9.67098 15.1103 9.75 15.3011 9.75 15.5C9.75 15.6989 9.67098 15.8897 9.53033 16.0303C9.38968 16.171 9.19891 16.25 9 16.25H1.5C1.10218 16.25 0.720644 16.092 0.43934 15.8107C0.158035 15.5294 0 15.1478 0 14.75V2C0 1.60218 0.158035 1.22064 0.43934 0.93934C0.720644 0.658035 1.10218 0.5 1.5 0.5H6.49969C6.82411 0.500805 7.13967 0.605989 7.39969 0.8L10.0003 2.75H18C18.3978 2.75 18.7794 2.90804 19.0607 3.18934C19.342 3.47064 19.5 3.85218 19.5 4.25Z" fill="#005C73"/>
</svg>
