<svg width="40" height="35" viewBox="0 0 40 35" fill="none" xmlns="http://www.w3.org/2000/svg">
<path d="M9.5 0V4.851L4.274 1.7145L2.726 4.2855L5.585 6H0.5V34.5H9.5V31.5H3.5V9H15.5405C16.79 8.07 18.326 7.5 20 7.5C20.528 7.5 21.023 7.563 21.5 7.653V6H16.4165L19.274 4.2855L17.726 1.7145L12.5 4.851V0H9.5ZM20 10.5C17.5325 10.5 15.5 12.5325 15.5 15C15.5 15.528 15.6125 16.026 15.782 16.5H12.5V34.5H39.5V16.5H36.218C36.3997 16.0205 36.4951 15.5127 36.5 15C36.5 12.5325 34.4675 10.5 32 10.5C29.375 10.5 27.593 12.492 26.4215 14.157C26.264 14.3775 26.1395 14.598 26 14.8155C25.859 14.598 25.736 14.3805 25.5785 14.1555C24.4055 12.492 22.625 10.5 20 10.5ZM20 13.5C20.9375 13.5 22.157 14.5065 23.0945 15.8445C23.3225 16.1715 23.288 16.191 23.4695 16.503H20C19.151 16.503 18.5 15.852 18.5 15.003C18.4966 14.8049 18.533 14.6082 18.6071 14.4245C18.6812 14.2408 18.7915 14.0738 18.9315 13.9336C19.0714 13.7934 19.2381 13.6828 19.4217 13.6083C19.6053 13.5338 19.8019 13.497 20 13.5ZM32 13.5C32.849 13.5 33.5 14.151 33.5 15C33.5 15.849 32.849 16.5 32 16.5H28.5305C28.7135 16.1895 28.6775 16.17 28.9055 15.843C29.8445 14.508 31.0625 13.5 32 13.5ZM15.5 19.5H24.5V31.5H15.5V19.5ZM27.5 19.5H36.5V31.5H27.5V19.5Z" fill="#9AD3BC"/>
</svg>
