<svg width="69" height="88" viewBox="0 0 69 88" fill="none" xmlns="http://www.w3.org/2000/svg">
<g filter="url(#filter0_dddd_411_12710)">
<rect x="3" y="14.6191" width="50" height="50" rx="25" transform="rotate(-17 3 14.6191)" fill="#9E9AD3"/>
<g clip-path="url(#clip0_411_12710)">
<path d="M43.5285 28.2305L40.3473 27.3965C40.3905 27.3758 40.4343 27.3563 40.4771 27.3336C40.8167 27.1611 41.117 26.9204 41.3593 26.6266C41.6016 26.3327 41.7807 25.992 41.8853 25.6258C42.0029 25.226 42.0375 24.8064 41.987 24.3927C41.9365 23.9791 41.802 23.5801 41.5918 23.2203C41.3815 22.8604 41.0999 22.5474 40.7643 22.3004C40.4287 22.0533 40.0461 21.8775 39.6401 21.7836C39.2695 21.6949 38.8847 21.6837 38.5096 21.7506C38.1345 21.8176 37.7772 21.9612 37.4602 22.1726C37.0185 22.4763 36.627 22.8472 36.2998 23.2717C36.2229 22.7412 36.0637 22.226 35.8279 21.7446C35.6553 21.4049 35.4145 21.1044 35.1205 20.8621C34.8265 20.6197 34.4856 20.4407 34.1192 20.3361C33.7193 20.2187 33.2997 20.1842 32.8861 20.2348C32.4724 20.2855 32.0735 20.4201 31.7137 20.6304C31.354 20.8408 31.041 21.1225 30.7941 21.4582C30.5471 21.7939 30.3714 22.1765 30.2776 22.5825C30.1891 22.953 30.178 23.3377 30.245 23.7126C30.312 24.0875 30.4556 24.4446 30.6668 24.7615C30.6934 24.8005 30.7221 24.839 30.7491 24.88L27.5679 24.046C27.1831 23.9451 26.774 24.0012 26.4305 24.202C26.0871 24.4027 25.8374 24.7317 25.7365 25.1165L24.9757 28.0184C24.8748 28.4033 24.9309 28.8124 25.1317 29.1559C25.3325 29.4993 25.6615 29.7489 26.0463 29.8498L24.5246 35.6537C24.4237 36.0385 24.4798 36.4476 24.6806 36.7911C24.8814 37.1345 25.2104 37.3841 25.5952 37.485L31.0363 38.9116C31.1325 38.9368 31.2348 38.9228 31.3206 38.8726C31.4065 38.8224 31.4689 38.7401 31.4941 38.6439L33.6815 30.3009L26.4267 28.3989L27.1875 25.4969L34.4423 27.399L33.6815 30.3009L35.1324 30.6813L35.8933 27.7794L43.1481 29.6815L42.3872 32.5834L35.1324 30.6813L32.9451 39.0244C32.9199 39.1206 32.9339 39.2228 32.9841 39.3087C33.0343 39.3946 33.1165 39.457 33.2127 39.4822L38.6538 40.9087C39.0386 41.0096 39.4478 40.9535 39.7912 40.7528C40.1347 40.552 40.3843 40.223 40.4852 39.8382L42.0068 34.0343C42.3917 34.1352 42.8008 34.0791 43.1442 33.8784C43.4877 33.6776 43.7373 33.3486 43.8382 32.9638L44.599 30.0619C44.6999 29.6771 44.6438 29.2679 44.443 28.9245C44.2423 28.581 43.9133 28.3314 43.5285 28.2305ZM31.9134 23.9253C31.8167 23.7772 31.7516 23.6107 31.7223 23.4362C31.693 23.2617 31.7 23.0831 31.7431 22.9115C31.791 22.7098 31.8788 22.5197 32.0012 22.3523C32.1236 22.185 32.2781 22.0437 32.4558 21.9369C32.6335 21.83 32.8307 21.7597 33.0359 21.73C33.2411 21.7003 33.4501 21.7119 33.6508 21.764L33.6952 21.7757C33.8659 21.8224 34.025 21.9039 34.1627 22.015C34.3003 22.1262 34.4135 22.2646 34.4951 22.4215C35.0306 23.4807 34.9252 24.9767 34.7884 25.8828C33.9279 25.5574 32.5736 24.9154 31.9134 23.9253ZM39.803 25.9938C38.7427 26.5299 37.244 26.4239 36.3342 26.2862C36.692 25.3614 37.3572 24.0442 38.2964 23.4191C38.4445 23.3224 38.611 23.2573 38.7855 23.228C38.96 23.1987 39.1386 23.2058 39.3102 23.2488L39.3547 23.2604C39.5549 23.3143 39.7424 23.4075 39.9061 23.5348C40.0698 23.662 40.2065 23.8206 40.3082 24.0013C40.4098 24.1821 40.4744 24.3813 40.498 24.5873C40.5217 24.7933 40.504 25.0019 40.446 25.201C40.3985 25.3702 40.3168 25.5278 40.2058 25.6641C40.0949 25.8004 39.9572 25.9125 39.8012 25.9933L39.803 25.9938Z" fill="#003B4A"/>
</g>
</g>
<defs>
<filter id="filter0_dddd_411_12710" x="-6" y="-2" width="80.4336" height="95.4336" filterUnits="userSpaceOnUse" color-interpolation-filters="sRGB">
<feFlood flood-opacity="0" result="BackgroundImageFix"/>
<feColorMatrix in="SourceAlpha" type="matrix" values="0 0 0 0 0 0 0 0 0 0 0 0 0 0 0 0 0 0 127 0" result="hardAlpha"/>
<feOffset dy="1"/>
<feGaussianBlur stdDeviation="1.5"/>
<feColorMatrix type="matrix" values="0 0 0 0 0.54902 0 0 0 0 0.54902 0 0 0 0 0.54902 0 0 0 0.1 0"/>
<feBlend mode="normal" in2="BackgroundImageFix" result="effect1_dropShadow_411_12710"/>
<feColorMatrix in="SourceAlpha" type="matrix" values="0 0 0 0 0 0 0 0 0 0 0 0 0 0 0 0 0 0 127 0" result="hardAlpha"/>
<feOffset dy="6"/>
<feGaussianBlur stdDeviation="3"/>
<feColorMatrix type="matrix" values="0 0 0 0 0.54902 0 0 0 0 0.54902 0 0 0 0 0.54902 0 0 0 0.09 0"/>
<feBlend mode="normal" in2="effect1_dropShadow_411_12710" result="effect2_dropShadow_411_12710"/>
<feColorMatrix in="SourceAlpha" type="matrix" values="0 0 0 0 0 0 0 0 0 0 0 0 0 0 0 0 0 0 127 0" result="hardAlpha"/>
<feOffset dy="12"/>
<feGaussianBlur stdDeviation="3.5"/>
<feColorMatrix type="matrix" values="0 0 0 0 0.54902 0 0 0 0 0.54902 0 0 0 0 0.54902 0 0 0 0.05 0"/>
<feBlend mode="normal" in2="effect2_dropShadow_411_12710" result="effect3_dropShadow_411_12710"/>
<feColorMatrix in="SourceAlpha" type="matrix" values="0 0 0 0 0 0 0 0 0 0 0 0 0 0 0 0 0 0 127 0" result="hardAlpha"/>
<feOffset dy="22"/>
<feGaussianBlur stdDeviation="4.5"/>
<feColorMatrix type="matrix" values="0 0 0 0 0.54902 0 0 0 0 0.54902 0 0 0 0 0.54902 0 0 0 0.01 0"/>
<feBlend mode="normal" in2="effect3_dropShadow_411_12710" result="effect4_dropShadow_411_12710"/>
<feBlend mode="normal" in="SourceGraphic" in2="effect4_dropShadow_411_12710" result="shape"/>
</filter>
<clipPath id="clip0_411_12710">
<rect width="24" height="24" fill="white" transform="translate(25.6523 16.5664) rotate(14.6911)"/>
</clipPath>
</defs>
</svg>
