<svg width="20" height="20" viewBox="0 0 20 20" fill="none" xmlns="http://www.w3.org/2000/svg">
  <path d="M19.805 10.2303C19.805 9.55028 19.745 8.90028 19.725 8.27028H10.205V12.5103H15.625C15.305 13.9003 14.525 15.0703 13.425 15.8203V18.8203H17.165C19.085 17.0403 20.205 14.5803 20.205 10.2303Z" fill="#4285F4"/>
  <path d="M10.205 20.0003C12.805 20.0003 15.085 19.1403 16.965 17.0403L13.225 14.8203C12.485 15.3403 11.485 15.6703 10.205 15.6703C7.885 15.6703 5.925 14.1503 5.125 12.0703H1.285V15.1203C3.065 18.6103 6.405 20.0003 10.205 20.0003Z" fill="#34A853"/>
  <path d="M5.125 12.0703C4.925 11.4703 4.825 10.8203 4.825 10.1503C4.825 9.48028 4.925 8.83028 5.125 8.23028V5.18028H1.285C0.465 6.73028 0.005 8.38028 0.005 10.1503C0.005 11.9203 0.465 13.5703 1.285 15.1203L5.125 12.0703Z" fill="#FBBC05"/>
  <path d="M10.205 4.63028C11.605 4.63028 12.805 5.15028 13.725 6.18028L16.965 2.94028C15.085 1.14028 12.805 0.30028 10.205 0.30028C6.405 0.30028 3.065 1.69028 1.285 5.18028L5.125 8.23028C5.925 6.15028 7.885 4.63028 10.205 4.63028Z" fill="#EA4335"/>
</svg>
