<svg width="16" height="16" viewBox="0 0 16 16" fill="none" xmlns="http://www.w3.org/2000/svg">
<path d="M15.5649 7.53022C15.7618 7.32897 15.8992 7.07726 15.9618 6.80293C16.0244 6.52859 16.0098 6.2423 15.9197 5.97571C15.8386 5.7211 15.6889 5.49368 15.4871 5.31829C15.2852 5.14291 15.039 5.02633 14.7753 4.98129L11.1759 4.40978C11.1236 4.39988 11.0745 4.37757 11.0327 4.34475C10.9909 4.31193 10.9576 4.26955 10.9356 4.22118L9.3047 0.843553C9.18921 0.591854 9.00379 0.378562 8.77048 0.229027C8.53717 0.0794914 8.26578 0 7.98856 0C7.71133 0 7.43994 0.0794914 7.20663 0.229027C6.97332 0.378562 6.7879 0.591854 6.67241 0.843553L5.06444 4.24404C5.04244 4.29241 5.00912 4.33479 4.9673 4.36761C4.92547 4.40044 4.87636 4.42274 4.8241 4.43264L1.22474 5.00415C0.961027 5.04919 0.71479 5.16577 0.512947 5.34115C0.311103 5.51654 0.161423 5.74396 0.0802682 5.99857C-0.00984668 6.26517 -0.0244026 6.55145 0.0382094 6.82579C0.100821 7.10012 0.238163 7.35183 0.435054 7.55308L3.03872 10.1992C3.07943 10.2432 3.10939 10.296 3.12626 10.3535C3.14314 10.411 3.14647 10.4716 3.136 10.5306L2.50082 14.2512C2.45139 14.5305 2.48274 14.8181 2.59119 15.0803C2.69964 15.3425 2.88069 15.5683 3.11311 15.7314C3.35513 15.9047 3.64508 15.9985 3.94285 16C4.1831 16.0002 4.41944 15.9392 4.62954 15.8228L7.85122 14.0569C7.89257 14.0316 7.94009 14.0182 7.98856 14.0182C8.03702 14.0182 8.08455 14.0316 8.12589 14.0569L11.3476 15.8228C11.5832 15.952 11.8507 16.012 12.119 15.9958C12.3873 15.9796 12.6456 15.8879 12.864 15.7314C13.0964 15.5683 13.2775 15.3425 13.3859 15.0803C13.4944 14.8181 13.5257 14.5305 13.4763 14.2512L12.864 10.5078C12.8535 10.4488 12.8569 10.3882 12.8737 10.3307C12.8906 10.2732 12.9206 10.2203 12.9613 10.1763L15.5649 7.53022ZM11.731 10.6907L12.349 14.4341C12.3617 14.5023 12.3551 14.5727 12.3298 14.6374C12.3045 14.702 12.2616 14.7583 12.2059 14.7998C12.1607 14.8316 12.1067 14.8486 12.0514 14.8486C11.9961 14.8486 11.9422 14.8316 11.8969 14.7998L8.67524 13.051C8.46469 12.936 8.22855 12.8757 7.98856 12.8757C7.74856 12.8757 7.51242 12.936 7.30187 13.051L4.08019 14.817C4.03435 14.8472 3.98062 14.8633 3.92569 14.8633C3.87075 14.8633 3.81703 14.8472 3.77118 14.817C3.71551 14.7754 3.67259 14.7192 3.64731 14.6545C3.62202 14.5899 3.61538 14.5194 3.62813 14.4512L4.24614 10.7078C4.28454 10.4718 4.2673 10.2301 4.19578 10.0019C4.12425 9.77373 4.00042 9.56536 3.83413 9.39334L1.22474 6.73011C1.17214 6.68073 1.13457 6.61752 1.11634 6.54776C1.09812 6.478 1.09999 6.40451 1.12174 6.33577C1.13914 6.27851 1.17173 6.22703 1.21606 6.18679C1.26039 6.14654 1.3148 6.11902 1.37352 6.10716L4.97288 5.56423C5.21084 5.52699 5.436 5.43194 5.62857 5.28745C5.82114 5.14295 5.97523 4.95343 6.07729 4.73554L7.68527 1.30648C7.7061 1.2473 7.74482 1.19604 7.79607 1.15978C7.84732 1.12351 7.90858 1.10404 7.97139 1.10404C8.0342 1.10404 8.09546 1.12351 8.14671 1.15978C8.19796 1.19604 8.23667 1.2473 8.25751 1.30648L9.86549 4.73554C9.96755 4.95343 10.1216 5.14295 10.3142 5.28745C10.5068 5.43194 10.7319 5.52699 10.9699 5.56423L14.5693 6.10716C14.628 6.11902 14.6824 6.14654 14.7267 6.18679C14.771 6.22703 14.8036 6.27851 14.821 6.33577C14.8456 6.40245 14.8512 6.47465 14.837 6.54429C14.8229 6.61394 14.7896 6.67828 14.7409 6.73011L12.1315 9.3762C11.9673 9.54926 11.8456 9.75812 11.776 9.98626C11.7065 10.2144 11.6911 10.4556 11.731 10.6907Z" fill="#495057"/>
</svg>
