<svg width="56" height="56" viewBox="0 0 56 56" fill="none" xmlns="http://www.w3.org/2000/svg">
<g clip-path="url(#clip0_171_3845)">
<path d="M29.704 28.5524C64.7653 39.8952 50.7228 59.1422 29.0533 29.4437C50.7228 59.1422 28 66.4939 28 29.7842C28 66.4939 5.27913 59.1422 26.9467 29.4437C5.27913 59.1422 -8.76533 39.8952 26.296 28.5524C-8.76533 39.8952 -8.76533 16.0986 26.296 27.4491C-8.76533 16.1044 5.27913 -3.14264 26.9467 26.5579C5.27913 -3.14264 28 -10.4943 28 26.2173C28 -10.4943 50.7228 -3.14264 29.0533 26.5579C50.7228 -3.14264 64.7653 16.1044 29.704 27.4491C64.7653 16.1044 64.7653 39.8952 29.704 28.5524Z" fill="url(#paint0_linear_171_3845)"/>
</g>
<defs>
<linearGradient id="paint0_linear_171_3845" x1="35" y1="53.1057" x2="31.2147" y2="0.218042" gradientUnits="userSpaceOnUse">
<stop offset="0.572115" stop-color="#9AD3BC"/>
</linearGradient>
<clipPath id="clip0_171_3845">
<rect width="56" height="56" fill="white"/>
</clipPath>
</defs>
</svg>
