<svg width="69" height="91" viewBox="0 0 69 91" fill="none" xmlns="http://www.w3.org/2000/svg">
<g filter="url(#filter0_dddd_71_2027)">
<rect x="0.847412" y="46.1624" width="50" height="50" rx="25" transform="rotate(-65 0.847412 46.1624)" fill="#F98A26"/>
<g clip-path="url(#clip0_71_2027)">
<path d="M43.3824 31.0841L40.2011 30.25C40.2443 30.2294 40.2882 30.2099 40.331 30.1872C40.6706 30.0147 40.9709 29.774 41.2132 29.4801C41.4555 29.1863 41.6346 28.8456 41.7392 28.4794C41.8568 28.0796 41.8914 27.66 41.8409 27.2463C41.7904 26.8326 41.6559 26.4336 41.4456 26.0738C41.2354 25.714 40.9538 25.401 40.6182 25.1539C40.2826 24.9069 39.9 24.731 39.494 24.6372C39.1234 24.5485 38.7385 24.5373 38.3634 24.6042C37.9883 24.6711 37.6311 24.8148 37.3141 25.0261C36.8724 25.3299 36.4809 25.7007 36.1536 26.1253C36.0768 25.5948 35.9175 25.0795 35.6817 24.5982C35.5092 24.2585 35.2684 23.958 34.9744 23.7157C34.6803 23.4733 34.3395 23.2943 33.9731 23.1897C33.5732 23.0723 33.1536 23.0378 32.7399 23.0884C32.3263 23.139 31.9273 23.2736 31.5676 23.484C31.2078 23.6944 30.8949 23.9761 30.6479 24.3117C30.401 24.6474 30.2253 25.03 30.1315 25.4361C30.043 25.8065 30.0319 26.1913 30.0989 26.5662C30.1658 26.9411 30.3094 27.2982 30.5207 27.6151C30.5473 27.6541 30.576 27.6926 30.603 27.7336L27.4218 26.8996C27.037 26.7987 26.6278 26.8548 26.2844 27.0555C25.9409 27.2563 25.6913 27.5853 25.5904 27.9701L24.8296 30.872C24.7287 31.2568 24.7848 31.666 24.9856 32.0094C25.1864 32.3529 25.5153 32.6025 25.9002 32.7034L24.3785 38.5072C24.2776 38.8921 24.3337 39.3012 24.5345 39.6446C24.7353 39.9881 25.0642 40.2377 25.4491 40.3386L30.8902 41.7652C30.9864 41.7904 31.0886 41.7764 31.1745 41.7262C31.2604 41.676 31.3228 41.5937 31.348 41.4975L33.5354 33.1545L26.2806 31.2524L27.0414 28.3505L34.2962 30.2526L33.5354 33.1545L34.9863 33.5349L35.7472 30.633L43.002 32.535L42.2411 35.437L34.9863 33.5349L32.799 41.8779C32.7737 41.9741 32.7878 42.0764 32.838 42.1623C32.8881 42.2481 32.9704 42.3105 33.0666 42.3358L38.5077 43.7623C38.8925 43.8632 39.3017 43.8071 39.6451 43.6063C39.9886 43.4056 40.2382 43.0766 40.3391 42.6918L41.8607 36.8879C42.2455 36.9888 42.6547 36.9327 42.9981 36.7319C43.3416 36.5312 43.5912 36.2022 43.6921 35.8174L44.4529 32.9155C44.5538 32.5306 44.4977 32.1215 44.2969 31.7781C44.0962 31.4346 43.7672 31.185 43.3824 31.0841ZM31.7673 26.7789C31.6705 26.6308 31.6055 26.4643 31.5762 26.2898C31.5469 26.1153 31.5539 25.9367 31.5969 25.7651C31.6449 25.5634 31.7327 25.3733 31.8551 25.2059C31.9775 25.0385 32.132 24.8973 32.3097 24.7904C32.4874 24.6836 32.6846 24.6132 32.8898 24.5836C33.095 24.5539 33.304 24.5655 33.5047 24.6176L33.5491 24.6293C33.7198 24.676 33.8789 24.7575 34.0166 24.8686C34.1542 24.9797 34.2674 25.1181 34.349 25.2751C34.8844 26.3343 34.7791 27.8302 34.6423 28.7364C33.7817 28.411 32.4274 27.769 31.7673 26.7789ZM39.6569 28.8474C38.5966 29.3835 37.0979 29.2775 36.1881 29.1397C36.5459 28.2149 37.211 26.8977 38.1503 26.2727C38.2984 26.176 38.4649 26.1109 38.6394 26.0816C38.8139 26.0523 38.9925 26.0594 39.1641 26.1024L39.2085 26.114C39.4088 26.1679 39.5963 26.2611 39.76 26.3883C39.9237 26.5156 40.0604 26.6742 40.1621 26.8549C40.2637 27.0356 40.3282 27.2348 40.3519 27.4408C40.3756 27.6468 40.3579 27.8555 40.2999 28.0546C40.2524 28.2237 40.1706 28.3814 40.0597 28.5177C39.9488 28.654 39.8111 28.766 39.6551 28.8469L39.6569 28.8474Z" fill="white"/>
</g>
</g>
<defs>
<filter id="filter0_dddd_71_2027" x="-8.15259" y="-1.15298" width="84.4463" height="99.4463" filterUnits="userSpaceOnUse" color-interpolation-filters="sRGB">
<feFlood flood-opacity="0" result="BackgroundImageFix"/>
<feColorMatrix in="SourceAlpha" type="matrix" values="0 0 0 0 0 0 0 0 0 0 0 0 0 0 0 0 0 0 127 0" result="hardAlpha"/>
<feOffset dy="1"/>
<feGaussianBlur stdDeviation="1.5"/>
<feColorMatrix type="matrix" values="0 0 0 0 0.54902 0 0 0 0 0.54902 0 0 0 0 0.54902 0 0 0 0.1 0"/>
<feBlend mode="normal" in2="BackgroundImageFix" result="effect1_dropShadow_71_2027"/>
<feColorMatrix in="SourceAlpha" type="matrix" values="0 0 0 0 0 0 0 0 0 0 0 0 0 0 0 0 0 0 127 0" result="hardAlpha"/>
<feOffset dy="6"/>
<feGaussianBlur stdDeviation="3"/>
<feColorMatrix type="matrix" values="0 0 0 0 0.54902 0 0 0 0 0.54902 0 0 0 0 0.54902 0 0 0 0.09 0"/>
<feBlend mode="normal" in2="effect1_dropShadow_71_2027" result="effect2_dropShadow_71_2027"/>
<feColorMatrix in="SourceAlpha" type="matrix" values="0 0 0 0 0 0 0 0 0 0 0 0 0 0 0 0 0 0 127 0" result="hardAlpha"/>
<feOffset dy="13"/>
<feGaussianBlur stdDeviation="4"/>
<feColorMatrix type="matrix" values="0 0 0 0 0.54902 0 0 0 0 0.54902 0 0 0 0 0.54902 0 0 0 0.05 0"/>
<feBlend mode="normal" in2="effect2_dropShadow_71_2027" result="effect3_dropShadow_71_2027"/>
<feColorMatrix in="SourceAlpha" type="matrix" values="0 0 0 0 0 0 0 0 0 0 0 0 0 0 0 0 0 0 127 0" result="hardAlpha"/>
<feOffset dy="22"/>
<feGaussianBlur stdDeviation="4.5"/>
<feColorMatrix type="matrix" values="0 0 0 0 0.54902 0 0 0 0 0.54902 0 0 0 0 0.54902 0 0 0 0.01 0"/>
<feBlend mode="normal" in2="effect3_dropShadow_71_2027" result="effect4_dropShadow_71_2027"/>
<feBlend mode="normal" in="SourceGraphic" in2="effect4_dropShadow_71_2027" result="shape"/>
</filter>
<clipPath id="clip0_71_2027">
<rect width="24" height="24" fill="white" transform="translate(25.5062 19.4192) rotate(14.6911)"/>
</clipPath>
</defs>
</svg>
