<svg width="68" height="88" viewBox="0 0 68 88" fill="none" xmlns="http://www.w3.org/2000/svg">
<g filter="url(#filter0_dddd_71_2030)">
<rect x="2.7832" y="15.4017" width="50" height="50" rx="25" transform="rotate(-17 2.7832 15.4017)" fill="#9AD3BC"/>
<g clip-path="url(#clip0_71_2030)">
<path d="M37.5451 23.0735L35.3934 23.7313L34.7356 21.5796C34.5611 21.009 34.1671 20.531 33.6402 20.2508C33.1133 19.9707 32.4967 19.9113 31.9261 20.0858L29.0572 20.9629C28.4865 21.1374 28.0085 21.5314 27.7284 22.0583C27.4482 22.5852 27.3888 23.2018 27.5633 23.7724L28.2212 25.9241L26.0695 26.5819C25.689 26.6983 25.3704 26.9609 25.1836 27.3122C24.9968 27.6635 24.9573 28.0745 25.0736 28.455L29.0206 41.3651C29.1369 41.7455 29.3996 42.0642 29.7508 42.2509C30.1021 42.4377 30.5132 42.4773 30.8936 42.361L32.3281 41.9224L32.7666 43.3569C32.8248 43.5471 32.9561 43.7064 33.1317 43.7998C33.3074 43.8932 33.5129 43.913 33.7031 43.8548C33.8933 43.7967 34.0527 43.6653 34.1461 43.4897C34.2394 43.3141 34.2592 43.1085 34.2011 42.9183L33.7625 41.4839L39.5003 39.7296L39.9389 41.1641C39.9971 41.3543 40.1284 41.5136 40.304 41.607C40.4797 41.7004 40.6852 41.7202 40.8754 41.662C41.0656 41.6039 41.225 41.4725 41.3183 41.2969C41.4117 41.1213 41.4315 40.9157 41.3734 40.7255L40.9348 39.2911L42.3693 38.8525C42.7497 38.7362 43.0684 38.4735 43.2551 38.1223C43.4419 37.771 43.4815 37.3599 43.3652 36.9795L39.4181 24.0694C39.3018 23.6889 39.0391 23.3703 38.6879 23.1835C38.3366 22.9968 37.9256 22.9572 37.5451 23.0735ZM32.8854 38.6149C32.9436 38.8052 32.9238 39.0107 32.8304 39.1863C32.737 39.362 32.5777 39.4933 32.3874 39.5515C32.1972 39.6096 31.9917 39.5898 31.8161 39.4964C31.6404 39.4031 31.5091 39.2437 31.4509 39.0535L28.381 29.0123C28.3229 28.8221 28.3427 28.6165 28.4361 28.4409C28.5294 28.2653 28.6888 28.134 28.879 28.0758C29.0692 28.0176 29.2747 28.0374 29.4504 28.1308C29.626 28.2242 29.7573 28.3835 29.8155 28.5737L32.8854 38.6149ZM36.4715 37.5186C36.5297 37.7088 36.5099 37.9143 36.4165 38.0899C36.3231 38.2656 36.1638 38.3969 35.9736 38.4551C35.7834 38.5132 35.5778 38.4934 35.4022 38.4C35.2266 38.3067 35.0952 38.1473 35.0371 37.9571L31.9672 27.9159C31.909 27.7257 31.9288 27.5202 32.0222 27.3445C32.1156 27.1689 32.2749 27.0376 32.4651 26.9794C32.6554 26.9212 32.8609 26.941 33.0365 27.0344C33.2121 27.1278 33.3435 27.2871 33.4016 27.4774L36.4715 37.5186ZM33.959 24.1699L29.6556 25.4856L28.9978 23.3339C28.9396 23.1436 28.9594 22.9381 29.0528 22.7625C29.1462 22.5869 29.3055 22.4555 29.4957 22.3974L32.3646 21.5202C32.5549 21.4621 32.7604 21.4819 32.936 21.5753C33.1116 21.6686 33.243 21.828 33.3011 22.0182L33.959 24.1699ZM40.0577 36.4222C40.1158 36.6124 40.0961 36.8179 40.0027 36.9935C39.9093 37.1692 39.75 37.3005 39.5597 37.3587C39.3695 37.4168 39.164 37.397 38.9884 37.3036C38.8127 37.2103 38.6814 37.0509 38.6232 36.8607L35.5533 26.8195C35.4952 26.6293 35.515 26.4238 35.6083 26.2481C35.7017 26.0725 35.8611 25.9412 36.0513 25.883C36.2415 25.8249 36.447 25.8446 36.6227 25.938C36.7983 26.0314 36.9296 26.1907 36.9878 26.381L40.0577 36.4222Z" fill="#003B4A"/>
</g>
</g>
<defs>
<filter id="filter0_dddd_71_2030" x="-6.2168" y="-1.21692" width="80.4338" height="95.4338" filterUnits="userSpaceOnUse" color-interpolation-filters="sRGB">
<feFlood flood-opacity="0" result="BackgroundImageFix"/>
<feColorMatrix in="SourceAlpha" type="matrix" values="0 0 0 0 0 0 0 0 0 0 0 0 0 0 0 0 0 0 127 0" result="hardAlpha"/>
<feOffset dy="1"/>
<feGaussianBlur stdDeviation="1.5"/>
<feColorMatrix type="matrix" values="0 0 0 0 0.54902 0 0 0 0 0.54902 0 0 0 0 0.54902 0 0 0 0.1 0"/>
<feBlend mode="normal" in2="BackgroundImageFix" result="effect1_dropShadow_71_2030"/>
<feColorMatrix in="SourceAlpha" type="matrix" values="0 0 0 0 0 0 0 0 0 0 0 0 0 0 0 0 0 0 127 0" result="hardAlpha"/>
<feOffset dy="6"/>
<feGaussianBlur stdDeviation="3"/>
<feColorMatrix type="matrix" values="0 0 0 0 0.54902 0 0 0 0 0.54902 0 0 0 0 0.54902 0 0 0 0.09 0"/>
<feBlend mode="normal" in2="effect1_dropShadow_71_2030" result="effect2_dropShadow_71_2030"/>
<feColorMatrix in="SourceAlpha" type="matrix" values="0 0 0 0 0 0 0 0 0 0 0 0 0 0 0 0 0 0 127 0" result="hardAlpha"/>
<feOffset dy="12"/>
<feGaussianBlur stdDeviation="3.5"/>
<feColorMatrix type="matrix" values="0 0 0 0 0.54902 0 0 0 0 0.54902 0 0 0 0 0.54902 0 0 0 0.05 0"/>
<feBlend mode="normal" in2="effect2_dropShadow_71_2030" result="effect3_dropShadow_71_2030"/>
<feColorMatrix in="SourceAlpha" type="matrix" values="0 0 0 0 0 0 0 0 0 0 0 0 0 0 0 0 0 0 127 0" result="hardAlpha"/>
<feOffset dy="22"/>
<feGaussianBlur stdDeviation="4.5"/>
<feColorMatrix type="matrix" values="0 0 0 0 0.54902 0 0 0 0 0.54902 0 0 0 0 0.54902 0 0 0 0.01 0"/>
<feBlend mode="normal" in2="effect3_dropShadow_71_2030" result="effect4_dropShadow_71_2030"/>
<feBlend mode="normal" in="SourceGraphic" in2="effect4_dropShadow_71_2030" result="shape"/>
</filter>
<clipPath id="clip0_71_2030">
<rect width="24" height="24" fill="white" transform="translate(19.016 24.0328) rotate(-17)"/>
</clipPath>
</defs>
</svg>
