<svg width="21" height="21" viewBox="0 0 21 21" fill="none" xmlns="http://www.w3.org/2000/svg">
<path d="M17.7907 17.9908H14.7838V13.3283C14.7838 12.2165 14.7638 10.7852 13.2199 10.7852C11.6538 10.7852 11.4142 11.9966 11.4142 13.2473V17.9905H8.40731V8.40244H11.2939V9.71275H11.3343C11.6232 9.22369 12.0407 8.82136 12.5422 8.54862C13.0437 8.27588 13.6106 8.14293 14.1824 8.16395C17.23 8.16395 17.7919 10.1488 17.7919 12.731L17.7907 17.9908ZM5.01454 7.09182C4.66942 7.09188 4.33203 6.99061 4.04504 6.80082C3.75806 6.61102 3.53437 6.34122 3.40224 6.02554C3.27012 5.70986 3.23549 5.36247 3.30276 5.02731C3.37003 4.69215 3.53616 4.38426 3.78015 4.14259C4.02414 3.90091 4.33503 3.73631 4.67351 3.66958C5.01198 3.60285 5.36283 3.63701 5.68169 3.76772C6.00056 3.89843 6.27312 4.11983 6.46491 4.40393C6.6567 4.68802 6.7591 5.02204 6.75916 5.36376C6.75921 5.59065 6.71411 5.81533 6.62645 6.02497C6.5388 6.2346 6.41032 6.42509 6.24831 6.58556C6.08631 6.74602 5.89396 6.87332 5.68227 6.96018C5.47058 7.04705 5.24369 7.09178 5.01454 7.09182ZM6.51798 17.9908H3.50796V8.40244H6.51798V17.9908ZM19.2897 0.871486H1.99701C1.60451 0.8671 1.22629 1.01719 0.945499 1.28876C0.664704 1.56033 0.504302 1.93118 0.499512 2.31981V19.5133C0.504138 19.9021 0.664446 20.2732 0.945231 20.545C1.22602 20.8169 1.60432 20.9673 1.99701 20.9631H19.2897C19.6832 20.968 20.0626 20.8181 20.3445 20.5462C20.6264 20.2744 20.7877 19.9029 20.7932 19.5133V2.31857C20.7876 1.92917 20.6261 1.5579 20.3442 1.28633C20.0623 1.01477 19.683 0.865109 19.2897 0.870245" fill="#0A66C2"/>
</svg>
