<svg width="22" height="22" viewBox="0 0 22 22" fill="none" xmlns="http://www.w3.org/2000/svg">
<path d="M6.01596 18.1758H4.7269C4.25223 18.1758 3.86752 17.7911 3.86752 17.3164V9.32422C3.86752 8.84955 4.25223 8.46484 4.7269 8.46484H6.01596C6.49063 8.46484 6.87534 8.84955 6.87534 9.32422V17.3164C6.87534 17.7911 6.49063 18.1758 6.01596 18.1758ZM7.17545 5.37093C7.17545 4.39859 6.38657 3.60938 5.41473 3.60938C4.43921 3.60938 3.65234 4.39859 3.65234 5.37093C3.65234 6.3436 4.43921 7.13281 5.41473 7.13281C6.38657 7.13281 7.17545 6.3436 7.17545 5.37093ZM18.1328 17.3164V12.8332C18.1328 10.2264 17.5821 8.29297 14.5369 8.29297C13.0736 8.29297 12.0913 9.02478 11.6904 9.7858H11.6875V9.32422C11.6875 8.84955 11.3028 8.46484 10.8281 8.46484H9.625C9.15033 8.46484 8.76562 8.84955 8.76562 9.32422V17.3164C8.76562 17.7911 9.15033 18.1758 9.625 18.1758H10.8281C11.3028 18.1758 11.6875 17.7911 11.6875 17.3164V13.3542C11.6875 12.0915 12.0089 10.8682 13.5741 10.8682C15.118 10.8682 15.168 12.3122 15.168 13.4344V17.3164C15.168 17.7911 15.5527 18.1758 16.0273 18.1758H17.2734C17.7481 18.1758 18.1328 17.7911 18.1328 17.3164ZM22 18.5625C22 18.0878 21.6153 17.7031 21.1406 17.7031C20.666 17.7031 20.2812 18.0878 20.2812 18.5625C20.2812 19.5102 19.5102 20.2812 18.5625 20.2812H3.4375C2.48984 20.2812 1.71875 19.5102 1.71875 18.5625V3.4375C1.71875 2.48984 2.48984 1.71875 3.4375 1.71875H18.5625C19.5102 1.71875 20.2812 2.48984 20.2812 3.4375V14.2227C20.2812 14.6973 20.666 15.082 21.1406 15.082C21.6153 15.082 22 14.6973 22 14.2227V3.4375C22 1.54201 20.458 0 18.5625 0H3.4375C1.54201 0 0 1.54201 0 3.4375V18.5625C0 20.458 1.54201 22 3.4375 22H18.5625C20.458 22 22 20.458 22 18.5625Z" fill="url(#paint0_linear_7088_4354)"/>
<defs>
<linearGradient id="paint0_linear_7088_4354" x1="0" y1="11" x2="22" y2="11" gradientUnits="userSpaceOnUse">
<stop stop-color="#00F2FE"/>
<stop offset="0.0208" stop-color="#03EFFE"/>
<stop offset="0.2931" stop-color="#24D2FE"/>
<stop offset="0.5538" stop-color="#3CBDFE"/>
<stop offset="0.7956" stop-color="#4AB0FE"/>
<stop offset="1" stop-color="#4FACFE"/>
</linearGradient>
</defs>
</svg>
