<svg width="49" height="48" viewBox="0 0 49 48" fill="none" xmlns="http://www.w3.org/2000/svg">
<path d="M21.9862 21.3201C21.2727 22.0298 20.8699 22.9937 20.8662 24.0001C20.8662 25.0079 21.2666 25.9744 21.9792 26.6871C22.6918 27.3997 23.6584 27.8001 24.6662 27.8001C25.6726 27.7964 26.6364 27.3936 27.3462 26.6801" stroke="#F98A26" stroke-width="3" stroke-linecap="round" stroke-linejoin="round"/>
<path d="M24.6666 12.6001C22.4119 12.6001 20.2078 13.2687 18.3331 14.5213C16.4584 15.774 14.9972 17.5544 14.1344 19.6375C13.2715 21.7206 13.0458 24.0127 13.4857 26.2241C13.9255 28.4355 15.0113 30.4668 16.6056 32.0611C18.1999 33.6554 20.2312 34.7412 22.4426 35.1811C24.654 35.6209 26.9461 35.3952 29.0292 34.5323C31.1123 33.6695 32.8927 32.2083 34.1454 30.3336C35.398 28.4589 36.0666 26.2548 36.0666 24.0001" stroke="#F98A26" stroke-width="3" stroke-linecap="round" stroke-linejoin="round"/>
<path d="M24.667 5C20.9092 5 17.2357 6.11433 14.1112 8.20208C10.9866 10.2898 8.55135 13.2572 7.11329 16.729C5.67522 20.2008 5.29896 24.0211 6.03208 27.7067C6.7652 31.3924 8.57477 34.7778 11.232 37.435C13.8892 40.0922 17.2746 41.9018 20.9603 42.6349C24.6459 43.368 28.4662 42.9918 31.938 41.5537C35.4098 40.1156 38.3772 37.6804 40.4649 34.5558C42.5527 31.4313 43.667 27.7578 43.667 24M31.717 16.952L26.567 22.1" stroke="#F98A26" stroke-width="3" stroke-linecap="round" stroke-linejoin="round"/>
<path d="M42.5474 11.6879L36.0674 12.5999L36.9794 6.11995C36.9861 6.04468 36.9702 5.96913 36.9338 5.90294C36.8973 5.83676 36.8419 5.78295 36.7747 5.74838C36.7075 5.71382 36.6316 5.70007 36.5565 5.7089C36.4815 5.71773 36.4108 5.74873 36.3534 5.79795L32.0574 10.0719C31.6162 10.5164 31.2916 11.063 31.1126 11.6632C30.9336 12.2633 30.9057 12.8984 31.0314 13.5119L31.7154 16.9519L35.1554 17.6339C35.769 17.7596 36.4041 17.7318 37.0042 17.5528C37.6044 17.3738 38.151 17.0492 38.5954 16.6079L42.8674 12.3139C42.9168 12.2565 42.9479 12.1856 42.9567 12.1103C42.9655 12.035 42.9516 11.9589 42.9167 11.8916C42.8819 11.8243 42.8277 11.7689 42.7612 11.7327C42.6947 11.6964 42.6189 11.6808 42.5434 11.6879" stroke="#F98A26" stroke-width="3" stroke-linecap="round" stroke-linejoin="round"/>
</svg>
