<svg width="14" height="16" viewBox="0 0 14 16" fill="none" xmlns="http://www.w3.org/2000/svg">
<path d="M13.988 13.472C13.9516 12.9731 13.4311 12.1332 12.4754 12.2778C12.4605 12.2796 12.057 12.3257 11.4006 12.3878C11.3424 11.5131 11.2944 8.53074 12.7014 3.43527C13.2241 1.76424 11.6721 -0.0488351 9.76949 0.00100491L2.05976 0.000973438H1.49126C1.09575 0.000973438 0.716445 0.144526 0.43678 0.400051C0.157114 0.655576 0 1.00214 0 1.36351C0 1.72488 0.157114 2.07144 0.43678 2.32697C0.716445 2.58249 1.09575 2.72605 1.49126 2.72605H2.51193C2.47286 3.54785 2.27709 4.35712 1.93343 5.11741C1.17588 7.16637 0.689338 9.29078 0.484163 11.4453C0.397412 12.4857 0.0893966 13.7684 0.968921 15.1039C1.10034 15.3614 1.30655 15.581 1.5651 15.7389C1.82366 15.8968 2.12466 15.9868 2.43534 15.9992C2.23702 16.0187 6.40867 15.6751 6.40125 15.6837C8.18777 15.52 9.98502 15.4759 11.7786 15.5519C12.0806 15.5734 12.384 15.5339 12.6674 15.4361C12.9507 15.3383 13.207 15.1847 13.418 14.9861C13.6289 14.7875 13.7894 14.5489 13.8879 14.2872C13.9864 14.0255 14.0206 13.7472 13.988 13.472ZM0.615288 1.36351C0.615449 1.15121 0.707761 0.947637 0.871977 0.797441C1.03619 0.647245 1.2589 0.562691 1.49126 0.562325H1.91097C2.25434 1.04098 2.45465 1.5934 2.49198 2.1647H1.49126C1.2589 2.16433 1.03619 2.07978 0.871976 1.92958C0.70776 1.77938 0.615448 1.57581 0.615288 1.36351ZM1.51616 14.848C0.854164 14.0176 0.966901 12.5343 1.03109 12.1052C1.1815 9.15484 2.45135 5.28476 2.5083 5.31567C3.56421 2.84967 3.04312 1.28608 2.62733 0.562325H9.76955C10.1356 0.562672 10.4967 0.639173 10.8255 0.786025C11.1543 0.932877 11.4422 1.14622 11.6674 1.40988C11.8925 1.67354 12.049 1.98058 12.1249 2.30772C12.2008 2.63486 12.1942 2.9735 12.1056 3.29795C10.6587 8.53855 10.7193 11.5391 10.7871 12.4436C8.76848 12.6196 5.34197 12.8465 2.76714 12.6445C0.873202 12.4328 1.06992 15.1072 2.99066 14.9391L3.24376 14.9102C2.57782 15.8041 1.79879 15.3756 1.51616 14.848ZM3.46092 14.3237C3.45312 14.3241 3.4461 14.3213 3.43821 14.3223L2.91443 14.3822C2.79725 14.394 2.67867 14.3813 2.56762 14.3452C2.45656 14.3091 2.35593 14.2504 2.2733 14.1736C2.19067 14.0968 2.12819 14.0038 2.09058 13.9017C2.05297 13.7996 2.0412 13.6911 2.05616 13.5843C2.06409 13.5205 2.08685 13.459 2.12289 13.404C2.15894 13.3489 2.20745 13.3015 2.26516 13.265C2.32288 13.2285 2.38848 13.2036 2.45756 13.1921C2.52665 13.1806 2.59762 13.1827 2.66574 13.1983C2.81233 13.2145 2.96209 13.22 3.11317 13.2305C3.3434 13.5561 3.46429 13.9361 3.46092 14.3237ZM12.9957 14.5854C12.8454 14.7278 12.6626 14.8381 12.4603 14.9084C12.258 14.9788 12.0412 15.0073 11.8254 14.9922C9.99697 14.9113 8.16449 14.9556 6.34332 15.1248L3.66738 15.3337C4.21517 14.7833 4.14967 13.8033 3.83053 13.2646C6.26717 13.3078 8.70438 13.2118 11.1279 12.9771C11.1432 12.9769 11.1584 12.9755 11.1735 12.973C12.0084 12.8971 12.5352 12.8368 12.5523 12.8347C13.2296 12.7598 13.3556 13.3861 13.3742 13.5116C13.4056 13.7052 13.3877 13.9027 13.3221 14.0889C13.2564 14.2751 13.1447 14.445 12.9957 14.5854Z" fill="#495057"/>
<path d="M10.5304 4H8.4696C8.34421 4.00258 8.22479 4.05639 8.13698 4.14988C8.04918 4.24337 8 4.36908 8 4.50002C8 4.63095 8.04919 4.75665 8.137 4.85014C8.22481 4.94362 8.34424 4.99743 8.46963 5H10.5304C10.6558 4.99743 10.7752 4.94362 10.863 4.85013C10.9508 4.75664 11 4.63093 11 4.5C11 4.36907 10.9508 4.24336 10.863 4.14987C10.7752 4.05638 10.6558 4.00257 10.5304 4Z" fill="#495057"/>
<path d="M4.24338 5H6.75663C6.82161 4.99745 6.8835 4.94366 6.92901 4.85016C6.97451 4.75667 7 4.63094 7 4.49999C7 4.36903 6.9745 4.24331 6.92899 4.14982C6.88349 4.05633 6.82159 4.00254 6.75661 4H4.24338C4.1784 4.00254 4.11651 4.05634 4.071 4.14983C4.02549 4.24332 4 4.36905 4 4.5C4 4.63095 4.02549 4.75668 4.071 4.85017C4.11651 4.94366 4.1784 4.99746 4.24338 5Z" fill="#495057"/>
<path d="M3.30331 12H9.69066C9.7727 12 9.85139 11.9473 9.9094 11.8536C9.96741 11.7598 10 11.6326 10 11.5C10 11.3674 9.96741 11.2402 9.9094 11.1464C9.85139 11.0527 9.7727 11 9.69066 11H3.30331C3.22232 11.0026 3.14519 11.0564 3.08848 11.1499C3.03177 11.2434 3 11.3691 3 11.5C3 11.6309 3.03177 11.7566 3.08848 11.8501C3.14519 11.9436 3.22232 11.9974 3.30331 12Z" fill="#495057"/>
</svg>
