<svg width="92" height="32" viewBox="0 0 92 32" fill="none" xmlns="http://www.w3.org/2000/svg">
<path d="M11.5164 6.07714C9.94042 6.74156 8.20788 8.61865 7.66069 10.9748C6.96771 13.9601 9.85151 15.2225 10.088 14.8086C10.3664 14.3223 9.5713 14.1578 9.40763 12.6088C9.19609 10.6083 10.1195 8.37285 11.2817 7.39202C11.4977 7.20979 11.4874 7.46342 11.4874 7.93257C11.4874 8.77151 11.4414 16.3027 11.4414 17.8745C11.4414 20.0013 11.3542 20.6729 11.1976 21.3365C11.0388 22.0091 10.7837 22.4635 10.977 22.6385C11.193 22.8343 12.1154 22.3686 12.6493 21.618C13.2896 20.7178 13.5137 19.6368 13.5539 18.4627C13.6025 17.0475 13.6005 14.8017 13.6025 13.5208C13.6045 12.346 13.6222 8.90587 13.5821 6.8378C13.5723 6.33055 12.1755 5.79836 11.5163 6.07652L11.5164 6.07714ZM67.4799 16.0304C67.4291 17.1361 67.1861 18.0003 66.8845 18.6099C66.3006 19.7901 65.0891 20.1565 64.5746 18.46C64.2943 17.5353 64.2812 15.9908 64.4828 14.7004C64.6879 13.3857 65.2608 12.3929 66.2093 12.4824C67.145 12.5709 67.5829 13.7852 67.4799 16.0304ZM51.707 22.8903C51.6943 24.7275 51.4073 26.3383 50.7916 26.8061C49.9185 27.4695 48.7449 26.9719 48.9879 25.6313C49.203 24.445 50.2198 23.2335 51.7095 21.7532C51.7095 21.7532 51.7126 22.0908 51.707 22.8903ZM51.4686 16.0197C51.4152 17.0268 51.156 18.0384 50.8732 18.6101C50.2894 19.7902 49.0691 20.1591 48.5634 18.4602C48.2176 17.2994 48.3004 15.797 48.4715 14.8503C48.6935 13.6221 49.2316 12.4827 50.1981 12.4827C51.1377 12.4827 51.601 13.5209 51.4686 16.0197ZM42.3313 16.0043C42.2741 17.0709 42.0675 17.9625 41.7359 18.6101C41.1361 19.7821 39.9495 20.1538 39.4261 18.4602C39.0489 17.2389 39.1773 15.5738 39.3342 14.6742C39.5672 13.3394 40.1504 12.393 41.0608 12.4827C41.9961 12.5747 42.4507 13.7852 42.3313 16.0043ZM84.2051 17.2501C83.9765 17.2501 83.8722 17.4875 83.7859 17.887C83.4865 19.2761 83.1718 19.5898 82.766 19.5898C82.3127 19.5898 81.9053 18.902 81.8006 17.525C81.7183 16.4423 81.7315 14.449 81.8368 12.4661C81.8583 12.0587 81.7467 11.6556 80.6618 11.2587C80.1949 11.0879 79.5163 10.8365 79.1784 11.658C78.2238 13.9788 77.8503 15.8213 77.7624 16.5698C77.7578 16.6085 77.7107 16.6164 77.7024 16.5259C77.6464 15.9264 77.5212 14.837 77.5056 12.5482C77.5026 12.1017 77.4087 11.7216 76.9193 11.4104C76.6018 11.2084 75.6375 10.8513 75.2903 11.2762C74.9895 11.6237 74.6411 12.5588 74.2791 13.6673C73.985 14.5683 73.78 15.1777 73.78 15.1777C73.78 15.1777 73.7839 12.7468 73.7874 11.8247C73.789 11.4768 73.5521 11.3609 73.4807 11.3399C73.1591 11.2459 72.5256 11.0889 72.2567 11.0889C71.9249 11.0889 71.8436 11.2757 71.8436 11.5478C71.8436 11.5835 71.7913 14.7484 71.7913 16.9615C71.7913 17.0576 71.7913 17.1625 71.7922 17.2739C71.6087 18.2911 71.0136 19.6718 70.3663 19.6718C69.7183 19.6718 69.4126 19.0946 69.4126 16.4562C69.4126 14.9171 69.4585 14.2479 69.481 13.1347C69.4941 12.4935 69.5194 12.0011 69.518 11.8894C69.5132 11.5467 68.9249 11.374 68.6512 11.3102C68.3761 11.2458 68.1371 11.2209 67.9505 11.2316C67.6864 11.2466 67.4995 11.4211 67.4995 11.6612C67.4995 11.7899 67.501 12.0346 67.501 12.0346C67.1608 11.4962 66.6136 11.1214 66.2495 11.0128C65.2689 10.7195 64.2457 10.9794 63.4739 12.0671C62.8605 12.9314 62.4907 13.9103 62.3452 15.3167C62.2388 16.3449 62.2735 17.3875 62.4626 18.2692C62.2341 19.2642 61.8099 19.6718 61.3454 19.6718C60.6711 19.6718 60.1822 18.5633 60.239 16.646C60.2764 15.385 60.527 14.5 60.8008 13.2198C60.9176 12.674 60.8227 12.3883 60.5848 12.1144C60.3665 11.8632 59.9015 11.7349 59.233 11.8927C58.7568 12.0053 58.076 12.1263 57.4531 12.2192C57.4531 12.2192 57.4907 12.0682 57.5216 11.8019C57.6836 10.4054 56.1769 10.5187 55.6962 10.9648C55.4093 11.2311 55.214 11.5451 55.1398 12.1098C55.0223 13.006 55.7479 13.4286 55.7479 13.4286C55.5099 14.5263 54.9263 15.9602 54.3237 16.9969C54.001 17.5524 53.7541 17.964 53.4354 18.4015C53.4342 18.2386 53.4334 18.0757 53.4328 17.9135C53.4255 15.6058 53.456 13.7895 53.4695 13.1349C53.4826 12.4937 53.5081 12.0144 53.5067 11.9026C53.5031 11.652 53.3577 11.5574 53.0555 11.4375C52.7883 11.3315 52.4723 11.2582 52.1445 11.2326C51.7308 11.2001 51.4816 11.4211 51.4881 11.6824C51.4893 11.7318 51.4893 12.0347 51.4893 12.0347C51.1491 11.4963 50.6019 11.1215 50.2379 11.0129C49.2573 10.7197 48.2341 10.9796 47.4623 12.0672C46.849 12.9315 46.4473 14.1443 46.3335 15.3061C46.2275 16.3888 46.2471 17.309 46.3916 18.0841C46.2357 18.8603 45.7874 19.6719 45.2805 19.6719C44.6325 19.6719 44.2638 19.0947 44.2638 16.4563C44.2638 14.9172 44.3097 14.248 44.3322 13.1349C44.3453 12.4937 44.3706 12.0012 44.3691 11.8896C44.3644 11.5469 43.7761 11.3742 43.5023 11.3103C43.2159 11.2436 42.9686 11.219 42.7788 11.2331C42.5282 11.2519 42.3521 11.4779 42.3521 11.6464V12.0347C42.0119 11.4963 41.4647 11.1215 41.1007 11.0129C40.1201 10.7197 39.1026 10.9838 38.3251 12.0672C37.818 12.7737 37.4076 13.5569 37.1963 15.2907C37.1353 15.7917 37.1083 16.2609 37.1118 16.6994C36.9096 17.9447 36.0167 19.3801 35.2862 19.3801C34.8588 19.3801 34.4517 18.545 34.4517 16.7654C34.4517 14.3949 34.5974 11.0198 34.622 10.6945C34.622 10.6945 35.5449 10.6787 35.7236 10.6766C36.184 10.6715 36.6009 10.6825 37.2141 10.6509C37.5216 10.6351 37.8179 9.52349 37.5005 9.38592C37.3566 9.32365 36.3399 9.26909 35.9368 9.26047C35.5979 9.25274 34.6544 9.18241 34.6544 9.18241C34.6544 9.18241 34.739 6.94216 34.7587 6.70551C34.7755 6.50827 34.5221 6.40672 34.3768 6.3451C34.0235 6.19459 33.7074 6.12253 33.3327 6.04474C32.8151 5.93718 32.5802 6.04239 32.5343 6.48242C32.4653 7.15024 32.4295 9.10631 32.4295 9.10631C32.0496 9.10631 30.752 9.03151 30.372 9.03151C30.019 9.03151 29.6379 10.5607 30.126 10.5795C30.6876 10.6015 31.6663 10.6204 32.315 10.6401C32.315 10.6401 32.2862 14.0708 32.2862 15.13C32.2862 15.2427 32.2871 15.3512 32.2873 15.4565C31.9303 17.331 30.6726 18.3435 30.6726 18.3435C30.9427 17.1034 30.3909 16.1722 29.3971 15.3839C29.031 15.0934 28.3082 14.5435 27.4995 13.9408C27.4995 13.9408 27.9679 13.4759 28.3833 12.5405C28.6776 11.8779 28.6903 11.1196 27.9679 10.9524C26.7742 10.6759 25.79 11.5588 25.4964 12.5014C25.269 13.2316 25.3903 13.7735 25.8359 14.3363C25.8684 14.3775 25.9037 14.4195 25.9401 14.4618C25.6706 14.9849 25.3005 15.6891 24.987 16.2352C24.1168 17.7515 23.4595 18.9509 22.9627 18.9509C22.5656 18.9509 22.5709 17.7332 22.5709 16.5932C22.5709 15.6103 22.643 14.1327 22.7005 12.6028C22.7195 12.0969 22.4684 11.8087 22.0473 11.5476C21.7915 11.389 21.2454 11.0772 20.9292 11.0772C20.4559 11.0772 19.0902 11.142 17.7999 14.9013C17.6373 15.3751 17.3178 16.2385 17.3178 16.2385L17.3453 11.7178C17.3453 11.6118 17.2893 11.5094 17.1609 11.4393C16.9435 11.3203 16.3628 11.0772 15.8464 11.0772C15.6003 11.0772 15.4776 11.1924 15.4776 11.4222L15.4325 18.4948C15.4325 19.0322 15.4464 19.6591 15.4992 19.9333C15.5517 20.2078 15.6369 20.4312 15.7423 20.5641C15.8476 20.6967 15.9694 20.7978 16.1703 20.8396C16.3572 20.8784 17.3807 21.0107 17.4339 20.6168C17.4977 20.1447 17.5001 19.634 18.0375 17.7295C18.8742 14.7644 19.9652 13.3177 20.478 12.8039C20.5677 12.7141 20.67 12.7087 20.6651 12.8557C20.6432 13.5058 20.5662 15.1301 20.5144 16.5102C20.3755 20.2032 21.0425 20.8878 21.9958 20.8878C22.7251 20.8878 23.7531 20.1579 24.8551 18.3105C25.5421 17.1592 26.2092 16.0303 26.6885 15.2167C27.0225 15.5281 27.3973 15.8632 27.7718 16.2213C28.6423 17.0533 28.928 17.844 28.7384 18.594C28.5934 19.1674 28.0473 19.7583 27.0752 19.184C26.7919 19.0164 26.671 18.887 26.3861 18.698C26.2331 18.5966 25.9994 18.5662 25.8593 18.6725C25.4953 18.9489 25.2872 19.3004 25.1684 19.7356C25.0528 20.1591 25.4738 20.383 25.9103 20.5788C26.2862 20.7473 27.094 20.9 27.6092 20.9174C29.6165 20.985 31.2245 19.9412 32.3439 17.2488C32.5443 19.5741 33.397 20.8898 34.8787 20.8898C35.8693 20.8898 36.8624 19.6003 37.2967 18.3316C37.4214 18.8488 37.6059 19.2985 37.8443 19.6787C38.986 21.5006 41.2008 21.1085 42.3133 19.5614C42.6573 19.0834 42.7096 18.9116 42.7096 18.9116C42.8719 20.3724 44.0399 20.8828 44.7086 20.8828C45.4576 20.8828 46.231 20.5262 46.773 19.2972C46.8365 19.4306 46.9058 19.558 46.9815 19.6787C48.1232 21.5006 50.338 21.1084 51.4505 19.5614C51.503 19.4888 51.5485 19.423 51.5883 19.3639L51.6209 20.3234C51.6209 20.3234 50.9863 20.9098 50.5967 21.2695C48.882 22.854 47.5782 24.0561 47.4823 25.4559C47.3592 27.2409 48.7965 27.9042 49.8839 27.9912C51.0386 28.0835 52.0275 27.441 52.6354 26.5418C53.17 25.7504 53.5199 24.0471 53.4942 22.3647C53.484 21.6911 53.4672 20.8345 53.4539 19.9163C54.0566 19.2114 54.7356 18.3205 55.3608 17.2777C56.0421 16.1412 56.7723 14.615 57.1462 13.4273C57.1462 13.4273 57.7806 13.4327 58.4577 13.3881C58.6743 13.3739 58.7365 13.4184 58.6964 13.5783C58.6481 13.7715 57.841 16.9067 58.5776 18.9952C59.0817 20.425 60.2182 20.885 60.892 20.885C61.6808 20.885 62.4354 20.285 62.8397 19.3942C62.8885 19.4935 62.9394 19.5896 62.995 19.6783C64.1367 21.5002 66.3437 21.1057 67.464 19.561C67.7169 19.2125 67.8603 18.9112 67.8603 18.9112C68.1008 20.423 69.2681 20.8901 69.9367 20.8901C70.6332 20.8901 71.2942 20.6025 71.8305 19.3244C71.8529 19.8872 71.8882 20.3473 71.9439 20.4924C71.9779 20.5811 72.1758 20.6925 72.3198 20.7463C72.9569 20.9842 73.6067 20.8717 73.8471 20.8227C74.0137 20.7888 74.1436 20.6542 74.1613 20.3067C74.208 19.3943 74.1793 17.8613 74.454 16.722C74.915 14.8099 75.345 14.0682 75.549 13.701C75.6632 13.4953 75.792 13.4613 75.7967 13.6791C75.8063 14.1196 75.828 15.4134 76.0066 17.1516C76.1378 18.4299 76.313 19.1856 76.4476 19.4247C76.8319 20.1086 77.3065 20.1409 77.693 20.1409C77.9389 20.1409 78.453 20.0725 78.407 19.6373C78.3846 19.4252 78.4239 18.1142 78.8784 16.2305C79.1752 15.0003 79.67 13.8888 79.8485 13.4825C79.9143 13.3326 79.9449 13.4507 79.9438 13.4738C79.9063 14.3209 79.8219 17.0919 80.1646 18.6074C80.6291 20.6605 81.9728 20.8902 82.4411 20.8902C83.4407 20.8902 84.2582 20.1244 84.5337 18.1092C84.6 17.6242 84.5018 17.2498 84.2074 17.2498" fill="#111827"/>
</svg>
