<svg width="98" height="38" viewBox="0 0 98 38" fill="none" xmlns="http://www.w3.org/2000/svg">
<path fill-rule="evenodd" clip-rule="evenodd" d="M71.2881 12.7141C70.9513 12.714 70.6283 12.8482 70.3901 13.0874C70.1519 13.3265 70.0179 13.6509 70.0177 13.9893C70.0176 14.3276 70.1513 14.6522 70.3892 14.8916C70.6272 15.1309 70.9501 15.2655 71.2868 15.2657C71.6238 15.2657 71.9468 15.1312 72.1852 14.8918C72.4234 14.6524 72.5572 14.3278 72.5572 13.9893C72.5572 13.6508 72.4234 13.3261 72.1852 13.0868C71.9468 12.8474 71.6238 12.7129 71.2868 12.7129L71.2881 12.7141ZM72.1633 16.2479H70.3932C70.359 16.2482 70.3262 16.2621 70.302 16.2866C70.2778 16.3111 70.2642 16.3442 70.2642 16.3787V24.1409C70.2642 24.2143 70.3215 24.2719 70.3932 24.2719H72.1645C72.1991 24.2719 72.2322 24.2581 72.2567 24.2334C72.2811 24.209 72.2948 24.1757 72.2948 24.1409V16.3787C72.2948 16.344 72.2811 16.3107 72.2567 16.2862C72.2322 16.2616 72.1991 16.2479 72.1645 16.2479H72.1633ZM76.1003 16.2552V16.0106C76.1003 15.2865 76.3766 14.9635 76.9963 14.9635C77.3652 14.9635 77.6611 15.0369 77.9946 15.1495C78.0141 15.1561 78.035 15.158 78.0555 15.1548C78.0759 15.1517 78.0953 15.1437 78.112 15.1315C78.1286 15.1192 78.1422 15.1032 78.1514 15.0846C78.1606 15.066 78.1653 15.0455 78.165 15.0247V13.5263C78.1648 13.4983 78.1559 13.4711 78.1392 13.4486C78.1225 13.4262 78.0992 13.4097 78.0725 13.4016C77.5953 13.2551 77.0984 13.1833 76.5994 13.1887C74.9646 13.1887 74.1002 14.1147 74.1002 15.865V16.2417H73.2492C73.215 16.2417 73.182 16.2554 73.1575 16.2796C73.1331 16.3039 73.1194 16.3369 73.1189 16.3714V17.9089C73.1189 17.9811 73.1775 18.0398 73.2492 18.0398H74.1002V24.1434C74.1002 24.2143 74.1573 24.2731 74.2292 24.2731H76.0005C76.0349 24.2728 76.0677 24.2588 76.0919 24.2344C76.1159 24.2098 76.1295 24.1767 76.1295 24.1422V18.0386H77.7827L80.3162 24.1422C80.0287 24.782 79.7463 24.9104 79.3604 24.9104C79.0477 24.9104 78.7188 24.8162 78.3829 24.6314C78.3674 24.6231 78.3504 24.6179 78.3327 24.6162C78.3152 24.6145 78.2974 24.6164 78.2806 24.6217C78.2637 24.6275 78.2481 24.6368 78.2348 24.649C78.2217 24.6612 78.211 24.6761 78.2039 24.6926L77.6037 26.0149C77.5898 26.0447 77.5877 26.0788 77.598 26.1102C77.6081 26.1416 77.6298 26.1678 77.6586 26.1836C78.2856 26.525 78.8516 26.6705 79.5503 26.6705C80.8579 26.6705 81.5809 26.0589 82.2176 24.4113L85.2902 16.4338C85.2983 16.414 85.3013 16.3926 85.2991 16.3713C85.2969 16.3501 85.2894 16.3298 85.2775 16.3121C85.2657 16.2944 85.2496 16.28 85.2307 16.2701C85.2119 16.2601 85.191 16.255 85.1698 16.2552H83.3266C83.2997 16.2555 83.2737 16.2641 83.2519 16.2799C83.2301 16.2956 83.2137 16.3178 83.2049 16.3433L81.3155 21.7631L79.246 16.3396C79.2368 16.3149 79.2204 16.2936 79.1989 16.2785C79.1773 16.2634 79.1517 16.2553 79.1254 16.2552H76.1003ZM69.3111 16.2479H67.3633V14.2455C67.3633 14.2284 67.3598 14.2114 67.3533 14.1956C67.3467 14.1798 67.3372 14.1655 67.325 14.1534C67.313 14.1414 67.2986 14.1318 67.2828 14.1254C67.267 14.119 67.25 14.1157 67.233 14.1159H65.4617C65.4276 14.1162 65.395 14.13 65.3708 14.1542C65.3467 14.1785 65.333 14.2113 65.3327 14.2455V16.2479H64.4806C64.4636 16.2479 64.4465 16.2513 64.4309 16.2579C64.4151 16.2644 64.4009 16.2741 64.3889 16.2863C64.3769 16.2984 64.3673 16.3129 64.3609 16.3287C64.3545 16.3446 64.3514 16.3616 64.3516 16.3787V17.9077C64.3516 17.9799 64.41 18.0386 64.4806 18.0386H65.3327V21.9943C65.3327 23.5942 66.124 24.4039 67.6871 24.4039C68.3225 24.4039 68.8484 24.2731 69.3451 23.9905C69.3653 23.9792 69.3818 23.9626 69.3934 23.9427C69.4049 23.9226 69.411 23.8999 69.4109 23.8768V22.4212C69.4112 22.3989 69.4057 22.3768 69.3951 22.3572C69.3845 22.3377 69.369 22.3211 69.3501 22.3093C69.3312 22.2975 69.3097 22.2908 69.2875 22.2898C69.2653 22.2888 69.2433 22.2936 69.2234 22.3038C68.8826 22.4762 68.5526 22.5557 68.1838 22.5557C67.6152 22.5557 67.362 22.2976 67.362 21.7166V18.0386H69.3098C69.327 18.0387 69.344 18.0355 69.3598 18.029C69.3757 18.0224 69.3901 18.0128 69.4023 18.0006C69.4145 17.9884 69.424 17.9739 69.4306 17.958C69.437 17.942 69.4402 17.9249 69.4401 17.9077V16.3787C69.4402 16.3616 69.437 16.3446 69.4306 16.3287C69.4242 16.3129 69.4148 16.2984 69.4028 16.2863C69.3907 16.2741 69.3765 16.2644 69.3607 16.2579C69.345 16.2513 69.3281 16.2479 69.3111 16.2479ZM59.9726 16.0852C57.5865 16.0852 55.7154 17.9322 55.7154 20.2892C55.7154 22.6218 57.5733 24.448 59.9434 24.448C62.338 24.448 64.214 22.6083 64.214 20.2599C64.214 17.9187 62.3514 16.0852 59.9726 16.0852ZM59.9726 22.6438C58.7029 22.6438 57.7448 21.6188 57.7448 20.2586C57.7448 18.8948 58.6701 17.9053 59.9434 17.9053C61.2216 17.9053 62.1833 18.9303 62.1833 20.2904C62.1833 21.6543 61.2546 22.6438 59.9726 22.6438ZM51.434 16.0852C50.4357 16.0852 49.6177 16.4803 48.9432 17.2888V16.3787C48.9432 16.3442 48.9298 16.3111 48.9056 16.2866C48.8813 16.2621 48.8485 16.2482 48.8142 16.2479H47.0429C47.0087 16.2482 46.9759 16.2621 46.9516 16.2866C46.9274 16.3111 46.9138 16.3442 46.9138 16.3787V26.4944C46.9138 26.5653 46.9723 26.6239 47.0429 26.6239H48.8142C48.8484 26.6236 48.881 26.61 48.9051 26.5857C48.9293 26.5614 48.9429 26.5286 48.9432 26.4944V23.3019C49.6189 24.0614 50.4369 24.4332 51.434 24.4332C53.2868 24.4332 55.1628 22.9998 55.1628 20.2599C55.1628 17.52 53.2881 16.0852 51.434 16.0852ZM53.1042 20.2599C53.1042 21.6543 52.2484 22.6291 51.0238 22.6291C49.8125 22.6291 48.8995 21.6102 48.8995 20.2599C48.8995 18.9095 49.8125 17.8906 51.0238 17.8906C52.2289 17.8906 53.1055 18.8862 53.1055 20.2599H53.1042ZM42.8345 18.0459C40.8575 17.5713 40.5057 17.2386 40.5057 16.5402C40.5057 15.8797 41.1241 15.4357 42.0445 15.4357C42.9356 15.4357 43.8206 15.7721 44.747 16.4668C44.7608 16.4771 44.7764 16.4845 44.7931 16.4886C44.8098 16.4927 44.8272 16.4935 44.844 16.4909C44.8611 16.4883 44.8773 16.4823 44.892 16.4734C44.9067 16.4644 44.9195 16.4526 44.9296 16.4387L45.8962 15.07C45.9149 15.0429 45.9229 15.0098 45.9184 14.9771C45.9138 14.9444 45.8971 14.9147 45.8718 14.8938C44.7689 14.0034 43.526 13.5716 42.0737 13.5716C39.9372 13.5716 38.4459 14.8583 38.4459 16.7017C38.4459 18.6771 39.7327 19.3767 41.9568 19.9161C43.8486 20.354 44.1688 20.721 44.1688 21.3778C44.1688 22.1044 43.5235 22.5557 42.4826 22.5557C41.3286 22.5557 40.3876 22.1643 39.3333 21.2494C39.3069 21.2269 39.273 21.2155 39.2383 21.2176C39.2211 21.2189 39.2044 21.2237 39.1893 21.2317C39.174 21.2397 39.1604 21.2507 39.1494 21.2641L38.066 22.5582C38.044 22.584 38.0329 22.6175 38.0354 22.6515C38.0379 22.6854 38.0539 22.717 38.0795 22.7392C39.2732 23.8259 40.8281 24.4249 42.4389 24.4186C44.7397 24.4186 46.2273 23.1552 46.2273 21.2005C46.2273 19.548 45.2448 18.6343 42.8345 18.0447V18.0459ZM23.0912 7.48999C20.053 7.48999 17.1393 8.70265 14.991 10.8612C12.8427 13.0197 11.6357 15.9473 11.6357 19C11.6357 22.0526 12.8427 24.9802 14.991 27.1388C17.1393 29.2973 20.053 30.51 23.0912 30.51C26.1294 30.51 29.0431 29.2973 31.1914 27.1388C33.3397 24.9802 34.5467 22.0526 34.5467 19C34.5467 15.9473 33.3397 13.0197 31.1914 10.8612C29.0431 8.70265 26.1294 7.48999 23.0912 7.48999ZM28.3454 24.0909C28.2965 24.1715 28.2325 24.2416 28.1565 24.2973C28.0808 24.3528 27.9947 24.3929 27.9035 24.415C27.8121 24.4371 27.7175 24.4411 27.6247 24.4263C27.5319 24.4116 27.443 24.3786 27.3629 24.3294C24.6726 22.6781 21.2883 22.305 17.3002 23.2199C17.2088 23.2409 17.1142 23.2436 17.0218 23.2278C16.9294 23.2121 16.841 23.1781 16.7617 23.128C16.6823 23.078 16.6136 23.0126 16.5593 22.9359C16.5051 22.8591 16.4664 22.7723 16.4456 22.6805C16.4247 22.5887 16.422 22.4937 16.4377 22.4008C16.4534 22.308 16.4872 22.2192 16.537 22.1394C16.5869 22.0597 16.6519 21.9906 16.7283 21.9361C16.8047 21.8816 16.8911 21.8428 16.9824 21.8218C21.3455 20.8188 25.0889 21.2506 28.108 23.105C28.444 23.3117 28.5499 23.7533 28.3454 24.0909ZM29.7453 20.9571C29.6214 21.1596 29.4227 21.3044 29.1926 21.3599C28.9627 21.4154 28.7201 21.377 28.5182 21.2531C25.4395 19.351 20.7453 18.8006 17.103 19.9112C16.8813 19.9641 16.648 19.93 16.4505 19.816C16.2531 19.7019 16.1063 19.5165 16.0402 19.2975C15.9741 19.0785 15.9935 18.8425 16.0946 18.6374C16.1958 18.4323 16.3709 18.2737 16.5844 18.1939C20.7453 16.9255 25.9167 17.5408 29.4519 19.7229C29.552 19.7845 29.639 19.8654 29.7081 19.9608C29.7771 20.0563 29.8268 20.1645 29.8541 20.2792C29.8815 20.394 29.886 20.513 29.8676 20.6295C29.8491 20.746 29.8081 20.8577 29.7465 20.9583L29.7453 20.9571ZM29.8683 17.6936C26.1748 15.4907 20.0831 15.2877 16.5588 16.3641C16.4235 16.4074 16.2811 16.4233 16.1396 16.4109C15.9982 16.3984 15.8607 16.3578 15.735 16.2915C15.6093 16.2252 15.498 16.1344 15.4076 16.0245C15.3171 15.9145 15.2493 15.7876 15.2081 15.6511C15.1669 15.5147 15.153 15.3713 15.1675 15.2294C15.1819 15.0875 15.2242 14.9499 15.292 14.8246C15.3598 14.6992 15.4517 14.5887 15.5624 14.4994C15.673 14.4101 15.8003 14.3437 15.9367 14.3043C19.982 13.0689 26.7092 13.3086 30.9591 15.843C31.2034 15.9886 31.3802 16.2259 31.4507 16.5025C31.5209 16.7792 31.4789 17.0726 31.334 17.3181C31.189 17.5637 30.9528 17.7414 30.6776 17.812C30.4022 17.8827 30.1103 17.8405 29.8658 17.6949" fill="#1CD155"/>
</svg>
