<svg width="113" height="42" viewBox="0 0 113 42" fill="none" xmlns="http://www.w3.org/2000/svg">
<path fill-rule="evenodd" clip-rule="evenodd" d="M80.5009 19.6437C80.2406 21.3535 78.9348 21.3535 77.6721 21.3535H76.9533L77.4573 18.1613C77.4877 17.9685 77.6541 17.8263 77.8498 17.8263H78.1789C79.0386 17.8263 79.8507 17.8263 80.2696 18.3161C80.52 18.6092 80.5956 19.0435 80.5009 19.6437ZM79.9513 15.1833H75.1884C74.8627 15.1833 74.5854 15.4203 74.5346 15.742L72.6089 27.9549C72.5708 28.1957 72.7569 28.4137 73.001 28.4137H75.4448C75.6726 28.4137 75.8669 28.2478 75.9022 28.0226L76.4482 24.5603C76.4991 24.2386 76.7764 24.0016 77.102 24.0016H78.6091C81.7463 24.0016 83.5572 22.4833 84.0305 19.4742C84.2434 18.1581 84.0389 17.124 83.4226 16.4001C82.7451 15.6041 81.545 15.1833 79.9513 15.1833Z" fill="#2790C3"/>
<path fill-rule="evenodd" clip-rule="evenodd" d="M91.0087 24.0281C90.7887 25.3313 89.7541 26.2062 88.4346 26.2062C87.773 26.2062 87.2436 25.9935 86.9031 25.5906C86.5658 25.1912 86.439 24.6222 86.546 23.9885C86.7512 22.6971 87.8023 21.794 89.1018 21.794C89.7492 21.794 90.2751 22.0089 90.6223 22.4154C90.9716 22.8249 91.1087 23.3977 91.0087 24.0281ZM94.1872 19.5891H91.9066C91.7112 19.5891 91.5449 19.731 91.5145 19.9243L91.4142 20.562L91.2549 20.3309C90.7608 19.614 89.6602 19.3744 88.5607 19.3744C86.0413 19.3744 83.8888 21.2838 83.4699 23.962C83.252 25.298 83.5614 26.5746 84.3187 27.4658C85.0148 28.2845 86.0081 28.6253 87.1913 28.6253C89.2222 28.6253 90.3486 27.3207 90.3486 27.3207L90.2468 27.9545C90.2087 28.1955 90.3948 28.4136 90.6393 28.4136H92.6928C93.0184 28.4136 93.2957 28.1769 93.3466 27.8552L94.5792 20.0478C94.6174 19.8068 94.4313 19.5891 94.1872 19.5891Z" fill="#2790C3"/>
<path fill-rule="evenodd" clip-rule="evenodd" d="M96.8754 15.5187L94.9204 27.9549C94.8826 28.196 95.0688 28.4137 95.3128 28.4137H97.2788C97.6044 28.4137 97.8817 28.1767 97.9326 27.8552L99.86 15.6423C99.8978 15.4012 99.7116 15.1833 99.4676 15.1833H97.2675C97.0722 15.1833 96.9058 15.3256 96.8754 15.5187Z" fill="#2790C3"/>
<path fill-rule="evenodd" clip-rule="evenodd" d="M46.5301 19.6437C46.2698 21.3534 44.964 21.3534 43.7012 21.3534H42.9826L43.4865 18.1613C43.5172 17.9685 43.6835 17.8263 43.8787 17.8263H44.2081C45.0678 17.8263 45.88 17.8263 46.2985 18.3161C46.5491 18.6092 46.6249 19.0435 46.5301 19.6437ZM45.9806 15.1833H41.2174C40.8919 15.1833 40.6147 15.4203 40.5639 15.742L38.6378 27.9549C38.5999 28.1957 38.7861 28.4137 39.03 28.4137H41.3042C41.6297 28.4137 41.9072 28.1767 41.9579 27.8552L42.4776 24.5603C42.5282 24.2386 42.8056 24.0016 43.1312 24.0016H44.6384C47.7755 24.0016 49.5861 22.4833 50.0594 19.4742C50.2724 18.1581 50.0683 17.124 49.4519 16.4001C48.7741 15.6041 47.5738 15.1833 45.9806 15.1833Z" fill="#27346A"/>
<path fill-rule="evenodd" clip-rule="evenodd" d="M57.038 24.0281C56.8176 25.3313 55.7831 26.2062 54.4635 26.2062C53.8023 26.2062 53.2725 25.9934 52.9324 25.5906C52.5951 25.1911 52.4679 24.6222 52.575 23.9885C52.7802 22.6971 53.8313 21.794 55.1307 21.794C55.7785 21.794 56.3041 22.0089 56.6513 22.4154C57.0009 22.8249 57.138 23.3977 57.038 24.0281ZM60.2165 19.5891H57.9359C57.7402 19.5891 57.5742 19.731 57.5435 19.9243L57.4432 20.562L57.2839 20.3309C56.7901 19.614 55.6891 19.3744 54.59 19.3744C52.0702 19.3744 49.9178 21.2838 49.4989 23.962C49.281 25.298 49.5904 26.5746 50.348 27.4658C51.0438 28.2845 52.037 28.6253 53.2203 28.6253C55.2515 28.6253 56.3779 27.3206 56.3779 27.3206L56.2758 27.9545C56.238 28.1955 56.4242 28.4136 56.6682 28.4136H58.7221C59.0478 28.4136 59.325 28.1769 59.3755 27.8551L60.6086 20.0478C60.6467 19.8068 60.4606 19.5891 60.2165 19.5891Z" fill="#27346A"/>
<path fill-rule="evenodd" clip-rule="evenodd" d="M72.3632 19.5891H70.0709C69.8519 19.5891 69.6467 19.6979 69.5234 19.8792L66.3616 24.5366L65.0211 20.0611C64.9374 19.7811 64.6796 19.5891 64.3875 19.5891H62.1341C61.8617 19.5891 61.6703 19.8567 61.7579 20.1142L64.2822 27.5233L61.908 30.8734C61.7215 31.1363 61.9098 31.5 62.2319 31.5H64.5221C64.7393 31.5 64.9424 31.3936 65.066 31.2151L72.6899 20.2125C72.8722 19.9492 72.6839 19.5891 72.3632 19.5891Z" fill="#27346A"/>
<path fill-rule="evenodd" clip-rule="evenodd" d="M22.2667 30.6341L22.9069 26.5742L22.9482 26.3492C22.979 26.1536 23.0792 25.9746 23.2302 25.8457C23.381 25.7169 23.5735 25.6458 23.7719 25.6458H24.2803C25.1278 25.6458 25.9063 25.5552 26.5946 25.3767C27.3288 25.1864 27.9819 24.8899 28.5355 24.4963C29.1224 24.0788 29.6154 23.5392 30.0009 22.8927C30.4077 22.2107 30.7063 21.3896 30.8887 20.4524C31.0498 19.6248 31.08 18.884 30.9788 18.2501C30.8715 17.5806 30.6136 17.0092 30.2122 16.5515C29.9688 16.2744 29.6574 16.0342 29.2866 15.8376L29.2778 15.833L29.2776 15.8223C29.4071 14.9962 29.4022 14.3071 29.2629 13.7139C29.1229 13.1195 28.8395 12.5845 28.3957 12.0789C27.4763 11.0313 25.804 10.5 23.4256 10.5H16.8934C16.6751 10.5 16.4632 10.5781 16.2971 10.7201C16.131 10.862 16.0209 11.0591 15.9867 11.2749L13.2668 28.5226C13.242 28.6799 13.2871 28.8398 13.3907 28.9605C13.4944 29.0819 13.6451 29.1515 13.8043 29.1515H17.8567L17.8531 29.1708L17.5748 30.9355C17.5534 31.0727 17.5928 31.2119 17.6829 31.3172C17.773 31.4227 17.9043 31.4835 18.043 31.4835H21.4419C21.6326 31.4835 21.8173 31.4152 21.9623 31.2913C22.1072 31.1673 22.2035 30.9954 22.2332 30.8073L22.2667 30.6341Z" fill="#27346A"/>
<path fill-rule="evenodd" clip-rule="evenodd" d="M29.2942 15.8229C29.2747 15.9477 29.2531 16.0746 29.2274 16.2054C28.3662 20.6282 25.419 22.1572 21.6549 22.1572H19.7382C19.2784 22.1572 18.8901 22.492 18.8184 22.9463L17.5586 30.9331C17.5118 31.2307 17.7419 31.5 18.043 31.5H21.4422C21.8444 31.5 22.1869 31.2074 22.2496 30.8098L22.283 30.6371L22.9233 26.5768L22.9646 26.3524C23.0273 25.9549 23.3698 25.6623 23.772 25.6623H24.2804C27.5734 25.6623 30.1517 24.3244 30.9052 20.4554C31.2199 18.8388 31.0572 17.4894 30.2247 16.5406C29.973 16.2538 29.6596 16.0164 29.2942 15.8229Z" fill="#2790C3"/>
<path fill-rule="evenodd" clip-rule="evenodd" d="M28.3927 15.4636C28.2614 15.4251 28.1259 15.3907 27.9861 15.3596C27.8464 15.3286 27.7027 15.3012 27.555 15.2774C27.0378 15.1941 26.4723 15.1543 25.8656 15.1543H20.7455C20.6198 15.1543 20.4999 15.183 20.3925 15.2344C20.1564 15.3477 19.981 15.5713 19.938 15.8447L18.8497 22.7448L18.8184 22.9463C18.8901 22.492 19.2784 22.1572 19.7382 22.1572H21.6549C25.419 22.1572 28.3662 20.6282 29.2274 16.2054C29.2531 16.0746 29.2747 15.9477 29.2942 15.8229C29.0767 15.7077 28.8402 15.6084 28.5864 15.524C28.5228 15.5028 28.4583 15.4827 28.3927 15.4636Z" fill="#111827"/>
</svg>
