<svg width="150" height="42" viewBox="0 0 150 42" fill="none" xmlns="http://www.w3.org/2000/svg">
<path d="M64.3271 13.125V28.8749H61.5927V16.5156H61.5563L56.6709 28.8749H54.8479L49.8532 16.5156H49.8167V28.8749H47.3011V13.125H51.2386L55.7594 24.7917H55.8323L60.6084 13.125H64.3271ZM66.5875 14.3281C66.5875 13.8906 66.7334 13.526 67.0615 13.2344C67.3896 12.9427 67.7542 12.7969 68.1917 12.7969C68.6657 12.7969 69.0667 12.9427 69.3584 13.2344C69.65 13.526 69.8323 13.8906 69.8323 14.3281C69.8323 14.7656 69.6865 15.1302 69.3584 15.4219C69.0302 15.7135 68.6657 15.8594 68.1917 15.8594C67.7177 15.8594 67.3531 15.7135 67.0615 15.4219C66.7698 15.0937 66.5875 14.7292 66.5875 14.3281ZM69.5406 17.5729V28.8749H66.8792V17.5729H69.5406ZM77.5979 26.9427C77.999 26.9427 78.4365 26.8698 78.9104 26.651C79.3844 26.4687 79.8219 26.2135 80.2229 25.9219V28.401C79.7854 28.6562 79.3115 28.8385 78.7646 28.9479C78.2177 29.0572 77.6344 29.1302 76.9782 29.1302C75.3011 29.1302 73.9521 28.6198 72.9313 27.5625C71.874 26.5052 71.3636 25.1562 71.3636 23.5521C71.3636 21.7292 71.9104 20.2344 72.9677 19.0677C74.025 17.901 75.5198 17.3177 77.4886 17.3177C77.999 17.3177 78.5094 17.3906 78.9834 17.5C79.4938 17.6094 79.8948 17.7917 80.1865 17.9375V20.4895C79.7854 20.1979 79.3479 19.9427 78.9469 19.7969C78.5094 19.651 78.0719 19.5417 77.6344 19.5417C76.5771 19.5417 75.7386 19.8697 75.0823 20.5625C74.4261 21.2552 74.1344 22.1667 74.1344 23.3333C74.1344 24.4635 74.4625 25.375 75.0823 25.9948C75.7021 26.6146 76.5406 26.9427 77.5979 26.9427ZM87.7698 17.3906C87.9886 17.3906 88.1709 17.3906 88.3532 17.4271C88.5354 17.4635 88.6813 17.5 88.7907 17.5364V20.2344C88.6448 20.125 88.4625 20.0156 88.1709 19.9427C87.8792 19.8697 87.5875 19.7969 87.1865 19.7969C86.5302 19.7969 85.9834 20.0885 85.5459 20.6354C85.1084 21.1823 84.8532 22.0208 84.8532 23.1875V28.8749H82.1917V17.5729H84.8532V19.3594H84.8896C85.1448 18.7396 85.5094 18.2656 85.9834 17.901C86.4938 17.5729 87.0771 17.3906 87.7698 17.3906ZM88.9365 23.4062C88.9365 21.5468 89.4834 20.0521 90.5042 18.9583C91.5615 17.8646 93.0198 17.3177 94.8792 17.3177C96.6292 17.3177 98.0146 17.8281 98.999 18.8854C99.9834 19.9427 100.494 21.3646 100.494 23.151C100.494 24.9739 99.9469 26.4323 98.9261 27.526C97.8688 28.6198 96.4469 29.1667 94.624 29.1667C92.874 29.1667 91.4886 28.6562 90.4677 27.6354C89.4469 26.5781 88.9365 25.1562 88.9365 23.4062ZM91.7073 23.2968C91.7073 24.4635 91.9625 25.375 92.5094 25.9948C93.0563 26.6146 93.8219 26.9427 94.8063 26.9427C95.7542 26.9427 96.5198 26.651 97.0302 25.9948C97.5407 25.375 97.7959 24.4635 97.7959 23.2239C97.7959 22.0208 97.5407 21.1094 97.0302 20.4531C96.5198 19.8333 95.7542 19.5052 94.8427 19.5052C93.8584 19.5052 93.1292 19.8333 92.5823 20.4895C91.9625 21.1822 91.7073 22.0937 91.7073 23.2968ZM104.468 20.5625C104.468 20.927 104.577 21.2552 104.832 21.4739C105.088 21.6927 105.598 21.9479 106.436 22.276C107.494 22.7135 108.259 23.1875 108.66 23.6979C109.098 24.2448 109.317 24.8646 109.317 25.6302C109.317 26.6875 108.916 27.526 108.077 28.1823C107.275 28.8385 106.145 29.1302 104.759 29.1302C104.285 29.1302 103.775 29.0572 103.192 28.9479C102.608 28.8385 102.134 28.6927 101.733 28.5104V25.8854C102.207 26.2135 102.754 26.5052 103.301 26.6875C103.848 26.8697 104.358 26.9792 104.832 26.9792C105.416 26.9792 105.89 26.9062 106.145 26.7239C106.436 26.5417 106.582 26.2864 106.582 25.8854C106.582 25.5208 106.436 25.2291 106.145 24.9374C105.853 24.6822 105.27 24.3906 104.468 24.0625C103.483 23.6614 102.791 23.1874 102.39 22.677C101.989 22.1666 101.77 21.5104 101.77 20.7083C101.77 19.6875 102.171 18.8489 102.973 18.1927C103.775 17.5364 104.832 17.2083 106.108 17.2083C106.509 17.2083 106.947 17.2448 107.421 17.3542C107.895 17.4635 108.332 17.5729 108.66 17.6823V20.2708C108.296 20.0521 107.895 19.8333 107.421 19.651C106.947 19.4687 106.473 19.3958 106.035 19.3958C105.525 19.3958 105.124 19.5052 104.869 19.6875C104.614 19.9427 104.468 20.1979 104.468 20.5625ZM110.447 23.4062C110.447 21.5468 110.994 20.0521 112.015 18.9583C113.072 17.8646 114.53 17.3177 116.39 17.3177C118.14 17.3177 119.525 17.8281 120.509 18.8854C121.494 19.9427 122.004 21.3646 122.004 23.151C122.004 24.9739 121.457 26.4323 120.436 27.526C119.379 28.6198 117.957 29.1667 116.134 29.1667C114.384 29.1667 112.999 28.6562 111.978 27.6354C110.994 26.5781 110.447 25.1562 110.447 23.4062ZM113.218 23.2968C113.218 24.4635 113.473 25.375 114.02 25.9948C114.567 26.6146 115.332 26.9427 116.317 26.9427C117.265 26.9427 118.03 26.651 118.541 25.9948C119.051 25.375 119.306 24.4635 119.306 23.2239C119.306 22.0208 119.051 21.1094 118.541 20.4531C118.03 19.8333 117.265 19.5052 116.353 19.5052C115.369 19.5052 114.64 19.8333 114.093 20.4895C113.509 21.1822 113.218 22.0937 113.218 23.2968ZM130.864 19.7604H126.89V28.8749H124.192V19.7604H122.296V17.5729H124.192V16.0052C124.192 14.8385 124.593 13.8542 125.358 13.0885C126.124 12.3229 127.108 11.9583 128.311 11.9583C128.64 11.9583 128.931 11.9948 129.186 11.9948C129.442 11.9948 129.66 12.0677 129.843 12.1406V14.4375C129.77 14.401 129.588 14.3281 129.369 14.2552C129.15 14.1823 128.895 14.1458 128.603 14.1458C128.056 14.1458 127.619 14.3281 127.327 14.6562C127.035 14.9844 126.89 15.5312 126.89 16.1875V17.5364H130.864V14.9844L133.525 14.1823V17.5364H136.223V19.7239H133.525V25.0104C133.525 25.7031 133.671 26.1771 133.89 26.4687C134.145 26.7604 134.546 26.9062 135.093 26.9062C135.239 26.9062 135.421 26.8698 135.64 26.7969C135.858 26.7239 136.041 26.651 136.186 26.5417V28.7292C136.004 28.8385 135.749 28.9114 135.348 28.9844C134.947 29.0573 134.582 29.0937 134.181 29.0937C133.051 29.0937 132.213 28.802 131.666 28.2187C131.119 27.6354 130.827 26.7239 130.827 25.5208L130.864 19.7604Z" fill="#737373"/>
<path d="M25.6084 7.875H13.1396V20.3438H25.6084V7.875Z" fill="#F25022"/>
<path d="M39.3895 7.875H26.9208V20.3438H39.3895V7.875Z" fill="#7FBA00"/>
<path d="M25.6084 21.6562H13.1396V34.125H25.6084V21.6562Z" fill="#00A4EF"/>
<path d="M39.3895 21.6562H26.9208V34.125H39.3895V21.6562Z" fill="#FFB900"/>
</svg>
