<svg width="132" height="32" viewBox="0 0 132 32" fill="none" xmlns="http://www.w3.org/2000/svg">
<path fill-rule="evenodd" clip-rule="evenodd" d="M61.3338 19.5474C60.5548 19.7271 60.1518 19.4874 60.1518 18.9714C60.1518 18.2645 60.8828 17.9815 61.9271 17.9815C62.3865 17.9815 62.8198 18.0211 62.8198 18.0211C62.8198 18.3238 62.1621 19.3564 61.3338 19.5474ZM62.1265 12.4692C59.6328 12.4692 57.8425 13.3861 57.8425 13.3861V16.0818C57.8425 16.0818 59.8191 14.9455 61.4228 14.9455C62.7021 14.9455 62.8595 15.6358 62.8015 16.2085C62.8015 16.2085 62.4321 16.1108 61.3061 16.1108C58.6518 16.1108 57.3125 17.3171 57.3125 19.2511C57.3125 21.0858 58.8178 21.8524 60.0865 21.8524C61.9371 21.8524 62.7511 20.6084 63.0008 20.0184C63.1745 19.6091 63.2065 19.3331 63.3618 19.3331C63.5401 19.3331 63.4801 19.5311 63.4711 19.9384C63.4565 20.6521 63.4905 21.1914 63.6035 21.6461H66.0578V17.2315C66.0578 14.4751 65.0825 12.4692 62.1265 12.4692Z" fill="#111827"/>
<path fill-rule="evenodd" clip-rule="evenodd" d="M78.28 17.1653C78.28 16.3589 79.0297 15.6246 80.4057 15.6246C81.9046 15.6246 83.111 16.3466 83.3813 16.5106V13.39C83.3813 13.39 82.4286 12.4726 80.087 12.4726C77.6187 12.4726 75.563 13.9169 75.563 17.0259C75.563 20.1346 77.4287 21.8586 80.0803 21.8586C82.152 21.8586 83.3866 20.7202 83.3866 20.7202V17.7566C82.996 17.9749 81.9077 18.7306 80.4207 18.7306C78.8463 18.7306 78.28 18.0059 78.28 17.1653ZM45.4768 12.677C45.4772 12.679 45.6335 13.3496 45.4275 14.2266C45.3225 14.6726 45.1295 15.0519 45.3625 15.0519C45.5232 15.0519 45.5235 14.9186 45.7325 14.4406C46.0382 13.742 46.6825 12.4703 48.1882 12.4703C49.6195 12.4703 50.2938 13.34 50.5172 14.1543C50.6872 14.7729 50.5385 15.0519 50.7458 15.0519C50.8932 15.0519 50.9442 14.7309 51.1255 14.3249C51.4511 13.5976 52.1595 12.4703 53.5921 12.4703C55.7538 12.4703 56.5791 14.0313 56.5791 16.3729V21.6492H53.3678V16.7849C53.3678 15.9739 53.2368 15.1873 52.4975 15.1873C51.8125 15.1873 51.4931 16.4013 51.4931 17.1849V21.6512H48.2228V16.7853C48.2228 15.7476 48.0765 15.1876 47.3472 15.1876C46.7158 15.1876 46.3475 16.3046 46.3475 17.1853V21.6496H43.0902V12.677H45.4768ZM67.1267 12.6893C67.1281 12.69 67.6824 13.0096 68.7584 13.0096C69.8364 13.0096 70.3837 12.6893 70.3837 12.6893V21.6516H67.1267V12.6893ZM94.0163 12.6893C94.0176 12.69 94.5719 13.0096 95.6482 13.0096C96.7259 13.0096 97.2736 12.6893 97.2736 12.6893V21.6516H94.0163V12.6893ZM74.695 9.96064V21.6516H71.4377V9.96064H74.695ZM87.2523 9.96064C87.2526 9.96164 87.3873 10.2976 87.3873 11.297C87.3873 12.7726 87.0663 13.9736 86.9146 14.4313C86.8343 14.6736 86.691 15.0476 86.8966 15.0543C87.0153 15.0579 87.0866 14.8793 87.232 14.5693C87.3766 14.2589 88.094 12.4723 89.9793 12.4723C92.5763 12.4723 92.9583 14.5989 92.9583 16.9019V21.6512H89.701V16.7069C89.701 15.6929 89.4883 15.1893 88.8086 15.1893C87.988 15.1893 87.698 16.4599 87.698 17.1873V21.6512H84.4406V9.96031L87.2523 9.96064ZM100.761 12.677C100.761 12.679 100.917 13.3496 100.711 14.2266C100.606 14.6726 100.413 15.0519 100.646 15.0519C100.807 15.0519 100.807 14.9186 101.016 14.4406C101.322 13.742 101.966 12.4703 103.472 12.4703C104.969 12.4703 105.562 13.344 105.801 14.1543C105.961 14.6973 105.822 15.0519 106.03 15.0519C106.177 15.0519 106.228 14.7309 106.409 14.3249C106.734 13.5976 107.443 12.4703 108.876 12.4703C111.037 12.4703 111.863 14.0313 111.863 16.3729V21.6492H108.652V16.7849C108.652 15.9739 108.521 15.1873 107.781 15.1873C107.096 15.1873 106.777 16.4013 106.777 17.1849V21.6512H103.506V16.7853C103.506 15.7476 103.361 15.1876 102.631 15.1876C102 15.1876 101.631 16.3046 101.631 17.1853V21.6496H98.3739V12.677H100.761ZM68.7454 9.86997C67.6447 9.86997 66.7517 10.4526 66.7517 11.1713C66.7517 11.89 67.6444 12.4726 68.7454 12.4726C69.8467 12.4726 70.7394 11.89 70.7394 11.1713C70.7394 10.4526 69.8471 9.86997 68.7454 9.86997ZM95.6352 9.86997C94.5342 9.86997 93.6413 10.4526 93.6413 11.1713C93.6413 11.89 94.5339 12.4726 95.6352 12.4726C96.7362 12.4726 97.6292 11.89 97.6292 11.1713C97.6292 10.4526 96.7366 9.86997 95.6352 9.86997Z" fill="#111827"/>
<path fill-rule="evenodd" clip-rule="evenodd" d="M117.411 19.7181C116.665 19.7181 116.115 18.7711 116.115 17.4515C116.115 16.1698 116.679 15.1855 117.386 15.1855C118.291 15.1855 118.678 16.0165 118.678 17.4515C118.678 18.9445 118.322 19.7181 117.411 19.7181ZM118.305 12.4672C116.631 12.4672 115.864 13.7221 115.53 14.4371C115.31 14.9095 115.322 15.0485 115.16 15.0485C114.928 15.0485 115.121 14.6691 115.226 14.2231C115.432 13.3448 115.275 12.6738 115.275 12.6738H112.89V24.1214H116.146V20.4921C116.531 21.1458 117.245 21.8441 118.345 21.8441C120.7 21.8441 121.885 19.8518 121.885 17.1601C121.885 14.1095 120.467 12.4672 118.306 12.4672" fill="#111827"/>
<path fill-rule="evenodd" clip-rule="evenodd" d="M31.5757 15.1759C31.7947 15.1499 32.0044 15.1485 32.1974 15.1759C32.309 14.9199 32.3281 14.4789 32.2277 13.9985C32.0787 13.2845 31.8767 12.8525 31.4594 12.9199C31.0421 12.9872 31.0267 13.5045 31.1761 14.2182C31.26 14.6199 31.4094 14.9632 31.5757 15.1759Z" fill="#111827"/>
<path fill-rule="evenodd" clip-rule="evenodd" d="M27.9954 15.7409C28.2937 15.8719 28.4774 15.9589 28.549 15.8829C28.5954 15.8356 28.5814 15.7452 28.51 15.6289C28.3627 15.3886 28.0597 15.1446 27.738 15.0076C27.0807 14.7246 26.2964 14.8186 25.6914 15.2532C25.4917 15.3996 25.3024 15.6022 25.3294 15.7252C25.338 15.7649 25.368 15.7949 25.438 15.8049C25.6027 15.8236 26.178 15.5329 26.841 15.4922C27.3087 15.4636 27.6967 15.6099 27.9954 15.7409Z" fill="#111827"/>
<path fill-rule="evenodd" clip-rule="evenodd" d="M27.3962 16.0836C27.0072 16.1449 26.7928 16.2733 26.6552 16.3923C26.5378 16.4949 26.4652 16.6086 26.4658 16.6883C26.4662 16.7263 26.4825 16.7483 26.4955 16.7593C26.5132 16.7749 26.5342 16.7836 26.5595 16.7836C26.6472 16.7836 26.8442 16.7046 26.8442 16.7046C27.3852 16.5109 27.7422 16.5346 28.0958 16.5746C28.2912 16.5966 28.3838 16.6086 28.4265 16.5416C28.4392 16.5223 28.4545 16.4806 28.4155 16.4173C28.3245 16.2696 27.9315 16.0199 27.3962 16.0836Z" fill="#111827"/>
<path fill-rule="evenodd" clip-rule="evenodd" d="M30.3675 17.341C30.6315 17.4707 30.9222 17.4197 31.0169 17.2274C31.1115 17.035 30.9742 16.7737 30.7102 16.644C30.4462 16.5144 30.1555 16.5653 30.0609 16.7577C29.9662 16.9503 30.1035 17.2113 30.3675 17.341Z" fill="#111827"/>
<path fill-rule="evenodd" clip-rule="evenodd" d="M32.0651 15.8581C31.8508 15.8544 31.6728 16.0898 31.6678 16.3841C31.6628 16.6784 31.8328 16.9194 32.0471 16.9231C32.2614 16.9268 32.4394 16.6914 32.4444 16.3971C32.4494 16.1031 32.2794 15.8618 32.0651 15.8581Z" fill="#111827"/>
<path fill-rule="evenodd" clip-rule="evenodd" d="M17.6586 21.1612C17.6052 21.0942 17.5176 21.1146 17.4326 21.1346C17.3732 21.1486 17.3062 21.1639 17.2326 21.1629C17.0749 21.1599 16.9412 21.0926 16.8662 20.9772C16.7686 20.8272 16.7742 20.6036 16.8819 20.3476L16.9322 20.2329C17.1042 19.8469 17.3919 19.2013 17.0689 18.5859C16.8256 18.1226 16.4289 17.8343 15.9519 17.7736C15.4939 17.7156 15.0226 17.8853 14.7219 18.2169C14.2476 18.7402 14.1732 19.4526 14.2649 19.7042C14.2986 19.7962 14.3512 19.8219 14.3892 19.8272C14.4699 19.8379 14.5892 19.7792 14.6639 19.5782L14.6852 19.5129C14.7186 19.4066 14.7806 19.2086 14.8822 19.0499C15.0049 18.8586 15.1956 18.7269 15.4196 18.6786C15.6476 18.6296 15.8809 18.6733 16.0762 18.8013C16.4086 19.0186 16.5366 19.4259 16.3946 19.8142C16.3212 20.0152 16.2019 20.3996 16.2282 20.7152C16.2816 21.3542 16.6746 21.6109 17.0276 21.6382C17.3709 21.6512 17.6109 21.4582 17.6716 21.3176C17.7072 21.2342 17.6772 21.1836 17.6576 21.1619" fill="#111827"/>
<path fill-rule="evenodd" clip-rule="evenodd" d="M20.9241 9.42473C22.0441 8.13074 23.4224 7.00575 24.6574 6.37408C24.7001 6.35208 24.7454 6.39842 24.7224 6.44042C24.6244 6.61808 24.4354 6.99841 24.3757 7.28674C24.3664 7.33174 24.4154 7.36541 24.4534 7.33975C25.2217 6.81608 26.558 6.25475 27.7304 6.18275C27.7807 6.17975 27.805 6.24408 27.765 6.27508C27.5867 6.41175 27.3917 6.60108 27.2494 6.79242C27.225 6.82508 27.248 6.87175 27.2887 6.87208C28.1117 6.87808 29.272 7.16608 30.0284 7.59041C30.0794 7.61908 30.043 7.71807 29.9857 7.70507C28.8414 7.44274 26.9684 7.24375 25.0224 7.71841C23.2854 8.14208 21.9594 8.7964 20.9924 9.49973C20.9434 9.5354 20.8844 9.4704 20.9241 9.42473ZM26.5014 21.962L26.5017 21.9627L26.5024 21.964L26.5014 21.962ZM31.1194 22.507C31.1527 22.493 31.1754 22.4553 31.1717 22.4177C31.167 22.3713 31.1257 22.3377 31.0793 22.3423C31.0793 22.3423 28.6897 22.696 26.432 21.8697C26.678 21.0703 27.3317 21.359 28.32 21.4387C30.1014 21.545 31.698 21.2847 32.878 20.946C33.9003 20.6527 35.2433 20.074 36.2863 19.2507C36.638 20.0233 36.7623 20.874 36.7623 20.874C36.7623 20.874 37.0347 20.8253 37.2623 20.9653C37.4773 21.0977 37.635 21.3727 37.5273 22.084C37.308 23.4127 36.7433 24.4913 35.794 25.4836C35.216 26.1056 34.5147 26.6463 33.712 27.0396C33.2857 27.2636 32.832 27.4573 32.3523 27.6136C28.7737 28.7826 25.1104 27.4976 23.9297 24.7383C23.8354 24.531 23.7557 24.3137 23.6931 24.0867C23.1901 22.2683 23.6171 20.0867 24.9524 18.7134C25.0347 18.626 25.1187 18.5224 25.1187 18.3927C25.1187 18.2844 25.0497 18.17 24.9901 18.0887C24.5227 17.411 22.9044 16.2564 23.2294 14.0217C23.4627 12.4164 24.8667 11.2857 26.1757 11.3527L26.5074 11.3717C27.0747 11.4054 27.5694 11.4781 28.0364 11.4977C28.818 11.5317 29.5207 11.4181 30.3534 10.7244C30.634 10.4904 30.8594 10.2874 31.2404 10.2231C31.2803 10.2161 31.38 10.1804 31.579 10.1897C31.7823 10.2007 31.9757 10.2564 32.1493 10.3721C32.8167 10.8161 32.9113 11.8917 32.946 12.6784C32.9657 13.1274 33.02 14.214 33.0387 14.526C33.081 15.2394 33.2687 15.3397 33.648 15.4647C33.8613 15.535 34.0593 15.5874 34.3513 15.6694C35.2347 15.9174 35.7583 16.169 36.0887 16.4924C36.2857 16.6944 36.3773 16.909 36.4057 17.1137C36.5097 17.8737 35.8157 18.8123 33.978 19.6653C31.9693 20.5977 29.5324 20.8337 27.8487 20.646L27.2587 20.5793C25.912 20.398 25.1437 22.1383 25.952 23.331C26.473 24.0997 27.892 24.5997 29.3117 24.6C32.5667 24.6003 35.0687 23.2103 35.9993 22.01L36.0737 21.904C36.1197 21.835 36.0817 21.797 36.0247 21.836C35.2643 22.3563 31.887 24.422 28.2744 23.8003C28.2744 23.8003 27.8354 23.728 27.4347 23.5723C27.1164 23.4483 26.4497 23.1417 26.3687 22.458C29.284 23.3597 31.1194 22.507 31.1194 22.507ZM15.1064 15.5787C14.0924 15.7757 13.1988 16.3504 12.6525 17.1444C12.3258 16.872 11.7175 16.3447 11.6098 16.139C10.7375 14.4824 12.5618 11.2617 13.8364 9.44273C16.9864 4.94775 21.9197 1.54544 24.2034 2.16277C24.5747 2.26777 25.8044 3.69343 25.8044 3.69343C25.8044 3.69343 23.5214 4.96009 21.4044 6.72575C18.5518 8.92207 16.3974 12.1144 15.1064 15.5787ZM16.8101 23.1803C16.6568 23.2067 16.5001 23.217 16.3421 23.213C14.8164 23.172 13.1688 21.7987 13.0051 20.17C12.8241 18.3697 13.7441 16.9844 15.3728 16.6557C15.5674 16.6164 15.8028 16.5937 16.0564 16.607C16.9691 16.657 18.3138 17.3577 18.6208 19.3457C18.8928 21.1063 18.4608 22.899 16.8101 23.1803ZM37.4753 19.9923C37.4623 19.946 37.377 19.635 37.26 19.26C37.143 18.8847 37.022 18.621 37.022 18.621C37.4913 17.9187 37.4997 17.2904 37.437 16.9347C37.3703 16.4937 37.1867 16.118 36.8167 15.7294C36.4467 15.341 35.6897 14.943 34.626 14.6444L34.068 14.4894C34.0653 14.4664 34.0387 13.1737 34.0147 12.6187C33.997 12.2174 33.9627 11.5911 33.7683 10.9744C33.5367 10.1394 33.1333 9.40873 32.6297 8.9414C34.0197 7.50074 34.8873 5.91342 34.885 4.55209C34.881 1.93377 31.6653 1.14145 27.7024 2.78244L26.8627 3.13877C26.859 3.1351 25.3447 1.64944 25.3221 1.62944C20.8037 -2.31154 6.67715 13.3907 11.1935 17.2044L12.1805 18.0407C11.9245 18.704 11.8238 19.464 11.9061 20.281C12.0115 21.3307 12.5528 22.3367 13.4305 23.114C14.2634 23.852 15.3588 24.3193 16.4214 24.3183C18.1791 28.3686 22.1951 30.8533 26.9037 30.9933C31.9547 31.1433 36.1947 28.7733 37.9713 24.516C38.0876 24.2173 38.5806 22.871 38.5806 21.6823C38.5806 20.488 37.9053 19.9923 37.4753 19.9923Z" fill="#111827"/>
</svg>
