<svg width="116" height="42" viewBox="0 0 116 42" fill="none" xmlns="http://www.w3.org/2000/svg">
<path d="M63.2453 13.1824C58.8209 13.1824 55.2312 16.6388 55.2312 20.9046C55.2312 25.4399 58.6649 28.8302 63.2453 28.8302C67.7113 28.8302 71.2375 25.3951 71.2375 20.9937C71.2375 16.6184 67.7349 13.1824 63.2453 13.1824Z" fill="url(#paint0_linear_71_2096)"/>
<path d="M17.7486 13.464H13.4403V28.4912H17.7262C20.0001 28.4912 21.6447 27.9523 23.0873 26.7573C24.799 25.3377 25.8142 23.1971 25.8142 20.9849C25.8142 16.5482 22.4998 13.464 17.7486 13.464ZM21.1751 24.7503C20.2486 25.5862 19.056 25.9473 17.1606 25.9473H16.3732V16.0085H17.1606C19.056 16.0085 20.2029 16.3469 21.1751 17.2247C22.1888 18.1261 22.7934 19.5219 22.7934 20.9633C22.7934 22.4077 22.1888 23.8523 21.1751 24.7503ZM27.1672 28.4912H30.0952V13.464H27.1672V28.4912ZM37.2637 19.2283C35.504 18.5763 34.9861 18.1462 34.9861 17.3379C34.9861 16.3908 35.9081 15.6704 37.1721 15.6704C38.0508 15.6704 38.7718 16.0306 39.5403 16.8843L41.0705 14.8821C39.8088 13.7756 38.2993 13.2132 36.6527 13.2132C33.9965 13.2132 31.967 15.0617 31.967 17.5154C31.967 19.5903 32.9126 20.6482 35.6626 21.6422C36.8125 22.0457 37.397 22.3149 37.6906 22.4988C38.2763 22.882 38.5705 23.4208 38.5705 24.0514C38.5705 25.2699 37.6007 26.1699 36.2919 26.1699C34.8947 26.1699 33.7692 25.4722 33.0927 24.1654L31.2023 25.9927C32.5515 27.9727 34.1743 28.8543 36.4074 28.8543C39.4492 28.8543 41.5887 26.8237 41.5887 23.9178C41.5887 21.529 40.5997 20.4466 37.2637 19.2283ZM42.5122 20.9849C42.5122 25.4061 45.9834 28.8302 50.4463 28.8302C51.7079 28.8302 52.7894 28.5808 54.1203 27.9523V24.5029C52.9468 25.6758 51.9101 26.1478 50.5801 26.1478C47.6288 26.1478 45.5318 24.0066 45.5318 20.9633C45.5318 18.0804 47.6943 15.8042 50.4463 15.8042C51.8411 15.8042 52.902 16.2997 54.1203 17.4939V14.0447C52.836 13.3933 51.7751 13.125 50.5132 13.125C46.073 13.125 42.5122 16.6183 42.5122 20.9849ZM77.8695 23.5582L73.8583 13.464H70.6582L77.0377 28.875H78.6138L85.1047 13.464H81.9282L77.8695 23.5582ZM86.437 28.4912H94.7511V25.9473H89.3662V21.8883H94.5451V19.3438H89.3662V16.0085H94.7511V13.464H86.437V28.4912ZM106.353 17.8989C106.353 15.0838 104.418 13.464 101.036 13.464H96.6863V28.4912H99.6187V22.4516H100.002L104.056 28.4912H107.662L102.927 22.1612C105.139 21.7091 106.353 20.1987 106.353 17.8989ZM100.471 20.3805H99.6187V15.8269H100.518C102.348 15.8269 103.339 16.5954 103.339 18.0577C103.339 19.5664 102.348 20.3805 100.471 20.3805Z" fill="black"/>
<defs>
<linearGradient id="paint0_linear_71_2096" x1="58.3387" y1="14.6006" x2="69.1543" y2="26.0236" gradientUnits="userSpaceOnUse">
<stop stop-color="#F34F26"/>
<stop offset="1" stop-color="#F69E35"/>
</linearGradient>
</defs>
</svg>
