<svg width="119" height="32" viewBox="0 0 119 32" fill="none" xmlns="http://www.w3.org/2000/svg">
<path d="M17.6027 8.66411C21.6727 8.66411 24.9878 11.9792 24.9878 16.0821C24.9878 20.1849 21.6727 23.5 17.6027 23.5C13.5326 23.5 10.2175 20.2177 10.2175 16.0821C10.2175 11.9464 13.5326 8.66411 17.6027 8.66411ZM75.502 8.5V21.4978C75.502 22.4825 75.8959 22.7451 76.6508 22.942L76.6836 23.1061H72.5151V21.4978C72.0228 22.6794 71.0053 23.4015 69.6924 23.4015C67.4604 23.4015 65.9834 21.3665 65.9834 18.3468C65.9834 16.64 66.4757 15.1958 67.3948 14.1127C68.281 13.0624 69.4954 12.5044 70.8412 12.5044C71.4976 12.5044 72.0556 12.6357 72.5151 12.9311V11.1586C72.5151 10.7648 72.4167 10.5022 72.2197 10.3053C71.9571 10.0755 71.5304 9.97702 70.874 10.0427H70.8412V9.87856L75.502 8.5ZM91.3226 12.5372V21.4978C91.3226 22.4825 91.7164 22.7451 92.4714 22.942V23.1061H88.3029V21.465C87.8105 22.6466 86.7274 23.4015 85.5129 23.4015C84.0687 23.4015 83.1497 22.7451 82.7887 21.465L82.723 21.1368C82.6574 20.8085 82.6245 20.4803 82.6245 20.1521V15.36C82.6245 14.3096 82.3948 13.9814 81.4757 13.9158H81.4429V13.7516L85.6114 12.5372V20.0864C85.6114 21.2024 86.1038 21.826 87.0228 21.826C87.5808 21.826 88.0403 21.5306 88.3029 21.0383V15.36C88.3029 14.2768 88.1059 13.9486 87.351 13.8829H87.3182V13.7188L91.3226 12.5372ZM61.2241 12.5044C62.3401 12.5044 63.4232 12.8982 64.1453 13.5875C64.9659 14.3753 65.3926 15.5241 65.4254 17.0339V17.0667H59.1563C59.025 19.233 60.3707 21.0055 62.1431 21.0711C63.4232 21.1696 64.5392 20.3818 65.1628 19.1017L65.327 19.1674C64.9659 21.5635 63.5545 23.3687 61.0928 23.3687C58.3029 23.3687 56.7274 21.0383 56.6617 18.1171V17.3621C56.793 16.0821 57.1869 14.9333 57.8762 14.0799C58.3029 13.5547 58.7952 13.1608 59.386 12.8982C59.8784 12.6357 60.6005 12.5044 61.1913 12.5044H61.2241ZM104.649 12.5372C106.421 12.5372 107.504 13.6532 107.504 15.5569V21.6619C107.504 22.384 107.832 22.7451 108.653 22.942H108.686V23.1061H104.485V15.6554C104.485 14.4737 104.058 13.8829 103.172 13.8829C102.449 13.8829 102.088 14.4081 101.892 14.8676C101.924 15.0974 101.957 15.3271 101.957 15.5569V21.7604C101.957 22.5153 102.187 22.7779 102.843 22.942H102.876V23.1061H98.9703V15.6554C98.9703 14.4737 98.5108 13.8829 97.6574 13.8829C96.9681 13.8829 96.607 14.3753 96.4429 14.7691V21.7932C96.4429 22.5481 96.6727 22.8107 97.3291 22.9748H97.362V23.1389H93.4561V15.3271C93.4561 14.2768 93.1935 13.9486 92.3073 13.8829H92.2744V13.7188L96.4429 12.57V14.3096C96.8696 13.1937 97.8543 12.5372 99.1016 12.5372C100.513 12.5372 101.498 13.2265 101.826 14.4737C102.253 13.2921 103.336 12.5372 104.649 12.5372ZM44.7799 9.15646L48.6858 18.314L52.5917 9.15646H56.793L56.7602 9.32057L56.7125 9.33118C55.9887 9.49615 55.6114 9.76682 55.6114 10.6663V21.826C55.6771 22.5481 56.0709 22.7779 56.7602 22.942H56.793V23.1061H51.4429V22.942H51.4757C52.165 22.7779 52.5589 22.5481 52.6245 21.826V10.9617L47.4714 23.0733H47.176L42.1541 11.2899V21.5635C42.1541 22.4825 42.548 22.7451 43.3029 22.9092H43.3357V23.0733H40.2504V22.9092H40.2832C41.0381 22.7451 41.432 22.4825 41.432 21.5635V10.6663C41.432 9.74726 41.0381 9.48468 40.2832 9.32057H40.2504V9.15646H44.7799ZM80.5895 12.5372V21.4978L80.59 21.5584C80.6061 22.4934 80.9991 22.7492 81.7383 22.942L81.7712 23.1061H77.6027V15.36C77.6027 14.3096 77.3729 13.9814 76.4539 13.9158H76.421V13.7516L80.5895 12.5372ZM29.4188 9.09081C31.421 9.09081 33.095 12.2418 33.095 16.0821C33.095 19.9551 31.4539 23.0733 29.4188 23.0733C27.3838 23.0733 25.7427 19.9551 25.7427 16.0821C25.7427 12.209 27.3838 9.09081 29.4188 9.09081ZM35.0644 9.81291C35.8193 9.81291 36.3773 12.6357 36.3773 16.0821C36.3773 19.5284 35.7865 22.3512 35.0644 22.3512C34.3495 22.3512 33.7633 19.5846 33.7516 16.1853L33.7514 16.0821C33.7514 12.6357 34.3423 9.81291 35.0644 9.81291ZM71.3335 13.0952C70.0206 13.0952 69.2 14.8348 69.2 17.5263C69.2 18.8063 69.4298 19.9223 69.8237 20.6772C70.1847 21.3993 70.7099 21.7932 71.3007 21.7932C71.8915 21.7932 72.3182 21.5306 72.5151 21.0383V13.8173C72.2854 13.3578 71.8587 13.0952 71.3335 13.0952ZM61.1913 13.128C60.0097 13.128 59.3204 14.5394 59.2219 16.5088V16.5416H62.7996C62.8652 14.9989 62.6027 13.9814 62.1103 13.4891C61.8477 13.2593 61.5523 13.128 61.1913 13.128ZM78.9812 8.59847C79.9331 8.59847 80.6552 9.32057 80.6552 10.2724C80.6552 11.2243 79.9331 11.9464 78.9812 11.9464C78.0294 11.9464 77.3073 11.2243 77.3073 10.2724C77.3073 9.32057 78.0294 8.59847 78.9812 8.59847Z" fill="#111827"/>
</svg>
