<svg width="102" height="32" viewBox="0 0 102 32" fill="none" xmlns="http://www.w3.org/2000/svg">
<path d="M36.1683 21.8153L37.147 19.5277C38.2187 20.3213 39.6165 20.7414 41.0146 20.7414C42.0397 20.7414 42.692 20.3447 42.692 19.7379C42.6686 18.0571 36.5178 19.3643 36.471 15.1385C36.4476 12.9909 38.3583 11.3335 41.0613 11.3335C42.6686 11.3335 44.2766 11.7305 45.418 12.6411L44.5035 14.9775C43.4532 14.3022 42.156 13.8313 40.9214 13.8313C40.0826 13.8313 39.5232 14.228 39.5232 14.7419C39.5466 16.3993 45.7445 15.4888 45.8144 19.5277C45.8144 21.7221 43.9501 23.2629 41.2939 23.2629C39.3371 23.2629 37.5434 22.7961 36.1683 21.8153ZM75.1403 18.6993C74.8932 19.1383 74.5338 19.5036 74.099 19.7579C73.6642 20.0121 73.1696 20.1461 72.6659 20.1462C71.096 20.1462 69.8235 18.8711 69.8235 17.2982C69.8235 15.7253 71.096 14.4502 72.6659 14.4502C73.1696 14.4502 73.6642 14.5843 74.099 14.8385C74.5338 15.0927 74.8932 15.4581 75.1403 15.8971L77.8613 14.3867C76.8421 12.5652 74.898 11.3335 72.6659 11.3335C69.3781 11.3335 66.7129 14.0037 66.7129 17.2982C66.7129 20.5923 69.3781 23.2629 72.6659 23.2629C74.898 23.2629 76.8421 22.0312 77.8613 20.2097L75.1403 18.6993ZM47.5801 23.0293H50.9817V6.36829H47.5804L47.5801 23.0293ZM79.5792 6.36829V23.0293H82.9809V18.0377L87.0118 23.0293H91.36L86.2339 17.0994L90.987 11.5661H86.8254L82.9809 16.1664V6.36829H79.5792ZM61.4619 11.5668V12.9211C60.9029 11.9871 59.5281 11.3335 58.0836 11.3335C55.1012 11.3335 52.7481 13.9717 52.7481 17.2865C52.7481 20.6013 55.1012 23.2629 58.0836 23.2629C59.5281 23.2629 60.9029 22.6092 61.4619 21.6753V23.0293H64.8636V11.5668H61.4619ZM61.4619 18.7224C60.9727 19.5394 59.9475 20.1459 58.806 20.1459C57.2359 20.1459 55.9634 18.8711 55.9634 17.2982C55.9634 15.7253 57.2359 14.4502 58.806 14.4502C59.9475 14.4502 60.9727 15.0804 61.4619 15.9205V18.7224Z" fill="#111827"/>
<path d="M18.2037 6C17.1013 6 16.2078 6.89554 16.2078 7.99993C16.2075 8.26229 16.2589 8.52215 16.3591 8.76465C16.4593 9.00715 16.6062 9.22754 16.7915 9.41326C16.9769 9.59897 17.197 9.74636 17.4393 9.847C17.6816 9.94765 17.9413 9.99959 18.2037 9.99985H20.1999V7.99993C20.2004 7.47001 19.9903 6.96163 19.616 6.58657C19.2416 6.21153 18.7336 6.00053 18.2037 6ZM18.2037 11.3331H12.8809C11.7785 11.3331 10.885 12.2287 10.885 13.3334C10.885 14.4378 11.7785 15.3333 12.8809 15.3333H18.204C19.3061 15.3333 20.1999 14.4378 20.1999 13.3334C20.1999 12.2287 19.3061 11.3331 18.2037 11.3331Z" fill="#2FBDEE"/>
<path d="M30.8455 13.3334C30.8455 12.2287 29.9516 11.3331 28.8492 11.3331C27.7468 11.3331 26.8534 12.2287 26.8534 13.3334V15.3333H28.8492C29.3792 15.3328 29.8871 15.1218 30.2615 14.7468C30.6359 14.3717 30.8459 13.8633 30.8455 13.3334ZM25.5227 13.3334V7.99993C25.5231 7.47001 25.3131 6.96163 24.9387 6.58657C24.5644 6.21153 24.0564 6.00053 23.5264 6C22.424 6 21.5306 6.89554 21.5306 7.99993V13.3331C21.5306 14.4381 22.424 15.3337 23.5264 15.3337C24.0564 15.3331 24.5644 15.1221 24.9387 14.7471C25.3131 14.372 25.5231 13.8633 25.5227 13.3334Z" fill="#29AD72"/>
<path d="M23.5264 26C24.0564 25.9995 24.5644 25.7885 24.9387 25.4134C25.3131 25.0384 25.5231 24.53 25.5227 24.0001C25.5231 23.4702 25.3131 22.9618 24.9387 22.5867C24.5644 22.2117 24.0564 22.0007 23.5264 22.0002H21.5306V24.0001C21.5306 25.1045 22.424 26 23.5264 26ZM23.5264 20.6669H28.8495C29.9516 20.6669 30.8455 19.7714 30.8455 18.6667C30.8459 18.1367 30.6359 17.6283 30.2615 17.2533C29.8871 16.8783 29.3792 16.6673 28.8492 16.6667H23.5264C22.424 16.6667 21.5306 17.5623 21.5306 18.6667C21.5302 18.929 21.5817 19.1888 21.6819 19.4313C21.782 19.6739 21.929 19.8942 22.1143 20.08C22.2997 20.2656 22.5197 20.413 22.7621 20.5137C23.0044 20.6143 23.2641 20.6666 23.5264 20.6669Z" fill="#E9A929"/>
<path d="M10.885 18.6667C10.8847 18.929 10.9362 19.1888 11.0363 19.4313C11.1365 19.6739 11.2834 19.8942 11.4688 20.08C11.6541 20.2656 11.8742 20.413 12.1165 20.5137C12.3588 20.6143 12.6186 20.6663 12.8809 20.6665C13.4108 20.666 13.9188 20.455 14.2932 20.08C14.6676 19.7049 14.8776 19.1965 14.8772 18.6667V16.6667H12.8809C11.7785 16.6667 10.885 17.5623 10.885 18.6667ZM16.2078 18.6667V23.9998C16.2078 25.1045 17.1013 26 18.2037 26C18.7336 25.9995 19.2416 25.7885 19.616 25.4134C19.9903 25.0384 20.2004 24.53 20.1999 24.0001V18.6667C20.2002 18.4043 20.1488 18.1443 20.0486 17.9018C19.9485 17.6593 19.8014 17.4389 19.6161 17.2532C19.4307 17.0674 19.2106 16.9201 18.9682 16.8195C18.7259 16.7188 18.4661 16.6669 18.2037 16.6667C17.1013 16.6667 16.2078 17.5623 16.2078 18.6667Z" fill="#DC1C50"/>
</svg>
