<svg width="226" height="42" viewBox="0 0 226 42" fill="none" xmlns="http://www.w3.org/2000/svg">
<path fill-rule="evenodd" clip-rule="evenodd" d="M53.3354 20.863H59.2455C58.8519 19.3615 57.7736 18.7528 56.4604 18.7528C55.0166 18.7528 53.8594 19.5398 53.3354 20.863ZM62.7128 23.4308H53.1257C53.5193 25.3646 55.1471 26.0772 56.5653 26.0772C58.3514 26.0772 59.1149 25.0086 59.1149 25.0086H62.424C61.4252 27.5515 59.0358 28.9494 56.4605 28.9494C52.914 28.9494 49.8147 26.3299 49.8147 22.3642C49.8147 18.4215 52.8882 15.98 56.3555 15.98C59.7182 15.98 63.1342 18.2432 62.7128 23.4308Z" fill="#5423E7"/>
<path fill-rule="evenodd" clip-rule="evenodd" d="M95.282 22.4655C95.282 20.4817 94.0735 18.9308 92.0777 18.9308C90.0802 18.9308 88.7409 20.4817 88.7409 22.4655C88.7409 24.4494 90.0802 26.0003 92.0777 26.0003C94.0735 26.0003 95.282 24.4494 95.282 22.4655ZM85.2993 22.4903C85.2993 18.4215 88.557 15.98 92.0776 15.98C95.6241 15.98 98.7234 18.4463 98.7234 22.4386C98.7234 26.4829 95.5171 28.9491 91.9709 28.9491C88.3986 28.9491 85.2993 26.4829 85.2993 22.4903Z" fill="#5423E7"/>
<path fill-rule="evenodd" clip-rule="evenodd" d="M112.785 21.9316V28.823H109.29V22.6935C109.29 22.2608 109.606 19.0571 107.084 18.9311C105.848 18.8544 103.642 19.5147 103.642 22.8468V28.823H100.175V16.1064H103.358L103.368 17.8717C103.368 17.8717 104.803 15.98 107.48 15.98C110.868 15.98 112.785 18.4215 112.785 21.9316Z" fill="#5423E7"/>
<path fill-rule="evenodd" clip-rule="evenodd" d="M125.56 18.6762C124.457 18.6762 123.984 19.2104 123.984 19.7447C123.984 20.6083 125.167 20.863 125.954 21.0163C128.294 21.4986 130.658 22.1862 130.658 24.8801C130.658 27.4998 128.425 28.9494 125.719 28.9494C122.699 28.9494 120.361 27.1705 120.202 24.4744H123.432C123.512 25.2364 124.038 26.2282 125.64 26.2282C126.979 26.2282 127.296 25.543 127.296 25.0086C127.296 24.0664 126.375 23.7868 125.482 23.5838C123.933 23.2525 120.596 22.6438 120.596 19.7447C120.596 17.2516 123.066 15.98 125.614 15.98C128.555 15.98 130.5 17.7092 130.658 19.8461H127.425C127.321 19.4134 126.902 18.6762 125.56 18.6762Z" fill="#5423E7"/>
<path fill-rule="evenodd" clip-rule="evenodd" d="M141.278 22.4655C141.278 20.3534 140.095 19.1088 138.389 19.1088C136.786 19.1088 135.182 20.227 135.182 22.4655C135.182 24.7021 136.786 25.8223 138.389 25.8223C140.095 25.8223 141.278 24.5757 141.278 22.4655ZM144.562 16.1064V33.9087H141.278V27.5762C140.438 28.4915 139.255 28.9491 137.888 28.9491C134.554 28.9491 131.768 26.3049 131.768 22.4655C131.768 18.6242 134.554 15.98 137.888 15.98C140.509 15.98 141.491 17.6832 141.491 17.6832L141.485 16.1064H144.562Z" fill="#5423E7"/>
<path fill-rule="evenodd" clip-rule="evenodd" d="M163.333 20.863H169.244C168.85 19.3615 167.772 18.7528 166.459 18.7528C165.015 18.7528 163.857 19.5398 163.333 20.863ZM172.711 23.4308H163.122C163.518 25.3646 165.145 26.0772 166.563 26.0772C168.349 26.0772 169.113 25.0086 169.113 25.0086H172.422C171.424 27.5515 169.034 28.9494 166.459 28.9494C162.912 28.9494 159.812 26.3299 159.812 22.3642C159.812 18.4215 162.887 15.98 166.354 15.98C169.716 15.98 173.133 18.2432 172.711 23.4308Z" fill="#5423E7"/>
<path fill-rule="evenodd" clip-rule="evenodd" d="M177.29 20.863H183.2C182.807 19.3615 181.729 18.7528 180.415 18.7528C178.971 18.7528 177.814 19.5398 177.29 20.863ZM186.668 23.4308H177.081C177.474 25.3646 179.101 26.0772 180.52 26.0772C182.306 26.0772 183.069 25.0086 183.069 25.0086H186.379C185.38 27.5515 182.991 28.9494 180.415 28.9494C176.869 28.9494 173.769 26.3299 173.769 22.3642C173.769 18.4215 176.843 15.98 180.31 15.98C183.673 15.98 187.089 18.2432 186.668 23.4308Z" fill="#5423E7"/>
<path fill-rule="evenodd" clip-rule="evenodd" d="M198.364 25.9756V28.8227H187.2V27.1436L193.532 18.9558H187.464V16.1064H198.103V17.7856L191.771 25.9756H198.364Z" fill="#5423E7"/>
<path fill-rule="evenodd" clip-rule="evenodd" d="M212.031 16.1064V27.5515C212.031 30.9849 210.217 34.0373 205.726 34.0373C201.523 34.0373 199.238 31.3659 199.238 29.3574H202.521C202.521 29.3574 203.02 31.0615 205.621 31.0615C207.828 31.0615 208.748 29.8396 208.748 28.0608V27.5265C208.168 28.1624 207.067 28.9494 205.097 28.9494C201.655 28.9494 199.501 26.5348 199.501 22.9999L199.473 16.1064H202.889V22.2359C202.889 23.9648 203.521 26.0006 205.7 26.0006C206.83 26.0006 208.694 25.4663 208.694 22.0826V16.1064H212.031Z" fill="#5423E7"/>
<path fill-rule="evenodd" clip-rule="evenodd" d="M47.3146 25.0055C47.3146 25.7985 47.627 26.1257 48.2067 26.1257C48.6151 26.1257 48.8804 26.0782 49.2674 25.9622L49.4837 28.5755C48.7605 28.8074 48.0613 28.9482 47.1692 28.9482C45.1222 28.9482 43.8687 28.2959 43.8687 25.4715V11.0206H47.3146V25.0055Z" fill="#5423E7"/>
<path fill-rule="evenodd" clip-rule="evenodd" d="M83.8167 21.9316V28.823H80.3214V22.6935C80.3214 20.9396 80.5057 18.7261 78.0884 18.9311C77.4596 18.9808 75.7248 19.2601 75.7248 22.8468V28.823H72.2575V22.6935C72.2575 20.9396 72.4414 18.7261 70.0245 18.9311C69.3934 18.9808 67.6609 19.2601 67.6609 22.8468V28.823H64.1935V16.1064H67.3766L67.3795 17.8717C67.3795 17.8717 68.596 15.98 70.8649 15.98C73.599 15.98 74.6722 18.0394 74.6722 18.0394C74.6722 18.0394 75.8493 15.9553 78.852 15.9553C82.266 15.9553 83.8167 18.3968 83.8167 21.9316Z" fill="#5423E7"/>
<path fill-rule="evenodd" clip-rule="evenodd" d="M146.035 22.9979V16.1064H149.531V22.2359C149.531 22.6685 149.214 25.8722 151.736 25.9984C152.973 26.075 155.178 25.4146 155.178 22.0826V16.1064H158.645V28.823H155.467L155.452 27.0577C155.452 27.0577 154.016 28.9494 151.34 28.9494C147.952 28.9494 146.035 26.5079 146.035 22.9979Z" fill="#5423E7"/>
<path fill-rule="evenodd" clip-rule="evenodd" d="M19.9054 23.9867L26.9479 27.2426C27.8208 27.6463 28.4369 28.3239 28.7696 29.1012C29.6112 31.0695 28.461 33.0825 26.6554 33.8065C24.8494 34.5301 22.9247 34.0644 22.0496 32.0176L18.9847 24.8314C18.7472 24.2744 19.3438 23.727 19.9054 23.9867Z" fill="#FFC233"/>
<path fill-rule="evenodd" clip-rule="evenodd" d="M20.3276 21.879L27.5973 19.1309C30.0134 18.2176 32.6526 19.9457 32.6169 22.4565C32.6164 22.4893 32.6158 22.5221 32.615 22.5551C32.5627 25.0002 29.9969 26.6436 27.6339 25.7786L20.3345 23.1069C19.7522 22.8939 19.7479 22.0981 20.3276 21.879Z" fill="#FFC233"/>
<path fill-rule="evenodd" clip-rule="evenodd" d="M19.9206 20.9271L27.067 17.8906C29.4417 16.8814 30.0444 13.8526 28.1845 12.1026C28.1601 12.0795 28.1357 12.0568 28.1111 12.034C26.2876 10.3415 23.2732 10.9374 22.2351 13.1667L19.0282 20.0543C18.7724 20.6036 19.3506 21.1692 19.9206 20.9271Z" fill="#FFC233"/>
<path fill-rule="evenodd" clip-rule="evenodd" d="M18.0815 19.7272L20.6797 12.603C21.0018 11.7196 20.9422 10.8188 20.6092 10.0415C19.7658 8.07409 17.482 7.43901 15.6766 8.16407C13.8716 8.8894 12.8515 10.5367 13.7284 12.5827L16.8134 19.761C17.0526 20.3173 17.8744 20.2954 18.0815 19.7272Z" fill="#FFC233"/>
</svg>
