<svg width="122" height="42" viewBox="0 0 122 42" fill="none" xmlns="http://www.w3.org/2000/svg">
<path d="M99.3319 17.9655C100.478 17.9655 101.407 17.0363 101.407 15.8902C101.407 14.7441 100.478 13.815 99.3319 13.815C98.1859 13.815 97.2567 14.7441 97.2567 15.8902C97.2567 17.0363 98.1859 17.9655 99.3319 17.9655Z" fill="#FF4500"/>
<path d="M69.6911 24.7394C70.7092 24.7394 71.2965 23.9758 71.2574 23.2318C71.2378 22.8403 71.1986 22.5858 71.1595 22.39C70.533 19.6883 68.3403 17.6913 65.7364 17.6913C62.6431 17.6913 60.1371 20.4909 60.1371 23.9367C60.1371 27.3824 62.6431 30.182 65.7364 30.182C67.6746 30.182 69.0646 29.4772 70.0631 28.3613C70.5526 27.8131 70.4547 26.9712 69.8673 26.5601C69.3779 26.2273 68.771 26.3447 68.3207 26.7167C67.89 27.0887 67.0677 27.8327 65.7364 27.8327C64.1702 27.8327 62.8389 26.4818 62.5452 24.7002H69.6911V24.7394ZM65.7168 20.0602C67.1264 20.0602 68.3403 21.1566 68.7906 22.6641H62.6431C63.0934 21.137 64.3072 20.0602 65.7168 20.0602Z" fill="#737373"/>
<path d="M60.2545 18.9247C60.2545 18.3374 59.8238 17.8675 59.2756 17.7696C57.5723 17.5151 55.967 18.1416 55.0468 19.2967V19.14C55.0468 18.4157 54.4595 17.9654 53.8721 17.9654C53.226 17.9654 52.6974 18.494 52.6974 19.14V28.7332C52.6974 29.3597 53.1673 29.9079 53.7938 29.9471C54.479 29.9862 55.0468 29.4576 55.0468 28.7724V23.8192C55.0468 21.6264 56.6913 19.8253 58.9624 20.0798C59.0407 20.0798 59.119 20.0798 59.1973 20.0798C59.7846 20.0406 60.2545 19.5316 60.2545 18.9247Z" fill="#737373"/>
<path d="M100.507 20.1777C100.507 19.5316 99.978 19.003 99.332 19.003C98.6859 19.003 98.1573 19.5316 98.1573 20.1777C98.1573 20.2168 98.1573 28.4004 98.1573 28.7724C98.1573 29.4184 98.6859 29.947 99.332 29.947C99.978 29.947 100.507 29.4184 100.507 28.7724C100.507 28.42 100.507 20.2364 100.507 20.1777Z" fill="#737373"/>
<path d="M83.0432 13.6778C83.0432 13.0318 82.5146 12.5032 81.8685 12.5032C81.2225 12.5032 80.6938 13.0318 80.6938 13.6778V18.9051C79.8912 18.1024 78.8927 17.7109 77.6984 17.7109C74.6051 17.7109 72.0992 20.5105 72.0992 23.9562C72.0992 27.402 74.6051 30.2016 77.6984 30.2016C78.8927 30.2016 79.9107 29.7905 80.7134 28.9878C80.8113 29.5359 81.3008 29.9471 81.8685 29.9471C82.5146 29.9471 83.0432 29.4185 83.0432 28.7724V13.6778ZM77.718 27.8718C75.9168 27.8718 74.4681 26.1294 74.4681 23.9562C74.4681 21.8027 75.9168 20.0407 77.718 20.0407C79.5192 20.0407 80.9679 21.7831 80.9679 23.9562C80.9679 26.1294 79.4996 27.8718 77.718 27.8718Z" fill="#737373"/>
<path d="M95.299 13.6778C95.299 13.0318 94.7704 12.5032 94.1243 12.5032C93.4783 12.5032 92.9497 13.0318 92.9497 13.6778V18.9051C92.147 18.1024 91.1485 17.7109 89.9543 17.7109C86.8609 17.7109 84.355 20.5105 84.355 23.9562C84.355 27.402 86.8609 30.2016 89.9543 30.2016C91.1485 30.2016 92.1665 29.7905 92.9692 28.9878C93.0671 29.5359 93.5566 29.9471 94.1243 29.9471C94.7704 29.9471 95.299 29.4185 95.299 28.7724V13.6778ZM89.9543 27.8718C88.1531 27.8718 86.7043 26.1294 86.7043 23.9562C86.7043 21.8027 88.1531 20.0407 89.9543 20.0407C91.7554 20.0407 93.2042 21.7831 93.2042 23.9562C93.2042 26.1294 91.7554 27.8718 89.9543 27.8718Z" fill="#737373"/>
<path d="M106.458 28.792V20.0602H107.496C108.044 20.0602 108.533 19.6491 108.573 19.0814C108.612 18.4744 108.122 17.9654 107.535 17.9654H106.458V16.3209C106.458 15.6944 105.988 15.1462 105.362 15.107C104.677 15.0679 104.109 15.5965 104.109 16.2817V17.985H103.13C102.582 17.985 102.092 18.3961 102.053 18.9639C102.014 19.5708 102.503 20.0798 103.091 20.0798H104.089V28.8116C104.089 29.4576 104.618 29.9862 105.264 29.9862C105.949 29.9471 106.458 29.4381 106.458 28.792Z" fill="#737373"/>
<path d="M29.7131 37.4062C38.7739 37.4062 46.1193 30.0608 46.1193 21C46.1193 11.9391 38.7739 4.59375 29.7131 4.59375C20.6521 4.59375 13.3068 11.9391 13.3068 21C13.3068 30.0608 20.6521 37.4062 29.7131 37.4062Z" fill="#FF4500"/>
<path d="M40.6572 21C40.6572 19.6687 39.5804 18.6115 38.2687 18.6115C37.6226 18.6115 37.0353 18.866 36.6045 19.2771C34.96 18.1024 32.7086 17.3389 30.2026 17.241L31.299 12.1116L34.8621 12.8752C34.9013 13.7757 35.6452 14.5001 36.5654 14.5001C37.5051 14.5001 38.2687 13.7366 38.2687 12.7968C38.2687 11.8571 37.5051 11.0936 36.5654 11.0936C35.8997 11.0936 35.3124 11.4851 35.0383 12.0529L31.064 11.211C30.9466 11.1915 30.8291 11.211 30.7508 11.2698C30.6529 11.3285 30.5942 11.4264 30.5746 11.5439L29.3608 17.2606C26.8156 17.3389 24.525 18.1024 22.8609 19.2967C22.4302 18.8856 21.8429 18.631 21.1968 18.631C19.8655 18.631 18.8083 19.7078 18.8083 21.0195C18.8083 21.9984 19.3956 22.8207 20.2179 23.1927C20.1787 23.4276 20.1592 23.6626 20.1592 23.9171C20.1592 27.5977 24.4467 30.5931 29.7327 30.5931C35.0187 30.5931 39.3063 27.6173 39.3063 23.9171C39.3063 23.6821 39.2867 23.4276 39.2476 23.1927C40.0698 22.8207 40.6572 21.9789 40.6572 21ZM24.2509 22.7032C24.2509 21.7635 25.0145 21 25.9542 21C26.8939 21 27.6575 21.7635 27.6575 22.7032C27.6575 23.643 26.8939 24.4065 25.9542 24.4065C25.0145 24.4261 24.2509 23.643 24.2509 22.7032ZM33.7853 27.2257C32.6107 28.4004 30.3788 28.4787 29.7327 28.4787C29.0671 28.4787 26.8352 28.3808 25.6801 27.2257C25.5039 27.0495 25.5039 26.7754 25.6801 26.5992C25.8563 26.423 26.1304 26.423 26.3066 26.5992C27.0506 27.3432 28.6168 27.5977 29.7327 27.5977C30.8487 27.5977 32.4345 27.3432 33.1588 26.5992C33.335 26.423 33.6091 26.423 33.7853 26.5992C33.942 26.7754 33.942 27.0495 33.7853 27.2257ZM33.4721 24.4261C32.5324 24.4261 31.7688 23.6626 31.7688 22.7228C31.7688 21.7831 32.5324 21.0195 33.4721 21.0195C34.4118 21.0195 35.1754 21.7831 35.1754 22.7228C35.1754 23.643 34.4118 24.4261 33.4721 24.4261Z" fill="white"/>
</svg>
