<svg width="125" height="42" viewBox="0 0 125 42" fill="none" xmlns="http://www.w3.org/2000/svg">
<path d="M27.1478 32.433C25.6867 32.6896 24.1998 32.7665 22.6618 32.9714L17.9705 19.2313V33.5611C16.5094 33.7149 15.1764 33.9199 13.7921 34.125V7.875H17.6887L23.0206 22.769V7.875H27.1478V32.433ZM35.2228 17.488C36.8123 17.488 39.2475 17.4111 40.7087 17.4111V21.5126C38.8885 21.5126 36.7609 21.5126 35.2228 21.5895V27.6907C37.6325 27.5369 40.0422 27.3317 42.4774 27.2547V31.2023L31.1211 32.0997V7.875H42.4774V11.9766H35.2228V17.488ZM57.73 11.9767H53.4747V30.8438C52.0904 30.8438 50.7061 30.8438 49.3733 30.8949V11.9767H45.118V7.875H57.7302L57.73 11.9767ZM64.395 17.2061H70.0091V21.3076H64.395V30.6131H60.3701V7.875H71.8292V11.9766H64.395V17.2061ZM78.4942 27.0242C80.827 27.0753 83.1853 27.255 85.4669 27.383V31.4333C81.8012 31.2025 78.1354 30.9721 74.3927 30.8949V7.875H78.4942V27.0242ZM88.9275 31.7153C90.2349 31.7924 91.6192 31.8693 92.9522 32.0229V7.875H88.9275V31.7153ZM110.922 7.875L105.718 20.3592L110.922 34.125C109.384 33.9199 107.846 33.6379 106.308 33.3815L103.36 25.7938L100.361 32.7665C98.8739 32.5099 97.4384 32.433 95.9518 32.2279L101.233 20.2052L96.4643 7.875H100.873L103.565 14.7708L106.436 7.875H110.922V7.875Z" fill="#D81F26"/>
</svg>
