<svg width="48" height="48" viewBox="0 0 48 48" fill="none" xmlns="http://www.w3.org/2000/svg">
<path fill-rule="evenodd" clip-rule="evenodd" d="M12 16.5H36C37.9891 16.5 39.8968 17.2902 41.3033 18.6967C42.7098 20.1032 43.5 22.0109 43.5 24C43.5 25.9891 42.7098 27.8968 41.3033 29.3033C39.8968 30.7098 37.9891 31.5 36 31.5H12C10.0109 31.5 8.10322 30.7098 6.6967 29.3033C5.29018 27.8968 4.5 25.9891 4.5 24C4.5 22.0109 5.29018 20.1032 6.6967 18.6967C8.10322 17.2902 10.0109 16.5 12 16.5ZM0 24C0 20.8174 1.26428 17.7652 3.51472 15.5147C5.76516 13.2643 8.8174 12 12 12H36C39.1826 12 42.2348 13.2643 44.4853 15.5147C46.7357 17.7652 48 20.8174 48 24C48 27.1826 46.7357 30.2348 44.4853 32.4853C42.2348 34.7357 39.1826 36 36 36H12C8.8174 36 5.76516 34.7357 3.51472 32.4853C1.26428 30.2348 0 27.1826 0 24ZM12 21C11.2044 21 10.4413 21.3161 9.87868 21.8787C9.31607 22.4413 9 23.2044 9 24C9 24.7956 9.31607 25.5587 9.87868 26.1213C10.4413 26.6839 11.2044 27 12 27H27C27.7956 27 28.5587 26.6839 29.1213 26.1213C29.6839 25.5587 30 24.7956 30 24C30 23.2044 29.6839 22.4413 29.1213 21.8787C28.5587 21.3161 27.7956 21 27 21H12Z" fill="#9AD3BC"/>
</svg>
