<svg width="49" height="48" viewBox="0 0 49 48" fill="none" xmlns="http://www.w3.org/2000/svg">
<path d="M43.6265 5.04482C43.6105 4.96788 43.573 4.89709 43.5181 4.84079C43.4633 4.78449 43.3936 4.74501 43.3171 4.727C38.219 3.48013 26.4421 7.92294 20.0549 14.3054C18.9166 15.4345 17.8786 16.6603 16.9527 17.9692C14.984 17.7911 13.0152 17.9411 11.339 18.6723C6.60554 20.7536 5.22836 26.1892 4.84398 28.5226C4.82316 28.6505 4.83205 28.7814 4.86998 28.9053C4.9079 29.0292 4.97384 29.1426 5.06269 29.2369C5.15153 29.3312 5.26089 29.4038 5.38228 29.449C5.50368 29.4942 5.63386 29.5108 5.76273 29.4976L13.363 28.6633C13.3683 29.2365 13.4027 29.8091 13.4662 30.3789C13.5058 30.7727 13.6815 31.1403 13.963 31.4186L16.9059 34.3614C17.1843 34.6431 17.5523 34.8188 17.9465 34.8583C18.5128 34.9214 19.082 34.9558 19.6518 34.9614L18.8184 42.5551C18.8053 42.6838 18.8221 42.8138 18.8673 42.935C18.9126 43.0562 18.9851 43.1654 19.0792 43.2541C19.1734 43.3428 19.2866 43.4087 19.4103 43.4466C19.534 43.4846 19.6647 43.4936 19.7924 43.4729C22.1268 43.0979 27.5737 41.7208 29.6427 36.9883C30.374 35.3101 30.524 33.3517 30.3552 31.3923C31.668 30.4673 32.8973 29.4292 34.0293 28.2901C40.4399 21.9151 44.8546 10.397 43.6265 5.04482ZM28.3312 20.0317C27.7712 19.4719 27.3899 18.7586 27.2353 17.982C27.0808 17.2055 27.16 16.4005 27.463 15.669C27.7659 14.9375 28.279 14.3122 28.9374 13.8723C29.5957 13.4324 30.3697 13.1976 31.1615 13.1976C31.9533 13.1976 32.7273 13.4324 33.3856 13.8723C34.0439 14.3122 34.557 14.9375 34.86 15.669C35.1629 16.4005 35.2422 17.2055 35.0876 17.982C34.9331 18.7586 34.5517 19.4719 33.9918 20.0317C33.6204 20.4039 33.1792 20.6992 32.6936 20.9006C32.2079 21.1021 31.6873 21.2058 31.1615 21.2058C30.6357 21.2058 30.1151 21.1021 29.6294 20.9006C29.1437 20.6992 28.7026 20.4039 28.3312 20.0317Z" stroke="#F98A26" stroke-width="3" stroke-linecap="round" stroke-linejoin="round"/>
<path d="M10.6118 33C9.67718 33.1147 8.80772 33.5384 8.14145 34.2037C6.48957 35.8612 6.33301 42 6.33301 42C6.33301 42 12.4755 41.8434 14.1283 40.1897C14.7964 39.5245 15.2208 38.6536 15.333 37.7175" stroke="#F98A26" stroke-width="3" stroke-linecap="round" stroke-linejoin="round"/>
</svg>
