<svg width="48" height="48" viewBox="0 0 48 48" fill="none" xmlns="http://www.w3.org/2000/svg">
<path d="M40.344 13.5003H36.622L27.49 22.6283C27.8045 23.4299 27.8334 24.3153 27.5719 25.1357C27.3103 25.9561 26.7743 26.6614 26.0539 27.1331C25.3334 27.6047 24.4726 27.8139 23.6161 27.7255C22.7595 27.6371 21.9596 27.2564 21.3507 26.6475C20.7418 26.0387 20.3612 25.2387 20.2727 24.3822C20.1843 23.5257 20.3935 22.6648 20.8652 21.9444C21.3368 21.224 22.0421 20.6879 22.8625 20.4264C23.6829 20.1648 24.5684 20.1938 25.37 20.5083L34.5 11.3783V7.65629C34.5001 7.15824 34.698 6.68062 35.05 6.32829L38.51 2.86829C38.574 2.80384 38.6544 2.75806 38.7425 2.73586C38.8306 2.71366 38.923 2.71588 39.01 2.74229C39.188 2.79429 39.32 2.94229 39.356 3.12429L40.276 7.72628L44.876 8.64629C45.056 8.68228 45.204 8.81428 45.256 8.99228C45.2822 9.07875 45.2846 9.17072 45.2627 9.25841C45.2409 9.3461 45.1957 9.42623 45.132 9.49028L41.67 12.9503C41.3181 13.3018 40.8413 13.4996 40.344 13.5003Z" fill="#111827"/>
<path d="M5.25 24C5.25 28.9728 7.22544 33.742 10.7417 37.2583C14.2581 40.7746 19.0272 42.75 24 42.75C26.4623 42.75 28.9005 42.265 31.1753 41.3228C33.4502 40.3805 35.5172 38.9994 37.2583 37.2583C38.9994 35.5172 40.3805 33.4502 41.3227 31.1753C42.265 28.9005 42.75 26.4623 42.75 24C42.75 22.204 42.498 20.468 42.028 18.826C41.9346 18.449 41.991 18.0504 42.1855 17.7142C42.38 17.378 42.6973 17.1303 43.0707 17.0233C43.4441 16.9163 43.8444 16.9583 44.1875 17.1404C44.5305 17.3226 44.7895 17.6307 44.91 18C45.458 19.908 45.75 21.92 45.75 24C45.75 36.012 36.012 45.75 24 45.75C11.988 45.75 2.25 36.012 2.25 24C2.25 11.988 11.988 2.25001 24 2.25001C26.03 2.24801 28.048 2.53001 30 3.08801C30.1903 3.1414 30.3682 3.23188 30.5235 3.35425C30.6787 3.47662 30.8082 3.62847 30.9046 3.80106C31.0009 3.97366 31.0622 4.1636 31.0849 4.35996C31.1076 4.55632 31.0913 4.75524 31.0369 4.94527C30.9825 5.1353 30.891 5.3127 30.7678 5.46727C30.6446 5.62184 30.492 5.75053 30.3189 5.84595C30.1458 5.94136 29.9555 6.00162 29.759 6.02325C29.5626 6.04489 29.3637 6.02747 29.174 5.97201C27.4913 5.49172 25.7499 5.24871 24 5.25001C19.0272 5.25001 14.2581 7.22545 10.7417 10.7418C7.22544 14.2581 5.25 19.0272 5.25 24Z" fill="#111827"/>
<path d="M14.25 23.9996C14.2556 25.3242 14.5311 26.6338 15.0597 27.8485C15.5883 29.0631 16.3589 30.1572 17.3245 31.0641C18.29 31.9709 19.4303 32.6715 20.6757 33.1229C21.921 33.5744 23.2453 33.7673 24.5677 33.6898C25.8901 33.6124 27.1829 33.2663 28.367 32.6725C29.5512 32.0788 30.6019 31.25 31.455 30.2366C32.3081 29.2233 32.9458 28.0467 33.329 26.7787C33.7123 25.5106 33.833 24.1778 33.684 22.8616C33.642 22.595 33.6729 22.322 33.7734 22.0716C33.8739 21.8211 34.0403 21.6025 34.2549 21.439C34.4695 21.2754 34.7244 21.1729 34.9925 21.1424C35.2607 21.1118 35.5321 21.1544 35.778 21.2656C36.28 21.4896 36.618 21.9676 36.662 22.5156C36.9725 25.1461 36.4558 27.808 35.1837 30.1313C33.9117 32.4546 31.9474 34.3239 29.5639 35.4793C27.1805 36.6347 24.4962 37.0189 21.8844 36.5785C19.2725 36.138 16.8627 34.8948 14.99 33.0216C13.1178 31.1504 11.8742 28.7431 11.4318 26.1333C10.9894 23.5236 11.3701 20.8409 12.521 18.4573C13.672 16.0736 15.5361 14.1072 17.8549 12.8308C20.1738 11.5543 22.8324 11.031 25.462 11.3336C25.6608 11.352 25.8539 11.41 26.03 11.504C26.2061 11.5981 26.3616 11.7263 26.4875 11.8813C26.6134 12.0362 26.7071 12.2147 26.7631 12.4063C26.8192 12.598 26.8364 12.7988 26.8137 12.9972C26.7911 13.1956 26.7291 13.3874 26.6314 13.5615C26.5336 13.7356 26.4021 13.8884 26.2446 14.011C26.087 14.1336 25.9065 14.2235 25.7138 14.2755C25.521 14.3274 25.3198 14.3404 25.122 14.3136C23.756 14.1557 22.3721 14.2884 21.0611 14.7031C19.7501 15.1177 18.5416 15.8049 17.5149 16.7196C16.4882 17.6343 15.6665 18.7558 15.1039 20.0104C14.5412 21.2651 14.2502 22.6245 14.25 23.9996Z" fill="#111827"/>
</svg>
