<svg width="48" height="48" viewBox="0 0 48 48" fill="none" xmlns="http://www.w3.org/2000/svg">
<path d="M19.124 6C16.6009 5.99924 14.1183 6.63497 11.906 7.84836C9.69377 9.06175 7.82335 10.8136 6.46786 12.9417C5.11237 15.0699 4.31561 17.5056 4.15133 20.0234C3.98706 22.5412 4.46056 25.0598 5.52803 27.346L4.08003 33.03C3.9736 33.4475 3.97689 33.8855 4.08957 34.3013C4.20225 34.7172 4.42051 35.0969 4.72316 35.4036C5.02581 35.7102 5.40259 35.9335 5.81694 36.0517C6.23129 36.1698 6.66914 36.1789 7.08803 36.078C8.58803 35.718 10.894 35.164 12.948 34.674C14.9875 35.5937 17.2068 36.0455 19.4435 35.9964C21.6801 35.9473 23.8775 35.3985 25.8746 34.3902C27.8717 33.3819 29.618 31.9397 30.9855 30.1691C32.353 28.3985 33.3072 26.3445 33.7781 24.1574C34.249 21.9703 34.2248 19.7056 33.7071 17.5291C33.1894 15.3526 32.1915 13.3195 30.7863 11.5786C29.3811 9.83777 27.6044 8.43328 25.5861 7.46802C23.5678 6.50275 21.3592 6.00117 19.122 6M7.12203 21C7.12282 18.3906 7.97414 15.8526 9.54699 13.7705C11.1198 11.6884 13.3285 10.1757 15.8383 9.46166C18.3481 8.74761 21.0223 8.87111 23.4556 9.81345C25.8889 10.7558 27.9487 12.4656 29.323 14.6838C30.6972 16.902 31.311 19.5077 31.0713 22.1061C30.8316 24.7044 29.7514 27.1538 27.9945 29.0832C26.2376 31.0125 23.8997 32.3166 21.3351 32.7978C18.7704 33.279 16.1188 32.9112 13.782 31.75L13.294 31.508L12.766 31.634C10.92 32.074 8.78603 32.584 7.19003 32.968L8.57003 27.552L8.71003 27L8.45003 26.494C7.57623 24.7945 7.12093 22.9109 7.12203 21ZM29.122 42C25.3385 42.0045 21.6939 40.5752 18.922 38H19.122C20.558 38 21.952 37.822 23.282 37.486C25.012 38.45 27.002 39 29.122 39C31.042 39 32.854 38.55 34.462 37.75L34.948 37.508L35.476 37.634C37.32 38.074 39.408 38.524 40.956 38.854C40.606 37.352 40.128 35.342 39.672 33.552L39.532 33L39.792 32.494C40.6665 30.7947 41.1225 28.9111 41.122 27C41.1222 24.9939 40.6193 23.0198 39.6596 21.2582C38.6998 19.4965 37.3137 18.0036 35.628 16.916C35.2763 15.4872 34.7384 14.1107 34.028 12.822C36.0135 13.5095 37.8325 14.6063 39.3671 16.0414C40.9018 17.4765 42.118 19.2178 42.937 21.1528C43.756 23.0877 44.1596 25.1731 44.1215 27.2739C44.0834 29.3746 43.6046 31.444 42.716 33.348C43.222 35.364 43.734 37.548 44.058 38.954C44.153 39.3613 44.1438 39.786 44.0312 40.1889C43.9186 40.5917 43.7062 40.9596 43.4138 41.2587C43.1213 41.5577 42.7582 41.7782 42.358 41.8997C41.9578 42.0212 41.5334 42.0399 41.124 41.954C39.1773 41.5491 37.2352 41.1224 35.298 40.674C33.3568 41.5494 31.2515 42.0014 29.122 42Z" fill="#111827"/>
</svg>
