<svg width="48" height="48" viewBox="0 0 48 48" fill="none" xmlns="http://www.w3.org/2000/svg">
<path d="M46.5 17.9996C46.5 17.005 46.1049 16.0512 45.4016 15.3479C44.6984 14.6447 43.7445 14.2496 42.75 14.2496H39.57C40.0332 13.3179 40.2697 12.29 40.26 11.2496C40.2719 10.3674 40.1084 9.49169 39.7791 8.67324C39.4497 7.8548 38.9611 7.10995 38.3414 6.48194C37.7218 5.85394 36.9836 5.3553 36.1696 5.01499C35.3557 4.67468 34.4822 4.49948 33.6 4.49956C31.7359 4.43457 29.8845 4.8304 28.21 5.65198C26.5354 6.47356 25.0894 7.69551 24 9.20956C22.9106 7.69551 21.4646 6.47356 19.79 5.65198C18.1154 4.8304 16.2641 4.43457 14.4 4.49956C12.6336 4.49956 10.9396 5.20124 9.69065 6.45023C8.44166 7.69922 7.73998 9.39322 7.73998 11.1596C7.7303 12.2 7.96673 13.2279 8.42998 14.1596H5.24998C4.74986 14.1594 4.25476 14.2593 3.79382 14.4534C3.33288 14.6474 2.91542 14.9317 2.566 15.2895C2.21658 15.6473 1.94225 16.0714 1.75918 16.5368C1.57611 17.0023 1.48798 17.4996 1.49998 17.9996V25.4996H5.24998V39.8696C5.28115 40.8432 5.68996 41.7665 6.38987 42.444C7.08978 43.1215 8.02587 43.5001 8.99998 43.4996H39C39.9945 43.4996 40.9484 43.1045 41.6516 42.4012C42.3549 41.698 42.75 40.7441 42.75 39.7496V25.3796H46.5V17.9996ZM33.6 8.24956C34.3956 8.24956 35.1587 8.56563 35.7213 9.12824C36.2839 9.69085 36.6 10.4539 36.6 11.2496C36.6 12.0452 36.2839 12.8083 35.7213 13.3709C35.1587 13.9335 34.3956 14.2496 33.6 14.2496H26.04C26.3076 12.4787 27.2363 10.8751 28.6392 9.76174C30.042 8.64838 31.8146 8.10804 33.6 8.24956ZM14.4 8.24956C16.1853 8.10804 17.958 8.64838 19.3608 9.76174C20.7636 10.8751 21.6924 12.4787 21.96 14.2496H14.4C13.7372 14.0985 13.1453 13.7268 12.7214 13.1954C12.2975 12.664 12.0666 12.0044 12.0666 11.3246C12.0666 10.6448 12.2975 9.98513 12.7214 9.45371C13.1453 8.9223 13.7372 8.55062 14.4 8.39956V8.24956ZM5.24998 17.9996H18.36V21.6296H5.24998V17.9996ZM18.36 39.8696H8.99998V25.3796H18.36V39.8696ZM22.14 39.8696V17.9996H25.86V39.8696H22.14ZM39 39.8696H29.64V25.3796H39V39.8696ZM42.75 21.8696H29.64V17.9996H42.75V21.8696Z" fill="#111827"/>
</svg>
