<svg width="48" height="48" viewBox="0 0 48 48" fill="none" xmlns="http://www.w3.org/2000/svg">
<path d="M39 6V42H9V6H39ZM39 3H9C8.20435 3 7.44129 3.31607 6.87868 3.87868C6.31607 4.44129 6 5.20435 6 6V42C6 42.7957 6.31607 43.5587 6.87868 44.1213C7.44129 44.6839 8.20435 45 9 45H39C39.7957 45 40.5587 44.6839 41.1213 44.1213C41.6839 43.5587 42 42.7957 42 42V6C42 5.20435 41.6839 4.44129 41.1213 3.87868C40.5587 3.31607 39.7957 3 39 3Z" fill="#111827"/>
<path d="M13.5 34.5H16.5V37.5H13.5V34.5ZM31.5 34.5H34.5V37.5H31.5V34.5ZM13.5 27H16.5V30H13.5V27ZM31.5 27H34.5V30H31.5V27ZM13.5 19.5H16.5V22.5H13.5V19.5ZM22.5 34.5H25.5V37.5H22.5V34.5ZM22.5 27H25.5V30H22.5V27ZM22.5 19.5H25.5V22.5H22.5V19.5ZM31.5 19.5H34.5V22.5H31.5V19.5ZM13.5 10.5H34.5V15H13.5V10.5Z" fill="#111827"/>
</svg>
