<svg width="48" height="48" viewBox="0 0 48 48" fill="none" xmlns="http://www.w3.org/2000/svg">
<path fill-rule="evenodd" clip-rule="evenodd" d="M23.5 21.999C29.154 21.999 33.7642 26.5956 33.9912 32.3539L33.9983 32.7094C33.6471 33.1076 33.3362 33.5395 33.0702 33.999H30V32.799C30 29.1491 27.2633 26.2082 23.8664 26.0097L23.5 25.9991H16.5C13.0586 25.9991 10.2032 28.814 10.0103 32.4108L10 32.799V35.999H20V39.999H6V32.799C6 26.9834 10.4689 22.2415 16.0672 22.008L16.5 21.999H23.5ZM20 3.99902C23.866 3.99902 27 7.13309 27 10.9991C27 14.7361 24.0714 17.7893 20.3841 17.9887L20 17.999C16.134 17.999 13 14.865 13 10.9991C13 7.2619 15.9286 4.20874 19.616 4.00943L20 3.99902ZM20 7.99905C18.3431 7.99905 17 9.34221 17 10.9991C17 12.6559 18.3431 13.9991 20 13.9991C21.6568 13.9991 23 12.6559 23 10.9991C23 9.34221 21.6568 7.99905 20 7.99905ZM46 37.9991C46 34.6853 43.3137 31.9991 40 31.9991C37.3876 31.9991 35.1651 33.6686 34.3414 35.999H22V39.999H24V43.9991H30V39.999H34.3414C35.1651 42.3295 37.3876 43.9991 40 43.9991C43.3137 43.9991 46 41.3127 46 37.9991ZM37 37.9991C37 36.3422 38.3432 34.9991 40 34.9991C41.6569 34.9991 43 36.3422 43 37.9991C43 39.6559 41.6569 40.9991 40 40.9991C38.3432 40.9991 37 39.6559 37 37.9991Z" fill="#111827"/>
</svg>
