<svg width="48" height="48" viewBox="0 0 48 48" fill="none" xmlns="http://www.w3.org/2000/svg">
<path d="M10 40V35L37.854 7.16797L42.832 12.146L15 40H10ZM12 38H14.146L35.258 16.9L34.204 15.796L33.1 14.742L12 35.854V38ZM34.204 15.796L33.1 14.742L35.258 16.9L34.204 15.796ZM37.538 34C37.538 32.852 37.1513 31.832 36.378 30.94C35.6047 30.048 34.4787 29.3093 33 28.724L31.472 30.252C32.752 30.688 33.75 31.228 34.466 31.872C35.182 32.516 35.5393 33.2253 35.538 34C35.538 35.1253 34.808 36.0733 33.348 36.844C31.888 37.6146 29.9513 38 27.538 38V40C30.2607 40 32.608 39.4733 34.58 38.42C36.552 37.3666 37.5387 35.8933 37.54 34M11.226 27.046L12.686 25.546C11.782 25.1766 11.108 24.778 10.664 24.35C10.22 23.922 9.99867 23.472 10 23C10 22.3693 10.3853 21.7626 11.156 21.18C11.9267 20.5973 13.3133 19.8793 15.316 19.026C17.8093 17.962 19.5467 16.986 20.528 16.098C21.5093 15.21 22 14.1773 22 13C22 11.5106 21.4253 10.3046 20.276 9.38197C19.1253 8.46064 17.5333 7.99997 15.5 7.99997C14.2893 7.99997 13.0193 8.2833 11.69 8.84997C10.3607 9.41664 9.278 10.172 8.442 11.116L9.732 12.456C10.488 11.6746 11.4027 11.07 12.476 10.642C13.548 10.214 14.556 9.99997 15.5 9.99997C16.94 9.99997 18.0507 10.276 18.832 10.828C19.6107 11.3786 20 12.1026 20 13C20 13.6973 19.642 14.3273 18.926 14.89C18.2087 15.4526 16.7413 16.2173 14.524 17.184C12.0467 18.2973 10.34 19.2693 9.404 20.1C8.468 20.9306 8 21.8973 8 23C8 23.8133 8.27133 24.56 8.814 25.24C9.35667 25.92 10.1593 26.522 11.226 27.046Z" fill="#111827"/>
</svg>
