<svg width="20" height="20" viewBox="0 0 20 20" fill="none" xmlns="http://www.w3.org/2000/svg">
<path d="M9.99974 6.24996C9.25806 6.24996 8.53304 6.4699 7.91635 6.88195C7.29967 7.29401 6.81902 7.87968 6.53519 8.5649C6.25137 9.25012 6.1771 10.0041 6.3218 10.7316C6.46649 11.459 6.82364 12.1272 7.34809 12.6516C7.87254 13.1761 8.54072 13.5332 9.26815 13.6779C9.99558 13.8226 10.7496 13.7483 11.4348 13.4645C12.12 13.1807 12.7057 12.7 13.1178 12.0834C13.5298 11.4667 13.7497 10.7416 13.7497 9.99996C13.7487 9.00572 13.3533 8.05249 12.6503 7.34946C11.9472 6.64642 10.994 6.251 9.99974 6.24996ZM9.99974 12.5C9.50529 12.5 9.02194 12.3533 8.61082 12.0786C8.19969 11.8039 7.87926 11.4135 7.69004 10.9567C7.50082 10.4999 7.45132 9.99719 7.54778 9.51224C7.64424 9.02729 7.88234 8.58183 8.23197 8.2322C8.58161 7.88257 9.02706 7.64446 9.51202 7.548C9.99697 7.45154 10.4996 7.50105 10.9564 7.69027C11.4133 7.87949 11.8037 8.19992 12.0784 8.61104C12.3531 9.02216 12.4997 9.50551 12.4997 9.99996C12.4997 10.663 12.2363 11.2989 11.7675 11.7677C11.2987 12.2366 10.6628 12.5 9.99974 12.5ZM18.5888 8.37575C18.5714 8.28773 18.5352 8.2045 18.4828 8.13171C18.4304 8.05891 18.3629 7.99826 18.2849 7.95387L15.9544 6.62575L15.9451 3.99918C15.9448 3.90873 15.9249 3.81941 15.8867 3.7374C15.8485 3.65539 15.793 3.58264 15.724 3.52418C14.8786 2.8091 13.9051 2.26111 12.8552 1.90934C12.7725 1.88136 12.6849 1.871 12.598 1.87894C12.5111 1.88688 12.4268 1.91293 12.3505 1.95543L9.99974 3.2695L7.64662 1.95309C7.57033 1.91035 7.48592 1.8841 7.39886 1.87602C7.31179 1.86795 7.22399 1.87823 7.14115 1.90621C6.09204 2.26056 5.11966 2.81064 4.27552 3.52731C4.20659 3.58568 4.15113 3.6583 4.11296 3.74017C4.0748 3.82203 4.05483 3.9112 4.05443 4.00153L4.04271 6.63043L1.71224 7.95856C1.63427 8.00295 1.56678 8.0636 1.51434 8.13639C1.4619 8.20919 1.42574 8.29242 1.40834 8.38043C1.19505 9.45222 1.19505 10.5555 1.40834 11.6273C1.42574 11.7153 1.4619 11.7986 1.51434 11.8713C1.56678 11.9441 1.63427 12.0048 1.71224 12.0492L4.04271 13.3773L4.05209 16.0039C4.05237 16.0943 4.07228 16.1836 4.11046 16.2657C4.14863 16.3477 4.20415 16.4204 4.27318 16.4789C5.11855 17.194 6.09205 17.7419 7.14193 18.0937C7.22461 18.1217 7.31223 18.1321 7.39915 18.1241C7.48608 18.1162 7.57038 18.0901 7.64662 18.0476L9.99974 16.7304L12.3529 18.0468C12.446 18.0987 12.551 18.1256 12.6576 18.125C12.7258 18.1249 12.7936 18.1139 12.8583 18.0922C13.9073 17.7383 14.8797 17.1887 15.724 16.4726C15.7929 16.4142 15.8484 16.3416 15.8865 16.2598C15.9247 16.1779 15.9447 16.0887 15.9451 15.9984L15.9568 13.3695L18.2872 12.0414C18.3652 11.997 18.4327 11.9363 18.4851 11.8635C18.5376 11.7907 18.5737 11.7075 18.5911 11.6195C18.8032 10.5486 18.8024 9.44637 18.5888 8.37575ZM17.4169 11.1031L15.1849 12.3726C15.0871 12.4282 15.0061 12.5092 14.9505 12.607C14.9052 12.6851 14.8576 12.7679 14.8091 12.8461C14.7471 12.9446 14.7141 13.0586 14.7138 13.175L14.7021 15.6945C14.1021 16.1656 13.4338 16.5424 12.7201 16.8117L10.4685 15.557C10.375 15.5053 10.2698 15.4784 10.163 15.4789H10.1482C10.0536 15.4789 9.95834 15.4789 9.8638 15.4789C9.752 15.4761 9.64146 15.503 9.54349 15.557L7.29037 16.8148C6.57514 16.5476 5.90492 16.1727 5.30287 15.7031L5.29427 13.1875C5.29389 13.0708 5.26087 12.9566 5.19896 12.8578C5.15052 12.7797 5.10287 12.7015 5.05834 12.6187C5.00312 12.5194 4.92215 12.4368 4.82396 12.3797L2.58959 11.107C2.47396 10.3756 2.47396 9.63058 2.58959 8.89918L4.81771 7.62731C4.91551 7.5717 4.99648 7.49073 5.05209 7.39293C5.0974 7.31481 5.14505 7.232 5.19349 7.15387C5.25549 7.05535 5.28852 6.94137 5.2888 6.82496L5.30052 4.30543C5.90047 3.8343 6.56885 3.45756 7.28255 3.18825L9.53099 4.44293C9.62885 4.49718 9.73947 4.52416 9.8513 4.52106C9.94584 4.52106 10.0411 4.52106 10.1357 4.52106C10.2475 4.52385 10.358 4.49689 10.456 4.44293L12.7091 3.18512C13.4243 3.45237 14.0946 3.82726 14.6966 4.29684L14.7052 6.81246C14.7056 6.9291 14.7386 7.0433 14.8005 7.14215C14.849 7.22028 14.8966 7.2984 14.9411 7.38122C14.9964 7.48052 15.0773 7.56311 15.1755 7.62028L17.4099 8.89293C17.5271 9.62489 17.5284 10.3707 17.4138 11.1031H17.4169Z" fill="#495057"/>
</svg>
