<svg width="53" height="54" viewBox="0 0 53 54" fill="none" xmlns="http://www.w3.org/2000/svg">
<path d="M24.7207 2.42139C11.0679 3.7587 0.749017 15.6739 1.67271 29.0346C2.59641 42.3954 14.4129 52.1424 28.0657 50.8051C41.7184 49.4678 52.0373 37.5526 51.1136 24.1918C50.1899 10.831 38.3734 1.08408 24.7207 2.42139Z" fill="#A0A0A0"/>
<path fill-rule="evenodd" clip-rule="evenodd" d="M21.3139 27.208C21.2465 27.1761 21.1879 27.1295 21.1425 27.0718C21.0972 27.0141 21.0662 26.9468 21.0521 26.875L19.43 20.0058C19.4208 19.967 19.427 19.9259 19.4472 19.8905C19.4674 19.8551 19.5002 19.828 19.5394 19.8144L20.3281 19.5368L20.6049 20.3233C20.6216 20.3759 20.6491 20.4244 20.6857 20.466C20.7224 20.5077 20.7674 20.5415 20.8182 20.5656C20.869 20.5897 20.9245 20.6035 20.9815 20.6063C21.0384 20.609 21.0956 20.6006 21.1497 20.5816C21.2037 20.5626 21.2536 20.5333 21.2962 20.4955C21.3389 20.4577 21.3735 20.4121 21.398 20.3616C21.4226 20.311 21.4365 20.2563 21.439 20.2009C21.4415 20.1456 21.4325 20.0905 21.4126 20.039L21.1359 19.2526L24.5361 18.056L24.8129 18.8424C24.8296 18.895 24.8571 18.9435 24.8937 18.9851C24.9304 19.0267 24.9754 19.0606 25.0262 19.0847C25.0771 19.1088 25.1326 19.1226 25.1895 19.1253C25.2464 19.1281 25.3036 19.1197 25.3577 19.1007C25.4117 19.0816 25.4616 19.0524 25.5043 19.0146C25.5469 18.9768 25.5815 18.9312 25.6061 18.8806C25.6306 18.83 25.6445 18.7754 25.647 18.72C25.6495 18.6646 25.6406 18.6096 25.6206 18.5581L25.3439 17.7717L26.1326 17.4941C26.1716 17.4798 26.2144 17.4802 26.2524 17.4952C26.2904 17.5102 26.3209 17.5386 26.3378 17.5749L27.3804 19.7615L25.2837 20.4994C25.1797 20.5358 25.0933 20.6095 25.0425 20.7051C24.9918 20.8007 24.9807 20.9107 25.0116 21.0122L26.3842 25.6051L21.7472 27.237C21.6766 27.2643 21.601 27.2759 21.5259 27.2709C21.4509 27.2659 21.3784 27.2444 21.3139 27.2081L21.3139 27.208ZM21.7133 15.4603C22.1639 15.3024 22.6564 15.3229 23.0828 15.5174C23.5091 15.7119 23.8346 16.0644 23.9877 16.4978L24.2622 17.2776L25.0699 16.9933L24.7955 16.2135C24.5679 15.5762 24.0872 15.0585 23.4588 14.7735C22.8303 14.4886 22.1051 14.4596 21.4419 14.693C20.7787 14.9264 20.2315 15.4031 19.92 16.0189C19.6085 16.6347 19.5581 17.3393 19.7797 17.9787L20.0542 18.7585L20.8619 18.4742L20.5875 17.6944C20.4356 17.2603 20.4688 16.7812 20.6798 16.3624C20.8909 15.9435 21.2625 15.6191 21.7133 15.4603ZM33.7695 19.5085C33.7194 19.4783 33.663 19.4588 33.604 19.4511C33.5451 19.4435 33.4848 19.4479 33.4271 19.464L31.1893 20.0911L31.5027 20.86L33.3025 25.2817C33.3235 25.3334 33.3333 25.389 33.3315 25.4452C33.3296 25.5013 33.316 25.5567 33.2915 25.6081C33.267 25.6594 33.2322 25.7057 33.1891 25.7441C33.146 25.7825 33.0955 25.8121 33.0407 25.8313L27.5007 27.781C27.4459 27.8002 27.3881 27.8086 27.3305 27.8056C27.2729 27.8027 27.2167 27.7885 27.1655 27.7639C27.1149 27.7384 27.0703 27.7034 27.0341 27.6608C26.998 27.6182 26.9711 27.5689 26.9549 27.5157L26.6199 26.3964L22.021 28.0149C21.8366 28.0795 21.6413 28.1063 21.4476 28.0935C21.2538 28.0806 21.066 28.0284 20.8962 27.9402C20.7264 27.852 20.5784 27.7298 20.4617 27.5814C20.345 27.4331 20.2622 27.2619 20.2187 27.0789L19.5442 24.2108L19.3525 23.4079L16.0399 24.336L16.0351 24.3377L14.6933 22.4272C14.6629 22.3828 14.6235 22.345 14.5775 22.316C14.5314 22.287 14.4795 22.2674 14.425 22.2584L11.3548 21.7144C11.3 21.7047 11.2436 21.7057 11.1886 21.7172C11.1337 21.7287 11.0814 21.7505 11.0347 21.7815C10.988 21.8124 10.9478 21.8518 10.9164 21.8975C10.8851 21.9431 10.8631 21.9941 10.8518 22.0476C10.8406 22.101 10.8402 22.1558 10.8508 22.2088C10.8613 22.2619 10.8826 22.3121 10.9133 22.3567C10.9441 22.4013 10.9838 22.4394 11.0301 22.4688C11.0764 22.4982 11.1284 22.5183 11.1832 22.5279L14.0825 23.0422L22.1695 34.5698C22.0354 34.9208 21.9868 35.2954 22.0278 35.6637C22.0687 36.0321 22.198 36.384 22.4053 36.6914C22.6126 36.9989 22.8921 37.2533 23.2218 37.4345C23.5514 37.6157 23.9219 37.7186 24.3037 37.735C24.3598 37.7377 24.4161 37.7294 24.4692 37.7105L25.8228 37.2342C25.4877 37.5394 25.2682 37.9447 25.2011 38.3821C25.1341 38.8195 25.2236 39.2624 25.4546 39.6364C25.6856 40.0104 26.0441 40.2928 26.4699 40.4362C26.8956 40.5796 27.3628 40.5752 27.7929 40.4239C28.223 40.2725 28.5899 39.9833 28.8321 39.6049C29.0742 39.2264 29.1768 38.7818 29.1226 38.3455C29.0685 37.9092 28.8609 37.5079 28.5347 37.2089C28.2085 36.9099 27.7835 36.7314 27.3311 36.7034L33.3212 34.5953C32.9868 34.9002 32.7678 35.305 32.701 35.7418C32.6342 36.1786 32.7238 36.6208 32.9546 36.9942C33.1853 37.3676 33.5434 37.6496 33.9685 37.7927C34.3937 37.9358 34.8602 37.9315 35.2897 37.7803C35.7192 37.6291 36.0856 37.3404 36.3274 36.9625C36.5692 36.5847 36.6718 36.1407 36.6178 35.705C36.5639 35.2693 36.3567 34.8685 36.0311 34.5698C35.7055 34.2711 35.2812 34.0927 34.8295 34.0645L36.214 33.5772C36.3211 33.5395 36.4095 33.4624 36.4596 33.3628C36.5097 33.2632 36.5175 33.1493 36.4812 33.0461C36.4449 32.943 36.3675 32.859 36.266 32.8128C36.1646 32.7665 36.0474 32.7617 35.9402 32.7994L24.2811 36.9026C24.0372 36.8799 23.8032 36.803 23.5972 36.6777C23.3912 36.5525 23.2188 36.3824 23.0931 36.1804C22.9674 35.9785 22.8919 35.7501 22.8724 35.5128C22.8529 35.2756 22.8898 35.0359 22.9805 34.8122L35.1582 28.7738C35.2404 28.7327 35.3076 28.6675 35.3499 28.5877C35.3921 28.5078 35.4072 28.4175 35.393 28.3301L33.9579 19.7856C33.9487 19.7287 33.9272 19.6746 33.8948 19.6268C33.8623 19.5791 33.8196 19.5388 33.7695 19.5086L33.7695 19.5085ZM27.6511 26.8539L32.3452 25.2019L30.0966 19.6798L25.9433 21.1415L27.6511 26.8539Z" fill="white"/>
</svg>
