<svg width="42" height="42" viewBox="0 0 42 42" fill="none" xmlns="http://www.w3.org/2000/svg">
<path d="M18.3212 18.3196C17.6077 19.0294 17.2049 19.9932 17.2012 20.9996C17.2012 22.0074 17.6015 22.9739 18.3142 23.6866C19.0268 24.3992 19.9933 24.7996 21.0012 24.7996C22.0076 24.7959 22.9714 24.3931 23.6812 23.6796" stroke="#9AD3BC" stroke-width="3" stroke-linecap="round" stroke-linejoin="round"/>
<path d="M21.0035 9.59985C18.7488 9.59985 16.5447 10.2685 14.67 11.5211C12.7953 12.7737 11.3341 14.5542 10.4713 16.6373C9.60846 18.7203 9.3827 21.0125 9.82257 23.2239C10.2624 25.4353 11.3482 27.4666 12.9425 29.0609C14.5368 30.6552 16.5681 31.7409 18.7795 32.1808C20.9909 32.6207 23.283 32.3949 25.3661 31.5321C27.4492 30.6692 29.2296 29.2081 30.4823 27.3334C31.7349 25.4586 32.4035 23.2546 32.4035 20.9999" stroke="#9AD3BC" stroke-width="3" stroke-linecap="round" stroke-linejoin="round"/>
<path d="M21.002 1.99976C17.2441 1.99976 13.5707 3.11409 10.4461 5.20183C7.32159 7.28958 4.88632 10.257 3.44825 13.7288C2.01019 17.2006 1.63392 21.0208 2.36704 24.7065C3.10016 28.3921 4.90973 31.7776 7.56693 34.4348C10.2241 37.092 13.6096 38.9016 17.2952 39.6347C20.9809 40.3678 24.8011 39.9915 28.2729 38.5535C31.7447 37.1154 34.7121 34.6801 36.7999 31.5556C38.8876 28.4311 40.002 24.7576 40.002 20.9998M28.052 13.9518L22.902 19.0998" stroke="#9AD3BC" stroke-width="3" stroke-linecap="round" stroke-linejoin="round"/>
<path d="M38.8804 8.68795L32.4004 9.59995L33.3124 3.11995C33.3191 3.04468 33.3032 2.96913 33.2668 2.90294C33.2303 2.83676 33.1749 2.78295 33.1077 2.74838C33.0405 2.71382 32.9646 2.70007 32.8895 2.7089C32.8145 2.71773 32.7438 2.74873 32.6864 2.79795L28.3904 7.07195C27.9492 7.51639 27.6246 8.063 27.4456 8.66316C27.2666 9.26331 27.2387 9.89841 27.3644 10.5119L28.0484 13.9519L31.4884 14.6339C32.102 14.7596 32.7371 14.7318 33.3372 14.5528C33.9374 14.3738 34.484 14.0492 34.9284 13.6079L39.2004 9.31395C39.2498 9.25648 39.2809 9.18557 39.2897 9.11031C39.2985 9.03505 39.2846 8.95888 39.2497 8.89159C39.2149 8.82429 39.1608 8.76895 39.0942 8.73266C39.0277 8.69638 38.9519 8.6808 38.8764 8.68795" stroke="#9AD3BC" stroke-width="3" stroke-linecap="round" stroke-linejoin="round"/>
</svg>
