<svg width="20" height="20" viewBox="0 0 20 20" fill="none" xmlns="http://www.w3.org/2000/svg">
<path d="M9.16009 12.3376C9.99775 11.7799 10.6337 10.9675 10.9739 10.0204C11.3141 9.07337 11.3405 8.04197 11.0492 7.07874C10.7579 6.11552 10.1644 5.27161 9.35637 4.67181C8.54834 4.07201 7.56875 3.74817 6.56244 3.74817C5.55613 3.74817 4.57653 4.07201 3.76851 4.67181C2.96049 5.27161 2.36694 6.11552 2.07563 7.07874C1.78433 8.04197 1.81074 9.07337 2.15095 10.0204C2.49117 10.9675 3.12712 11.7799 3.96478 12.3376C2.44954 12.896 1.15549 13.9295 0.275718 15.2837C0.229481 15.3524 0.197364 15.4296 0.181235 15.5109C0.165106 15.5921 0.165287 15.6757 0.181766 15.7569C0.198246 15.8381 0.230696 15.9152 0.27723 15.9837C0.323764 16.0522 0.383454 16.1108 0.45283 16.156C0.522206 16.2013 0.599884 16.2323 0.68135 16.2473C0.762815 16.2622 0.846443 16.2609 0.927372 16.2432C1.0083 16.2256 1.08492 16.192 1.15276 16.1445C1.22061 16.097 1.27834 16.0365 1.32259 15.9665C1.89009 15.0937 2.66662 14.3764 3.58168 13.8799C4.49675 13.3834 5.52135 13.1233 6.56244 13.1233C7.60353 13.1233 8.62813 13.3834 9.54319 13.8799C10.4583 14.3764 11.2348 15.0937 11.8023 15.9665C11.8939 16.1027 12.0356 16.1974 12.1965 16.2301C12.3574 16.2628 12.5247 16.2308 12.6623 16.1411C12.7998 16.0514 12.8965 15.9111 12.9315 15.7507C12.9665 15.5902 12.9369 15.4225 12.8492 15.2837C11.9694 13.9295 10.6753 12.896 9.16009 12.3376ZM3.12494 8.43757C3.12494 7.7577 3.32654 7.09309 3.70426 6.5278C4.08198 5.9625 4.61884 5.52191 5.24696 5.26174C5.87508 5.00156 6.56625 4.93349 7.23306 5.06612C7.89987 5.19876 8.51237 5.52615 8.99312 6.00689C9.47386 6.48763 9.80125 7.10014 9.93389 7.76695C10.0665 8.43376 9.99845 9.12492 9.73827 9.75305C9.4781 10.3812 9.0375 10.918 8.47221 11.2957C7.90692 11.6735 7.24231 11.8751 6.56244 11.8751C5.65107 11.874 4.77733 11.5115 4.1329 10.8671C3.48847 10.2227 3.12597 9.34893 3.12494 8.43757ZM19.5421 16.1485C19.4033 16.239 19.2342 16.2707 19.072 16.2366C18.9098 16.2024 18.7678 16.1053 18.6773 15.9665C18.1105 15.0931 17.334 14.3756 16.4188 13.8793C15.5035 13.383 14.4786 13.1237 13.4374 13.1251C13.2717 13.1251 13.1127 13.0592 12.9955 12.942C12.8783 12.8248 12.8124 12.6658 12.8124 12.5001C12.8124 12.3343 12.8783 12.1753 12.9955 12.0581C13.1127 11.9409 13.2717 11.8751 13.4374 11.8751C13.9437 11.8746 14.4435 11.7623 14.9013 11.5463C15.3591 11.3302 15.7636 11.0157 16.0857 10.6252C16.4079 10.2347 16.6398 9.77791 16.765 9.2874C16.8901 8.79688 16.9054 8.28478 16.8097 7.78769C16.714 7.29059 16.5097 6.82077 16.2114 6.41179C15.913 6.00281 15.528 5.66476 15.0839 5.42182C14.6398 5.17887 14.1475 5.03701 13.6422 5.00637C13.1369 4.97574 12.6311 5.05709 12.1609 5.2446C12.0842 5.27774 12.0017 5.29518 11.9182 5.29589C11.8346 5.2966 11.7518 5.28055 11.6746 5.24871C11.5974 5.21687 11.5273 5.16987 11.4686 5.1105C11.4098 5.05113 11.3636 4.98058 11.3326 4.90303C11.3016 4.82548 11.2864 4.7425 11.288 4.65899C11.2896 4.57548 11.3079 4.49314 11.3419 4.41683C11.3758 4.34052 11.4247 4.27179 11.4857 4.2147C11.5466 4.15761 11.6184 4.11332 11.6968 4.08445C12.773 3.65527 13.9699 3.63982 15.0568 4.04109C16.1436 4.44236 17.0434 5.23191 17.5824 6.25743C18.1215 7.28294 18.2617 8.47176 17.976 9.59454C17.6902 10.7173 16.9988 11.6945 16.0351 12.3376C17.5503 12.896 18.8444 13.9295 19.7242 15.2837C19.8147 15.4225 19.8464 15.5916 19.8122 15.7538C19.7781 15.916 19.6809 16.0579 19.5421 16.1485Z" fill="#495057"/>
</svg>
