<svg width="23" height="23" viewBox="0 0 23 23" fill="none" xmlns="http://www.w3.org/2000/svg">
<path d="M22.5 11.7344C22.5 12.6944 21.3206 13.4856 21.0844 14.3706C20.8406 15.2856 21.4575 16.5606 20.9944 17.3612C20.5238 18.175 19.1081 18.2725 18.4481 18.9325C17.7881 19.5925 17.6906 21.0081 16.8769 21.4788C16.0763 21.9419 14.8012 21.325 13.8862 21.5687C13.0012 21.805 12.21 22.9844 11.25 22.9844C10.29 22.9844 9.49875 21.805 8.61375 21.5687C7.69875 21.325 6.42375 21.9419 5.62313 21.4788C4.80938 21.0081 4.71187 19.5925 4.05188 18.9325C3.39188 18.2725 1.97625 18.175 1.50563 17.3612C1.0425 16.5606 1.65938 15.2856 1.41563 14.3706C1.17938 13.4856 0 12.6944 0 11.7344C0 10.7744 1.17938 9.98312 1.41563 9.09812C1.65938 8.18312 1.0425 6.90813 1.50563 6.1075C1.97625 5.29375 3.39188 5.19625 4.05188 4.53625C4.71187 3.87625 4.80938 2.46062 5.62313 1.99C6.42375 1.52687 7.69875 2.14375 8.61375 1.9C9.49875 1.66375 10.29 0.484375 11.25 0.484375C12.21 0.484375 13.0012 1.66375 13.8862 1.9C14.8012 2.14375 16.0763 1.52687 16.8769 1.99C17.6906 2.46062 17.7881 3.87625 18.4481 4.53625C19.1081 5.19625 20.5238 5.29375 20.9944 6.1075C21.4575 6.90813 20.8406 8.18312 21.0844 9.09812C21.3206 9.98312 22.5 10.7744 22.5 11.7344Z" fill="#F39E0D"/>
<path d="M14.5011 8.38094L10.2186 12.6634L7.99863 10.4453C7.51676 9.96344 6.73488 9.96344 6.25301 10.4453C5.77113 10.9272 5.77113 11.7091 6.25301 12.1909L9.36738 15.3053C9.83613 15.7741 10.5974 15.7741 11.0661 15.3053L16.2449 10.1266C16.7268 9.64469 16.7268 8.86281 16.2449 8.38094C15.763 7.89906 14.983 7.89906 14.5011 8.38094Z" fill="white"/>
</svg>
