<svg width="100" height="101" viewBox="0 0 100 101" fill="none" xmlns="http://www.w3.org/2000/svg">
<rect y="0.46875" width="100" height="100" rx="30" fill="#9AD3BC"/>
<path d="M50 54.4688V58.4688C46.8174 58.4688 43.7652 59.733 41.5147 61.9835C39.2643 64.2339 38 67.2862 38 70.4688H34C34 66.2253 35.6857 62.1556 38.6863 59.155C41.6869 56.1545 45.7565 54.4688 50 54.4688ZM50 52.4688C43.37 52.4688 38 47.0988 38 40.4688C38 33.8387 43.37 28.4688 50 28.4688C56.63 28.4688 62 33.8387 62 40.4688C62 47.0988 56.63 52.4688 50 52.4688ZM50 48.4688C54.42 48.4688 58 44.8888 58 40.4688C58 36.0487 54.42 32.4688 50 32.4688C45.58 32.4688 42 36.0487 42 40.4688C42 44.8888 45.58 48.4688 50 48.4688ZM62 69.4688L56.122 72.5588L57.244 66.0127L52.49 61.3787L59.062 60.4248L62 54.4688L64.94 60.4227L71.51 61.3787L66.756 66.0148L67.876 72.5588L62 69.4688Z" fill="white"/>
</svg>
