<svg width="100" height="101" viewBox="0 0 100 101" fill="none" xmlns="http://www.w3.org/2000/svg">
<rect y="0.46875" width="100" height="100" rx="30" fill="#FF8126"/>
<path d="M44 36.2188C44 35.5293 44.1358 34.8466 44.3996 34.2097C44.6635 33.5727 45.0502 32.9939 45.5377 32.5064C46.0252 32.0189 46.604 31.6322 47.2409 31.3684C47.8779 31.1045 48.5606 30.9688 49.25 30.9688C49.9394 30.9688 50.6221 31.1045 51.2591 31.3684C51.896 31.6322 52.4748 32.0189 52.9623 32.5064C53.4498 32.9939 53.8365 33.5727 54.1004 34.2097C54.3642 34.8466 54.5 35.5293 54.5 36.2188V64.7188C54.5 65.4082 54.3642 66.0909 54.1004 66.7278C53.8365 67.3648 53.4498 67.9436 52.9623 68.4311C52.4748 68.9186 51.896 69.3053 51.2591 69.5691C50.6221 69.833 49.9394 69.9688 49.25 69.9688C48.5606 69.9688 47.8779 69.833 47.2409 69.5691C46.604 69.3053 46.0252 68.9186 45.5377 68.4311C45.0502 67.9436 44.6635 67.3648 44.3996 66.7278C44.1358 66.0909 44 65.4082 44 64.7188V36.2188ZM49.25 33.9688C48.6533 33.9688 48.081 34.2058 47.659 34.6278C47.2371 35.0497 47 35.622 47 36.2188V64.7188C47 65.3155 47.2371 65.8878 47.659 66.3097C48.081 66.7317 48.6533 66.9688 49.25 66.9688C49.8467 66.9688 50.419 66.7317 50.841 66.3097C51.2629 65.8878 51.5 65.3155 51.5 64.7188V36.2188C51.5 35.622 51.2629 35.0497 50.841 34.6278C50.419 34.2058 49.8467 33.9688 49.25 33.9688ZM59 45.2188C59 44.5293 59.1358 43.8466 59.3996 43.2097C59.6635 42.5727 60.0502 41.9939 60.5377 41.5064C61.0252 41.0189 61.604 40.6322 62.2409 40.3684C62.8779 40.1045 63.5606 39.9688 64.25 39.9688C64.9394 39.9688 65.6221 40.1045 66.2591 40.3684C66.896 40.6322 67.4748 41.0189 67.9623 41.5064C68.4498 41.9939 68.8365 42.5727 69.1004 43.2097C69.3642 43.8466 69.5 44.5293 69.5 45.2188V64.7188C69.5 65.4082 69.3642 66.0909 69.1004 66.7278C68.8365 67.3648 68.4498 67.9436 67.9623 68.4311C67.4748 68.9186 66.896 69.3053 66.2591 69.5691C65.6221 69.833 64.9394 69.9688 64.25 69.9688C63.5606 69.9688 62.8779 69.833 62.2409 69.5691C61.604 69.3053 61.0252 68.9186 60.5377 68.4311C60.0502 67.9436 59.6635 67.3648 59.3996 66.7278C59.1358 66.0909 59 65.4082 59 64.7188V45.2188ZM64.25 42.9688C63.6533 42.9688 63.081 43.2058 62.659 43.6278C62.2371 44.0497 62 44.622 62 45.2188V64.7188C62 65.3155 62.2371 65.8878 62.659 66.3097C63.081 66.7317 63.6533 66.9688 64.25 66.9688C64.8467 66.9688 65.419 66.7317 65.841 66.3097C66.2629 65.8878 66.5 65.3155 66.5 64.7188V45.2188C66.5 44.622 66.2629 44.0497 65.841 43.6278C65.419 43.2058 64.8467 42.9688 64.25 42.9688ZM34.25 48.9688C32.8576 48.9688 31.5223 49.5219 30.5377 50.5064C29.5531 51.491 29 52.8264 29 54.2188V64.7188C29 65.4082 29.1358 66.0909 29.3996 66.7278C29.6635 67.3648 30.0502 67.9436 30.5377 68.4311C31.0252 68.9186 31.604 69.3053 32.2409 69.5691C32.8779 69.833 33.5606 69.9688 34.25 69.9688C34.9394 69.9688 35.6221 69.833 36.2591 69.5691C36.896 69.3053 37.4748 68.9186 37.9623 68.4311C38.4498 67.9436 38.8365 67.3648 39.1004 66.7278C39.3642 66.0909 39.5 65.4082 39.5 64.7188V54.2188C39.5 52.8264 38.9469 51.491 37.9623 50.5064C36.9777 49.5219 35.6424 48.9688 34.25 48.9688ZM32 54.2188C32 53.622 32.2371 53.0497 32.659 52.6278C33.081 52.2058 33.6533 51.9688 34.25 51.9688C34.8467 51.9688 35.419 52.2058 35.841 52.6278C36.2629 53.0497 36.5 53.622 36.5 54.2188V64.7188C36.5 65.3155 36.2629 65.8878 35.841 66.3097C35.419 66.7317 34.8467 66.9688 34.25 66.9688C33.6533 66.9688 33.081 66.7317 32.659 66.3097C32.2371 65.8878 32 65.3155 32 64.7188V54.2188Z" fill="white"/>
</svg>
