<svg width="100" height="101" viewBox="0 0 100 101" fill="none" xmlns="http://www.w3.org/2000/svg">
<rect y="0.46875" width="100" height="100" rx="30" fill="#005C73"/>
<path d="M46 40.4688L44.968 43.2568C43.616 46.9128 42.94 48.7408 41.606 50.0748C40.272 51.4088 38.444 52.0848 34.788 53.4368L32 54.4688L34.788 55.5007C38.444 56.8527 40.272 57.5308 41.606 58.8628C42.94 60.1948 43.616 62.0248 44.968 65.6808L46 68.4688L47.032 65.6808C48.384 62.0248 49.062 60.1968 50.394 58.8628C51.726 57.5288 53.556 56.8527 57.212 55.5007L60 54.4688L57.212 53.4368C53.556 52.0848 51.728 51.4088 50.394 50.0748C49.06 48.7408 48.384 46.9128 47.032 43.2568L46 40.4688ZM62 32.4688L61.558 33.6627C60.978 35.2307 60.688 36.0148 60.118 36.5848C59.546 37.1568 58.762 37.4467 57.194 38.0247L56 38.4688L57.196 38.9108C58.762 39.4908 59.546 39.7807 60.116 40.3507C60.688 40.9227 60.978 41.7067 61.556 43.2747L62 44.4688L62.442 43.2747C63.022 41.7067 63.312 40.9227 63.882 40.3527C64.454 39.7807 65.238 39.4908 66.806 38.9128L68 38.4688L66.804 38.0267C65.238 37.4467 64.454 37.1568 63.884 36.5868C63.312 36.0148 63.022 35.2307 62.444 33.6627L62 32.4688Z" stroke="white" stroke-width="3" stroke-linecap="round" stroke-linejoin="round"/>
</svg>
