<svg width="134" height="58" viewBox="0 0 134 58" fill="none" xmlns="http://www.w3.org/2000/svg">
<rect width="19.0352" height="19.0352" transform="translate(0 0.078125)" fill="#219653"/>
<path d="M9.51777 13.0947L12.4127 12.3195L13.6222 16.2582L9.51777 13.0947ZM16.1801 8.00365H11.0842L9.51777 2.93359L7.95134 8.00365H2.85547L6.97976 11.1462L5.41332 16.2163L9.5376 13.0737L12.0756 11.1462L16.1801 8.00365Z" fill="white"/>
<rect width="19.0352" height="19.0352" transform="translate(20.9385 0.078125)" fill="#219653"/>
<path d="M30.4562 13.0947L33.3512 12.3195L34.5607 16.2582L30.4562 13.0947ZM37.1186 8.00365H32.0227L30.4562 2.93359L28.8898 8.00365H23.7939L27.9182 11.1462L26.3518 16.2163L30.4761 13.0737L33.0141 11.1462L37.1186 8.00365Z" fill="white"/>
<rect width="19.0352" height="19.0352" transform="translate(41.877 0.078125)" fill="#219653"/>
<path d="M51.3947 13.0947L54.2897 12.3195L55.4992 16.2582L51.3947 13.0947ZM58.057 8.00365H52.9612L51.3947 2.93359L49.8283 8.00365H44.7324L48.8567 11.1462L47.2903 16.2163L51.4146 13.0737L53.9526 11.1462L58.057 8.00365Z" fill="white"/>
<rect width="19.0352" height="19.0352" transform="translate(62.8164 0.078125)" fill="#219653"/>
<path d="M72.3342 13.0947L75.2291 12.3195L76.4386 16.2582L72.3342 13.0947ZM78.9965 8.00365H73.9006L72.3342 2.93359L70.7677 8.00365H65.6719L69.7962 11.1462L68.2297 16.2163L72.354 13.0737L74.892 11.1462L78.9965 8.00365Z" fill="white"/>
<rect width="19.0352" height="19.0352" transform="translate(83.7549 0.078125)" fill="url(#paint0_linear_411_8741)"/>
<path d="M93.2727 13.0947L96.1676 12.3195L97.3771 16.2582L93.2727 13.0947ZM99.935 8.00365H94.8391L93.2727 2.93359L91.7062 8.00365H86.6104L90.7346 11.1462L89.1682 16.2163L93.2925 13.0737L95.8305 11.1462L99.935 8.00365Z" fill="white"/>
<path d="M11.06 46.2735L15.8659 45.0602L17.8738 51.2252L11.06 46.2735ZM22.12 38.3049H13.6604L11.06 30.3691L8.4596 38.3049H0L6.84668 43.2238L4.24625 51.1596L11.0929 46.2407L15.3063 43.2238L22.12 38.3049Z" fill="#219653"/>
<path d="M23.5176 35.5141V33.0531H35.1136V35.5141H30.6504V48.2988H27.9808V35.5141H23.5176ZM42.0018 37.9542V40.311H41.0633C39.2279 40.311 38.0809 41.2912 38.0809 43.2934V48.2988H35.5364V38.0168H37.9349L38.0809 39.5184C38.5188 38.4965 39.4991 37.8082 40.8756 37.8082C41.2301 37.8082 41.5847 37.85 42.0018 37.9542ZM50.7108 37.9959H53.2552V48.2988H50.8985L50.7108 46.9223C50.0851 47.9026 48.7503 48.57 47.3738 48.57C44.9963 48.57 43.5989 46.964 43.5989 44.4405V37.9959H46.1433V43.5437C46.1433 45.5041 46.915 46.2966 48.3332 46.2966C49.9391 46.2966 50.7108 45.3581 50.7108 43.3977V37.9959ZM54.8871 45.1704H57.3064C57.3272 46.0672 57.9946 46.6303 59.1626 46.6303C60.3513 46.6303 60.9979 46.1507 60.9979 45.3998C60.9979 44.8784 60.7268 44.503 59.8091 44.2945L57.9529 43.8565C56.0967 43.4394 55.1999 42.5634 55.1999 40.9158C55.1999 38.8928 56.9101 37.6831 59.2877 37.6831C61.6027 37.6831 63.1669 39.0179 63.1878 41.0201H60.7685C60.7476 40.1441 60.1636 39.581 59.1834 39.581C58.1823 39.581 57.5984 40.0398 57.5984 40.8115C57.5984 41.3955 58.0572 41.7709 58.9331 41.9794L60.7893 42.4174C62.5204 42.8137 63.3963 43.6062 63.3963 45.1913C63.3963 47.2769 61.6236 48.57 59.0791 48.57C56.5138 48.57 54.8871 47.1935 54.8871 45.1704ZM68.8375 48.2988H66.293V40.1233H64.3117V37.9959H66.293V34.7841H68.8375V37.9959H70.8397V40.1233H68.8375V48.2988ZM72.4215 53.0749V37.9959H74.7782L74.945 39.5601C75.5707 38.3714 76.9264 37.6831 78.4906 37.6831C81.3895 37.6831 83.3083 39.7896 83.3083 43.0223C83.3083 46.2341 81.5564 48.57 78.4906 48.57C76.9472 48.57 75.6124 47.9651 74.9659 46.9223V53.0749H72.4215ZM74.9867 43.1474C74.9867 45.0036 76.1338 46.2758 77.8857 46.2758C79.6794 46.2758 80.743 44.9827 80.743 43.1474C80.743 41.3121 79.6794 39.9981 77.8857 39.9981C76.1338 39.9981 74.9867 41.2912 74.9867 43.1474ZM86.6065 35.9312C85.7305 35.9312 85.0423 35.243 85.0423 34.3879C85.0423 33.5328 85.7305 32.8654 86.6065 32.8654C87.4407 32.8654 88.129 33.5328 88.129 34.3879C88.129 35.243 87.4407 35.9312 86.6065 35.9312ZM85.3343 48.2988V37.9959H87.8787V48.2988H85.3343ZM93.0728 48.2988H90.5493V32.7819H93.0728V48.2988ZM95.1371 43.1265C95.1371 39.9147 97.4521 37.704 100.643 37.704C103.834 37.704 106.149 39.9147 106.149 43.1265C106.149 46.3384 103.834 48.5491 100.643 48.5491C97.4521 48.5491 95.1371 46.3384 95.1371 43.1265ZM97.6815 43.1265C97.6815 45.0036 98.8912 46.2758 100.643 46.2758C102.395 46.2758 103.605 45.0036 103.605 43.1265C103.605 41.2495 102.395 39.9773 100.643 39.9773C98.8912 39.9773 97.6815 41.2495 97.6815 43.1265ZM111.568 48.2988H109.023V40.1233H107.042V37.9959H109.023V34.7841H111.568V37.9959H113.57V40.1233H111.568V48.2988Z" fill="black"/>
<defs>
<linearGradient id="paint0_linear_411_8741" x1="0" y1="9.51758" x2="19.0352" y2="9.51758" gradientUnits="userSpaceOnUse">
<stop stop-color="#219653"/>
<stop offset="0.5" stop-color="#219653"/>
<stop offset="0.5001" stop-color="#219653" stop-opacity="0"/>
<stop offset="0.5002" stop-color="#D9D9D9"/>
<stop offset="0.9998" stop-color="#D9D9D9"/>
<stop offset="0.9999" stop-color="#219653" stop-opacity="0"/>
<stop offset="1" stop-color="#D9D9D9"/>
</linearGradient>
</defs>
</svg>
