<svg width="48" height="48" viewBox="0 0 48 48" fill="none" xmlns="http://www.w3.org/2000/svg">
<path d="M24 24C26.1217 24 28.1566 23.1571 29.6569 21.6569C31.1571 20.1566 32 18.1217 32 16C32 13.8783 31.1571 11.8434 29.6569 10.3431C28.1566 8.84285 26.1217 8 24 8C21.8783 8 19.8434 8.84285 18.3431 10.3431C16.8429 11.8434 16 13.8783 16 16C16 18.1217 16.8429 20.1566 18.3431 21.6569C19.8434 23.1571 21.8783 24 24 24Z" stroke="#F98A26" stroke-width="3" stroke-linecap="round" stroke-linejoin="round"/>
<path d="M10 40V38C9.99951 35.6379 10.5967 33.3141 11.7359 31.245C12.8751 29.1758 14.5193 27.4285 16.5155 26.1657C18.5116 24.9029 20.7949 24.1657 23.1526 24.0227C25.5103 23.8798 27.8659 24.3357 30 25.348M33.27 32.83L35.348 28.424C35.4042 28.298 35.4957 28.1911 35.6114 28.116C35.7271 28.0409 35.8621 28.001 36 28.001C36.1379 28.001 36.2729 28.0409 36.3886 28.116C36.5043 28.1911 36.5958 28.298 36.652 28.424L38.732 32.83L43.378 33.542C43.974 33.632 44.21 34.4 43.778 34.84L40.418 38.266L41.21 43.108C41.312 43.73 40.69 44.204 40.156 43.91L36 41.624L31.844 43.91C31.31 44.204 30.688 43.73 30.79 43.11L31.582 38.266L28.222 34.84C27.79 34.4 28.026 33.632 28.622 33.54L33.27 32.83Z" stroke="#F98A26" stroke-width="3" stroke-linecap="round" stroke-linejoin="round"/>
</svg>
