<svg width="24" height="24" viewBox="0 0 24 24" fill="none" xmlns="http://www.w3.org/2000/svg">
<path opacity="0.2" d="M22.2806 7.99323L10.2431 20.0307C10.1735 20.1005 10.0908 20.1558 9.9997 20.1935C9.90866 20.2313 9.81106 20.2507 9.7125 20.2507C9.61394 20.2507 9.51634 20.2313 9.42529 20.1935C9.33424 20.1558 9.25153 20.1005 9.18187 20.0307L2.46937 13.2807C2.32883 13.1401 2.24988 12.9494 2.24988 12.7506C2.24988 12.5517 2.32883 12.3611 2.46937 12.2204L4.71937 9.97041C4.78903 9.90068 4.87175 9.84536 4.96279 9.80762C5.05384 9.76988 5.15144 9.75045 5.25 9.75045C5.34856 9.75045 5.44616 9.76988 5.5372 9.80762C5.62825 9.84536 5.71097 9.90068 5.78062 9.97041L9.75 13.8217L18.9694 4.71948C19.039 4.64974 19.1217 4.59443 19.2128 4.55668C19.3038 4.51894 19.4014 4.49951 19.5 4.49951C19.5986 4.49951 19.6962 4.51894 19.7872 4.55668C19.8783 4.59443 19.961 4.64974 20.0306 4.71948L22.2806 6.93198C22.3504 7.00163 22.4057 7.08435 22.4434 7.1754C22.4812 7.26644 22.5006 7.36404 22.5006 7.4626C22.5006 7.56116 22.4812 7.65876 22.4434 7.74981C22.4057 7.84086 22.3504 7.92357 22.2806 7.99323Z" fill="#F98A26"/>
<path d="M22.8075 6.39756L20.5575 4.18881C20.2764 3.90858 19.8956 3.75122 19.4986 3.75122C19.1017 3.75122 18.7209 3.90858 18.4397 4.18881L9.75003 12.7716L6.31034 9.43412C6.0286 9.1548 5.64767 8.99846 5.25094 8.99934C4.8542 9.00022 4.47397 9.15824 4.19347 9.43881L1.94347 11.6888C1.66266 11.97 1.50494 12.3512 1.50494 12.7487C1.50494 13.1461 1.66266 13.5273 1.94347 13.8085L8.65784 20.5585C8.79714 20.6978 8.96251 20.8083 9.14452 20.8837C9.32653 20.9591 9.52161 20.998 9.71862 20.998C9.91564 20.998 10.1107 20.9591 10.2927 20.8837C10.4747 20.8083 10.6401 20.6978 10.7794 20.5585L22.8122 8.52287C22.9518 8.3832 23.0624 8.21735 23.1378 8.03483C23.2131 7.8523 23.2516 7.6567 23.2512 7.45924C23.2508 7.26178 23.2114 7.06635 23.1352 6.88416C23.0591 6.70198 22.9477 6.53661 22.8075 6.39756ZM9.71441 19.5001L3.00003 12.7501L5.25003 10.5001C5.25276 10.5023 5.25527 10.5048 5.25753 10.5076L9.22784 14.3597C9.368 14.4969 9.55629 14.5737 9.75237 14.5737C9.94846 14.5737 10.1368 14.4969 10.2769 14.3597L19.5057 5.25006L21.75 7.46256L9.71441 19.5001Z" fill="#F98A26"/>
</svg>
